<svg xmlns="http://www.w3.org/2000/svg" xmlns:xlink="http://www.w3.org/1999/xlink" width="55" zoomAndPan="magnify" viewBox="0 0 41.25 48.749998" height="65" preserveAspectRatio="xMidYMid meet" version="1.0"><defs><clipPath id="6d7cb028c4"><path d="M 0 0.3125 L 40.511719 0.3125 L 40.511719 48.191406 L 0 48.191406 Z M 0 0.3125 " clip-rule="nonzero"/></clipPath><clipPath id="c1ab2bf247"><path d="M 0.957031 0.3125 L 39.257812 0.3125 L 39.257812 48.191406 L 0.957031 48.191406 Z M 0.957031 0.3125 " clip-rule="nonzero"/></clipPath></defs><g clip-path="url(#6d7cb028c4)"><path fill="#ffffff" d="M 0 0.3125 L 40.511719 0.3125 L 40.511719 48.191406 L 0 48.191406 Z M 0 0.3125 " fill-opacity="1" fill-rule="nonzero"/><path fill="#ffffff" d="M 0 0.3125 L 40.511719 0.3125 L 40.511719 48.191406 L 0 48.191406 Z M 0 0.3125 " fill-opacity="1" fill-rule="nonzero"/></g><g clip-path="url(#c1ab2bf247)"><path fill="#000000" d="M 24.710938 13.578125 C 24.710938 13.265625 24.734375 12.933594 24.664062 12.621094 C 24.640625 12.457031 24.570312 12.289062 24.5 12.121094 C 24.402344 11.90625 24.191406 11.8125 23.929688 11.90625 C 23.789062 11.953125 23.667969 12.074219 23.574219 12.191406 C 23.550781 12.242188 23.527344 12.3125 23.503906 12.382812 C 23.433594 12.644531 23.457031 12.882812 23.457031 13.148438 C 23.457031 13.265625 23.480469 13.289062 23.574219 13.3125 L 23.597656 13.3125 C 23.90625 13.363281 24.046875 13.527344 24.070312 13.910156 C 24.09375 14.246094 23.976562 14.507812 23.765625 14.746094 C 23.667969 14.816406 23.597656 14.886719 23.480469 14.886719 C 23.386719 14.886719 23.339844 14.839844 23.339844 14.769531 C 23.339844 14.675781 23.339844 14.554688 23.386719 14.460938 C 23.480469 14.246094 23.503906 14.21875 23.363281 13.957031 C 23.363281 13.910156 23.339844 13.886719 23.316406 13.839844 C 23.101562 13.433594 23.101562 13.003906 23.289062 12.597656 C 23.410156 12.335938 23.527344 12.097656 23.742188 11.90625 C 23.882812 11.789062 24.023438 11.691406 24.191406 11.644531 C 24.402344 11.574219 24.664062 11.667969 24.78125 11.859375 C 24.902344 12.050781 24.949219 12.265625 24.972656 12.503906 C 24.972656 12.671875 24.996094 12.835938 24.996094 13.003906 C 24.996094 13.71875 24.902344 14.433594 24.523438 15.078125 C 24.523438 15.101562 24.5 15.101562 24.472656 15.128906 C 24.472656 15.101562 24.472656 15.078125 24.472656 15.054688 C 24.5 14.886719 24.546875 14.699219 24.59375 14.53125 C 24.664062 14.21875 24.710938 13.886719 24.710938 13.578125 Z M 18.722656 13.550781 C 18.933594 13.242188 19.101562 12.910156 19.289062 12.574219 C 19.289062 12.574219 19.289062 12.550781 19.289062 12.527344 C 19.242188 12.550781 19.21875 12.574219 19.195312 12.597656 C 18.910156 12.8125 18.628906 13.027344 18.34375 13.242188 C 17.988281 13.503906 17.609375 13.71875 17.183594 13.863281 C 16.734375 14.03125 16.285156 14.101562 15.8125 14.054688 C 15.644531 14.03125 15.503906 13.980469 15.382812 13.910156 C 15.359375 13.886719 15.335938 13.886719 15.289062 13.839844 C 15.21875 13.910156 15.195312 13.957031 15.171875 13.980469 C 15.078125 14.195312 14.933594 14.363281 14.769531 14.53125 C 14.699219 14.601562 14.601562 14.675781 14.53125 14.746094 C 14.507812 14.769531 14.507812 14.792969 14.484375 14.816406 C 14.53125 14.816406 14.554688 14.816406 14.578125 14.816406 C 14.863281 14.769531 15.125 14.769531 15.410156 14.816406 C 15.597656 14.839844 15.785156 14.863281 15.976562 14.863281 C 16.046875 14.863281 16.117188 14.863281 16.191406 14.863281 C 16.496094 14.839844 16.78125 14.792969 17.089844 14.722656 C 17.777344 14.53125 18.34375 14.171875 18.722656 13.550781 Z M 19.3125 11.714844 C 19.148438 11.644531 19.007812 11.574219 18.839844 11.5 C 18.460938 11.359375 18.082031 11.261719 17.679688 11.214844 C 17.300781 11.191406 16.921875 11.214844 16.566406 11.261719 C 15.8125 11.40625 15.101562 11.667969 14.460938 12.074219 C 14.320312 12.167969 14.199219 12.265625 14.082031 12.382812 C 13.917969 12.527344 13.847656 12.71875 13.847656 12.933594 C 13.847656 13.074219 13.941406 13.171875 14.082031 13.195312 C 14.128906 13.195312 14.152344 13.195312 14.199219 13.195312 C 14.320312 13.171875 14.4375 13.097656 14.554688 13.027344 C 14.769531 12.882812 14.980469 12.742188 15.171875 12.597656 C 15.503906 12.382812 15.835938 12.191406 16.191406 12.027344 C 16.640625 11.835938 17.113281 11.691406 17.609375 11.667969 C 18.128906 11.621094 18.652344 11.621094 19.171875 11.738281 C 19.21875 11.738281 19.265625 11.738281 19.3125 11.738281 C 19.3125 11.738281 19.3125 11.738281 19.3125 11.714844 Z M 1.890625 15.460938 C 1.84375 15.53125 1.773438 15.582031 1.726562 15.652344 C 1.726562 15.605469 2.082031 15.054688 2.246094 14.816406 C 2.816406 14.101562 3.429688 13.433594 4.070312 12.789062 C 4.566406 12.289062 5.0625 11.8125 5.609375 11.359375 C 5.941406 11.070312 6.269531 10.785156 6.625 10.5 C 7.101562 10.117188 7.597656 9.757812 8.09375 9.402344 C 8.589844 9.042969 9.089844 8.734375 9.585938 8.398438 C 9.703125 8.328125 9.820312 8.257812 9.941406 8.183594 C 10.011719 8.136719 10.011719 8.089844 10.011719 8.019531 C 10.011719 7.96875 9.988281 7.921875 9.964844 7.875 C 9.871094 7.566406 9.773438 7.253906 9.703125 6.96875 C 9.609375 6.660156 9.5625 6.324219 9.539062 6.015625 C 9.515625 5.726562 9.539062 5.441406 9.609375 5.15625 C 9.726562 4.558594 9.988281 4.035156 10.367188 3.53125 C 10.699219 3.105469 11.078125 2.746094 11.480469 2.410156 C 12.09375 1.933594 12.757812 1.578125 13.46875 1.289062 C 14.226562 1.027344 15.007812 0.8125 15.835938 0.648438 C 16.308594 0.550781 16.757812 0.480469 17.230469 0.433594 C 17.632812 0.382812 18.035156 0.359375 18.4375 0.335938 C 18.886719 0.3125 19.363281 0.3125 19.8125 0.3125 C 20.144531 0.3125 20.496094 0.335938 20.828125 0.359375 C 21.277344 0.40625 21.730469 0.457031 22.15625 0.527344 C 22.816406 0.648438 23.480469 0.835938 24.070312 1.125 C 24.261719 1.21875 24.449219 1.339844 24.617188 1.457031 C 24.757812 1.554688 24.851562 1.671875 24.902344 1.816406 C 24.972656 2.03125 25.042969 2.246094 25.089844 2.460938 C 25.207031 2.890625 25.328125 3.320312 25.46875 3.746094 C 25.46875 3.773438 25.492188 3.796875 25.492188 3.820312 C 25.539062 3.960938 25.515625 4.011719 25.351562 4.011719 C 24.902344 4.011719 24.472656 4.082031 24.046875 4.128906 C 23.597656 4.175781 23.125 4.25 22.675781 4.296875 C 22.105469 4.367188 21.539062 4.464844 20.996094 4.558594 C 20.546875 4.628906 20.09375 4.75 19.644531 4.84375 C 19.125 4.964844 18.605469 5.109375 18.082031 5.25 C 17.300781 5.464844 16.519531 5.726562 15.761719 6.015625 C 15.714844 6.039062 15.691406 6.039062 15.644531 6.0625 C 15.714844 6.109375 15.761719 6.085938 15.8125 6.0625 C 16.140625 5.964844 16.496094 5.871094 16.828125 5.777344 C 17.347656 5.632812 17.894531 5.511719 18.4375 5.394531 C 19.03125 5.273438 19.621094 5.15625 20.214844 5.058594 C 20.496094 5.011719 20.78125 4.988281 21.066406 4.941406 C 21.398438 4.894531 21.703125 4.84375 22.035156 4.820312 C 22.25 4.796875 22.4375 4.773438 22.652344 4.75 C 22.914062 4.726562 23.148438 4.703125 23.410156 4.679688 C 23.433594 4.679688 23.457031 4.679688 23.480469 4.679688 C 23.8125 4.65625 24.121094 4.628906 24.449219 4.605469 C 24.757812 4.582031 25.042969 4.558594 25.351562 4.535156 C 25.421875 4.535156 25.515625 4.535156 25.585938 4.535156 C 25.941406 4.511719 26.296875 4.535156 26.628906 4.488281 C 26.699219 4.488281 26.792969 4.488281 26.863281 4.488281 C 27.410156 4.488281 27.929688 4.488281 28.476562 4.488281 C 28.972656 4.488281 29.46875 4.511719 29.964844 4.535156 C 30.226562 4.535156 30.984375 4.65625 30.984375 4.65625 C 30.867188 4.65625 30.722656 4.65625 30.605469 4.65625 C 30.273438 4.65625 29.964844 4.65625 29.636719 4.65625 C 29.398438 4.65625 29.136719 4.65625 28.902344 4.679688 C 28.828125 4.679688 28.734375 4.679688 28.664062 4.679688 C 28.402344 4.679688 28.121094 4.679688 27.859375 4.726562 C 27.8125 4.726562 27.789062 4.726562 27.742188 4.726562 C 27.242188 4.75 26.746094 4.796875 26.226562 4.84375 C 25.894531 4.867188 25.5625 4.894531 25.230469 4.941406 C 24.78125 4.988281 24.332031 5.058594 23.882812 5.109375 C 23.621094 5.132812 23.363281 5.179688 23.078125 5.226562 C 22.816406 5.273438 22.558594 5.296875 22.273438 5.347656 C 21.679688 5.441406 21.113281 5.5625 20.519531 5.679688 C 20.023438 5.777344 19.527344 5.871094 19.054688 5.992188 C 17.988281 6.230469 16.945312 6.492188 15.929688 6.800781 C 14.699219 7.160156 13.492188 7.589844 12.308594 8.089844 C 11.335938 8.496094 10.414062 8.949219 9.492188 9.449219 C 8.140625 10.164062 6.863281 11 5.65625 11.929688 C 4.96875 12.457031 4.332031 13.003906 3.691406 13.601562 C 3.335938 13.933594 2.980469 14.269531 2.648438 14.625 C 2.390625 14.886719 2.152344 15.175781 1.890625 15.460938 Z M 24.378906 2.914062 C 24.285156 2.890625 24.191406 2.839844 24.09375 2.816406 C 23.527344 2.675781 22.9375 2.601562 22.34375 2.578125 C 21.679688 2.554688 20.996094 2.578125 20.332031 2.625 C 20.308594 2.625 20.308594 2.625 20.285156 2.625 C 19.929688 2.675781 19.597656 2.722656 19.242188 2.746094 C 18.792969 2.792969 18.34375 2.890625 17.894531 2.984375 C 17.324219 3.105469 16.757812 3.269531 16.191406 3.4375 C 15.550781 3.628906 14.933594 3.890625 14.320312 4.152344 C 13.679688 4.464844 13.066406 4.84375 12.472656 5.25 C 12.046875 5.535156 11.125 6.445312 11.125 6.492188 C 11.148438 6.492188 12.496094 5.535156 13.113281 5.226562 C 13.894531 4.820312 14.699219 4.488281 15.550781 4.199219 C 16.09375 4.011719 16.640625 3.867188 17.183594 3.746094 C 17.726562 3.628906 18.273438 3.507812 18.839844 3.4375 C 19.078125 3.390625 19.335938 3.367188 19.597656 3.34375 C 19.835938 3.320312 20.09375 3.320312 20.332031 3.269531 C 20.664062 3.222656 21.019531 3.246094 21.351562 3.199219 C 22.035156 3.199219 22.722656 3.175781 23.410156 3.222656 C 23.71875 3.246094 24.046875 3.292969 24.355469 3.34375 C 24.402344 3.34375 24.472656 3.367188 24.523438 3.367188 C 24.546875 3.367188 24.59375 3.34375 24.59375 3.292969 C 24.59375 3.222656 24.570312 3.175781 24.546875 3.105469 C 24.523438 3.007812 24.449219 2.9375 24.378906 2.914062 Z M 10.296875 6.46875 C 10.34375 6.445312 10.367188 6.394531 10.390625 6.347656 C 10.484375 6.203125 11.3125 5.179688 11.691406 4.867188 C 12.1875 4.464844 12.734375 4.128906 13.324219 3.820312 C 13.917969 3.53125 14.507812 3.269531 15.125 3.054688 C 15.550781 2.914062 15.953125 2.769531 16.378906 2.675781 C 16.996094 2.53125 17.609375 2.386719 18.25 2.292969 C 18.605469 2.246094 18.933594 2.195312 19.289062 2.171875 C 19.363281 2.171875 19.410156 2.171875 19.480469 2.148438 C 19.738281 2.125 20.023438 2.101562 20.285156 2.078125 C 20.804688 2.054688 21.324219 2.054688 21.847656 2.078125 C 22.082031 2.078125 22.34375 2.101562 22.582031 2.125 C 22.914062 2.148438 23.265625 2.195312 23.597656 2.246094 C 23.859375 2.292969 24.121094 2.363281 24.378906 2.460938 C 24.425781 2.484375 24.472656 2.4375 24.449219 2.386719 C 24.402344 2.171875 24.308594 2.007812 24.070312 1.910156 C 23.8125 1.816406 23.550781 1.742188 23.265625 1.671875 C 22.9375 1.601562 22.605469 1.554688 22.25 1.503906 C 21.65625 1.433594 21.089844 1.386719 20.496094 1.386719 C 20.09375 1.386719 19.691406 1.386719 19.3125 1.410156 C 18.910156 1.433594 18.507812 1.457031 18.105469 1.503906 C 17.632812 1.554688 17.160156 1.625 16.6875 1.71875 C 15.859375 1.886719 15.054688 2.125 14.25 2.4375 C 13.394531 2.792969 12.566406 3.222656 11.832031 3.796875 C 11.457031 4.082031 11.101562 4.414062 10.816406 4.796875 C 10.554688 5.132812 10.390625 5.488281 10.320312 5.894531 C 10.296875 6.0625 10.296875 6.46875 10.296875 6.46875 Z M 14.675781 18.277344 C 14.769531 18.15625 14.722656 18.039062 14.628906 17.988281 C 14.53125 17.941406 14.035156 17.847656 13.726562 18.0625 C 14.082031 18.015625 14.226562 18.132812 14.4375 18.253906 C 14.53125 18.324219 14.652344 18.300781 14.675781 18.277344 Z M 39.246094 7.0625 C 39.222656 7.398438 39.101562 7.707031 38.9375 7.996094 C 38.675781 8.472656 38.347656 8.875 38.015625 9.28125 C 37.824219 9.519531 37.613281 9.734375 37.398438 9.949219 C 36.949219 10.402344 36.476562 10.832031 36.003906 11.238281 C 35.433594 11.738281 34.820312 12.214844 34.203125 12.671875 C 33.753906 13.003906 33.304688 13.3125 32.855469 13.648438 C 32.308594 14.03125 31.742188 14.410156 31.195312 14.769531 C 30.464844 15.246094 29.730469 15.699219 28.996094 16.128906 C 28.78125 16.25 28.570312 16.390625 28.332031 16.511719 C 28.308594 16.535156 28.285156 16.535156 28.261719 16.558594 C 28.214844 16.605469 28.191406 16.652344 28.191406 16.703125 C 28.238281 17.011719 28.261719 17.347656 28.308594 17.65625 C 28.332031 17.871094 28.355469 18.085938 28.378906 18.300781 C 28.402344 18.539062 28.425781 18.777344 28.453125 19.015625 C 28.476562 19.230469 28.5 19.445312 28.5 19.660156 C 28.570312 20.6875 28.59375 21.710938 28.546875 22.738281 C 28.523438 23.023438 28.5 23.332031 28.476562 23.621094 C 28.453125 23.882812 28.402344 24.144531 28.378906 24.429688 C 28.308594 24.933594 28.191406 25.433594 28.046875 25.933594 C 27.90625 26.484375 27.71875 27.007812 27.457031 27.507812 C 27.386719 27.652344 27.410156 27.746094 27.480469 27.867188 C 27.671875 28.175781 27.859375 28.488281 28.074219 28.796875 C 28.238281 29.035156 28.425781 29.25 28.640625 29.441406 C 28.902344 29.679688 29.183594 29.847656 29.539062 29.894531 C 29.707031 29.917969 29.871094 29.917969 30.011719 29.941406 C 30.367188 29.964844 30.722656 29.988281 31.078125 30.0625 C 31.410156 30.109375 31.742188 30.179688 32.074219 30.226562 C 32.546875 30.324219 32.996094 30.464844 33.421875 30.632812 C 34.039062 30.871094 34.605469 31.183594 35.101562 31.589844 C 35.292969 31.730469 35.457031 31.921875 35.648438 32.089844 C 36.308594 32.734375 36.785156 33.519531 37.113281 34.378906 C 37.304688 34.878906 37.445312 35.40625 37.539062 35.929688 C 37.636719 36.550781 37.683594 37.171875 37.636719 37.789062 C 37.613281 38.054688 37.589844 38.292969 37.566406 38.554688 C 37.539062 38.816406 37.492188 39.078125 37.445312 39.363281 C 37.375 39.867188 37.28125 40.34375 37.1875 40.84375 C 37.042969 41.511719 36.878906 42.179688 36.710938 42.847656 C 36.453125 43.851562 36.191406 44.828125 35.90625 45.804688 C 35.742188 46.402344 35.550781 47 35.363281 47.59375 C 35.316406 47.667969 35.269531 47.835938 35.222656 48 C 35.148438 48 35.125 48.023438 35.078125 48.023438 C 32.6875 48.023438 30.273438 48.023438 27.882812 48.023438 C 27.882812 48.023438 27.859375 48.023438 27.859375 48 C 27.90625 47.835938 28.023438 47.714844 28.097656 47.570312 C 28.167969 47.429688 28.285156 47.285156 28.355469 47.140625 C 28.453125 47 28.523438 46.832031 28.617188 46.6875 C 28.710938 46.546875 28.78125 46.402344 28.878906 46.234375 C 28.972656 46.09375 29.042969 45.949219 29.136719 45.804688 C 29.230469 45.664062 29.304688 45.519531 29.398438 45.351562 C 29.492188 45.210938 29.5625 45.066406 29.660156 44.898438 C 29.753906 44.757812 29.847656 44.613281 29.917969 44.46875 C 30.011719 44.328125 30.085938 44.183594 30.179688 44.015625 C 30.273438 43.875 30.34375 43.730469 30.441406 43.5625 C 30.535156 43.421875 30.628906 43.277344 30.699219 43.132812 C 30.792969 42.992188 30.867188 42.847656 30.960938 42.703125 C 31.054688 42.5625 31.125 42.417969 31.222656 42.277344 C 31.316406 42.132812 31.386719 41.988281 31.480469 41.847656 C 31.574219 41.703125 31.671875 41.558594 31.742188 41.417969 C 31.835938 41.273438 31.929688 41.128906 32 40.988281 C 32.097656 40.84375 32.191406 40.699219 32.261719 40.558594 C 32.355469 40.414062 32.453125 40.273438 32.523438 40.128906 C 32.617188 39.984375 32.710938 39.84375 32.78125 39.699219 C 32.878906 39.554688 32.972656 39.414062 33.042969 39.269531 C 33.136719 39.125 33.210938 38.984375 33.304688 38.839844 C 33.398438 38.695312 33.492188 38.554688 33.5625 38.410156 C 33.660156 38.269531 33.753906 38.125 33.847656 37.980469 C 33.941406 37.839844 34.039062 37.695312 34.109375 37.550781 C 34.0625 37.503906 34.039062 37.550781 34.039062 37.574219 C 33.847656 37.816406 33.683594 38.054688 33.492188 38.269531 C 33.066406 38.863281 32.617188 39.460938 32.191406 40.058594 C 31.789062 40.605469 31.386719 41.15625 30.984375 41.703125 C 30.722656 42.0625 30.464844 42.417969 30.203125 42.777344 C 29.777344 43.347656 29.351562 43.945312 28.949219 44.519531 C 28.378906 45.328125 27.789062 46.117188 27.21875 46.925781 C 26.984375 47.238281 26.769531 47.570312 26.535156 47.882812 C 26.511719 47.90625 26.511719 47.929688 26.488281 47.953125 C 26.414062 48.046875 26.34375 48.097656 26.226562 48.097656 C 25.539062 48.097656 24.851562 48.097656 24.144531 48.097656 C 24.121094 48.097656 24.09375 48.097656 24.070312 48.074219 C 24.09375 48 24.09375 47.953125 24.121094 47.882812 C 24.355469 47.09375 24.59375 46.308594 24.828125 45.519531 C 25.066406 44.757812 25.304688 44.015625 25.5625 43.253906 C 25.871094 42.347656 26.179688 41.441406 26.488281 40.535156 C 26.890625 39.363281 27.316406 38.21875 27.71875 37.074219 C 28.023438 36.238281 28.355469 35.429688 28.664062 34.59375 C 28.996094 33.757812 29.328125 32.949219 29.660156 32.113281 C 29.707031 31.992188 29.753906 31.898438 29.777344 31.777344 C 29.730469 31.753906 29.730469 31.800781 29.707031 31.828125 C 29.5625 32.136719 29.398438 32.421875 29.257812 32.734375 C 28.996094 33.257812 28.757812 33.808594 28.523438 34.332031 C 28.121094 35.191406 27.742188 36.050781 27.363281 36.933594 C 27.101562 37.527344 26.839844 38.101562 26.582031 38.695312 C 26.179688 39.628906 25.753906 40.558594 25.351562 41.488281 C 24.875 42.5625 24.425781 43.613281 23.953125 44.683594 C 23.71875 45.210938 23.480469 45.734375 23.242188 46.285156 C 23.007812 46.832031 22.769531 47.40625 22.507812 47.953125 C 22.484375 48 22.460938 48.046875 22.4375 48.121094 C 22.390625 48.121094 22.367188 48.144531 22.320312 48.144531 C 21.871094 48.144531 21.421875 48.144531 20.949219 48.144531 C 20.921875 48.144531 20.898438 48.144531 20.875 48.121094 C 20.828125 48.074219 20.851562 48 20.875 47.953125 C 20.996094 47.523438 21.113281 47.09375 21.207031 46.664062 C 21.539062 45.449219 21.847656 44.230469 22.179688 43.015625 C 22.460938 41.917969 22.769531 40.84375 23.054688 39.746094 C 23.386719 38.507812 23.742188 37.242188 24.070312 36 C 24.308594 35.191406 24.523438 34.355469 24.757812 33.542969 C 24.972656 32.757812 25.207031 31.945312 25.445312 31.160156 C 25.46875 31.0625 25.492188 30.96875 25.539062 30.847656 C 25.46875 30.871094 25.46875 30.921875 25.445312 30.96875 C 25.230469 31.613281 25.019531 32.230469 24.78125 32.875 C 24.570312 33.496094 24.355469 34.117188 24.144531 34.738281 C 23.789062 35.761719 23.433594 36.789062 23.078125 37.789062 C 22.628906 39.125 22.15625 40.460938 21.703125 41.796875 C 21.398438 42.730469 21.066406 43.660156 20.757812 44.589844 C 20.519531 45.328125 20.261719 46.042969 20.023438 46.785156 C 19.882812 47.191406 19.765625 47.59375 19.621094 48 C 19.597656 48.046875 19.597656 48.097656 19.574219 48.144531 C 19.527344 48.144531 19.480469 48.167969 19.457031 48.167969 C 18.699219 48.191406 16.996094 48.167969 16.78125 48.144531 C 16.757812 48.097656 16.78125 48.074219 16.78125 48.023438 C 16.78125 47.976562 16.78125 47.953125 16.804688 47.90625 C 16.921875 47.308594 17.019531 46.738281 17.136719 46.140625 C 17.277344 45.375 17.445312 44.613281 17.585938 43.851562 C 17.703125 43.253906 17.847656 42.65625 17.964844 42.0625 C 18.152344 41.203125 18.34375 40.34375 18.554688 39.507812 C 18.769531 38.578125 19.007812 37.648438 19.242188 36.71875 C 19.457031 35.859375 19.691406 35 19.929688 34.140625 C 20.238281 33.042969 20.570312 31.945312 20.898438 30.871094 C 21.160156 30.011719 21.46875 29.15625 21.777344 28.320312 C 22.082031 27.507812 22.414062 26.671875 22.769531 25.886719 C 22.984375 25.410156 23.21875 24.957031 23.457031 24.503906 C 23.574219 24.265625 23.691406 24.050781 23.8125 23.835938 C 23.859375 23.738281 23.882812 23.644531 23.882812 23.546875 C 23.859375 23.429688 23.859375 23.285156 23.835938 23.167969 C 23.765625 22.664062 23.691406 22.140625 23.621094 21.640625 C 23.574219 21.328125 23.550781 21.019531 23.503906 20.710938 C 23.503906 20.636719 23.433594 19.539062 23.433594 19.492188 C 23.386719 19.492188 23.363281 19.492188 23.339844 19.515625 C 23.171875 19.566406 22.984375 19.613281 22.816406 19.660156 C 22.582031 19.730469 22.34375 19.707031 22.132812 19.636719 C 21.871094 19.539062 21.703125 19.375 21.632812 19.109375 C 21.5625 18.921875 21.539062 18.753906 21.5625 18.585938 C 21.609375 18.230469 21.703125 17.894531 21.847656 17.585938 C 22.058594 17.132812 22.320312 16.703125 22.628906 16.320312 C 22.792969 16.128906 23.007812 15.960938 23.21875 15.820312 C 23.339844 15.746094 23.457031 15.722656 23.574219 15.675781 C 23.691406 15.652344 23.789062 15.675781 23.882812 15.746094 C 24 15.84375 24.09375 15.9375 24.167969 16.082031 C 24.191406 16.152344 24.214844 16.226562 24.285156 16.273438 C 24.308594 16.25 24.332031 16.226562 24.355469 16.175781 C 24.640625 15.722656 24.902344 15.269531 25.089844 14.769531 C 25.183594 14.460938 25.253906 14.148438 25.304688 13.839844 C 25.351562 13.480469 25.351562 13.097656 25.328125 12.742188 C 25.328125 12.527344 25.304688 12.289062 25.230469 12.097656 C 25.136719 11.761719 24.925781 11.5 24.617188 11.335938 C 24.425781 11.214844 24.214844 11.214844 24 11.261719 C 23.835938 11.308594 23.691406 11.40625 23.550781 11.523438 C 23.316406 11.738281 23.125 11.976562 23.007812 12.265625 C 22.886719 12.527344 22.792969 12.8125 22.675781 13.074219 C 22.628906 13.171875 22.582031 13.289062 22.507812 13.386719 C 22.320312 13.625 22.082031 13.71875 21.777344 13.671875 C 21.632812 13.648438 21.515625 13.550781 21.445312 13.457031 C 21.324219 13.289062 21.230469 13.097656 21.160156 12.910156 C 21.042969 12.550781 20.972656 12.167969 20.898438 11.789062 C 20.851562 11.5 20.828125 11.214844 20.757812 10.90625 C 20.6875 10.546875 20.449219 10.308594 20.09375 10.210938 C 19.882812 10.140625 19.644531 10.09375 19.433594 10.023438 C 19.3125 10 19.195312 9.949219 19.078125 9.925781 C 18.816406 9.832031 18.582031 9.734375 18.507812 9.449219 C 18.367188 9.402344 18.25 9.425781 18.128906 9.449219 C 17.75 9.496094 17.371094 9.570312 16.996094 9.640625 C 16.425781 9.734375 15.882812 9.855469 15.335938 10.023438 C 14.769531 10.164062 14.226562 10.332031 13.679688 10.523438 C 12.851562 10.808594 12.023438 11.144531 11.242188 11.574219 C 10.910156 11.738281 10.601562 11.929688 10.296875 12.121094 C 10.199219 12.167969 10.152344 12.242188 10.128906 12.359375 C 10.128906 12.429688 10.105469 12.480469 10.105469 12.550781 C 10.082031 12.671875 10.082031 12.8125 10.082031 12.933594 C 10.082031 12.957031 10.082031 13.003906 10.105469 13.027344 C 10.105469 13.027344 10.128906 13.050781 10.152344 13.050781 C 10.175781 13.027344 10.222656 13.003906 10.246094 12.980469 C 10.390625 12.789062 10.601562 12.71875 10.816406 12.695312 C 11.101562 12.671875 11.382812 12.671875 11.667969 12.765625 C 12.164062 12.910156 12.519531 13.21875 12.757812 13.671875 C 12.898438 13.957031 12.992188 14.269531 13.015625 14.578125 C 13.089844 15.175781 12.992188 15.769531 12.851562 16.34375 C 12.804688 16.558594 12.6875 16.773438 12.589844 16.988281 C 12.542969 17.082031 12.496094 17.203125 12.449219 17.296875 C 12.378906 17.488281 12.402344 17.65625 12.496094 17.824219 C 12.589844 18.039062 12.757812 18.230469 12.945312 18.347656 C 13.089844 18.441406 13.230469 18.539062 13.371094 18.609375 C 13.5625 18.753906 13.539062 19.039062 13.515625 19.015625 C 13.394531 18.898438 13.253906 18.824219 13.113281 18.753906 C 12.875 18.632812 12.664062 18.492188 12.496094 18.277344 C 12.308594 18.0625 12.1875 17.800781 12.210938 17.488281 C 12.210938 17.347656 12.285156 17.203125 12.332031 17.058594 C 12.378906 16.964844 12.425781 16.867188 12.472656 16.773438 C 12.640625 16.4375 12.734375 16.082031 12.78125 15.722656 C 12.78125 15.675781 12.804688 15.605469 12.734375 15.554688 C 12.710938 15.554688 12.6875 15.554688 12.664062 15.582031 C 12.378906 15.796875 12.070312 15.890625 11.714844 15.984375 C 11.480469 16.035156 11.21875 16.082031 10.957031 16.082031 C 10.863281 16.082031 10.839844 16.105469 10.839844 16.199219 C 10.792969 16.558594 10.792969 16.894531 10.816406 17.25 C 10.816406 17.320312 10.839844 17.371094 10.839844 17.441406 C 10.863281 17.894531 10.980469 18.324219 11.148438 18.730469 C 11.3125 19.160156 11.574219 19.566406 11.832031 19.945312 C 12.261719 20.542969 12.640625 21.164062 12.96875 21.808594 C 13.160156 22.210938 13.371094 22.59375 13.609375 23 C 13.703125 23.167969 13.796875 23.308594 13.917969 23.453125 C 14.011719 23.574219 14.128906 23.667969 14.25 23.761719 C 14.4375 23.882812 14.628906 23.953125 14.863281 23.953125 C 15.21875 23.953125 15.550781 23.90625 15.882812 23.8125 C 16.378906 23.667969 16.851562 23.476562 17.300781 23.238281 C 17.964844 22.929688 18.582031 22.546875 19.171875 22.140625 C 19.953125 21.617188 20.710938 21.066406 21.46875 20.519531 C 21.679688 20.351562 22.179688 20.042969 22.203125 20.042969 C 22.132812 20.136719 21.539062 20.6875 21.277344 20.949219 C 20.664062 21.542969 20.070312 22.164062 19.480469 22.785156 C 19.054688 23.238281 18.628906 23.691406 18.25 24.214844 C 18.011719 24.550781 17.800781 24.910156 17.65625 25.3125 C 17.585938 25.550781 17.539062 25.789062 17.539062 26.03125 C 17.515625 26.386719 17.5625 26.769531 17.609375 27.125 C 17.632812 27.316406 17.65625 27.53125 17.679688 27.746094 C 17.703125 27.914062 17.726562 28.105469 17.75 28.273438 C 17.777344 28.390625 17.777344 28.535156 17.800781 28.652344 C 17.824219 28.890625 17.847656 29.15625 17.824219 29.394531 C 17.824219 29.796875 17.800781 30.203125 17.679688 30.585938 C 17.539062 31.109375 17.277344 31.539062 16.875 31.875 C 16.640625 32.089844 16.355469 32.257812 16.070312 32.421875 C 15.953125 32.496094 15.835938 32.542969 15.691406 32.613281 C 15.621094 32.660156 15.574219 32.710938 15.574219 32.78125 C 15.550781 32.972656 15.03125 33.878906 14.886719 34.261719 C 13.609375 37.289062 12.472656 45.257812 13.847656 46.808594 C 14.863281 46.210938 15.574219 44.089844 16.117188 42.847656 C 15.835938 44.542969 14.957031 47.167969 14.390625 48.046875 C 13.894531 48.046875 13.421875 48.046875 12.921875 48.046875 C 12.921875 48.046875 12.898438 48.046875 12.875 48.023438 C 12.851562 47.976562 12.828125 47.929688 12.828125 47.882812 C 12.6875 47.332031 12.542969 46.808594 12.449219 46.257812 C 12.402344 45.972656 12.378906 45.6875 12.332031 45.402344 C 12.308594 45.28125 12.308594 45.164062 12.285156 45.042969 C 12.261719 44.78125 12.238281 44.519531 12.210938 44.253906 C 12.210938 44.230469 12.210938 44.230469 12.210938 44.207031 C 12.1875 43.398438 12.140625 42.609375 12.164062 41.796875 C 12.1875 41.441406 12.1875 41.058594 12.210938 40.699219 C 12.238281 40.4375 12.261719 40.175781 12.285156 39.914062 C 12.285156 39.890625 12.285156 39.867188 12.285156 39.84375 C 12.308594 39.53125 12.308594 39.246094 12.355469 38.9375 C 12.402344 38.457031 12.449219 37.980469 12.519531 37.503906 C 12.566406 37.242188 12.589844 36.980469 12.640625 36.71875 C 12.734375 36.023438 12.851562 35.332031 12.992188 34.664062 C 13.136719 33.949219 13.300781 33.257812 13.46875 32.566406 C 13.585938 32.089844 13.703125 31.636719 13.824219 31.160156 C 13.824219 31.132812 13.824219 31.085938 13.847656 31.0625 C 13.773438 31.085938 13.773438 31.132812 13.773438 31.183594 C 13.492188 32.066406 13.207031 32.949219 12.96875 33.855469 C 12.828125 34.449219 12.664062 35.046875 12.519531 35.644531 C 12.425781 36.023438 12.355469 36.40625 12.285156 36.789062 C 12.238281 37.097656 12.164062 37.410156 12.117188 37.695312 C 12.070312 37.980469 12.023438 38.269531 12 38.554688 C 11.953125 38.886719 11.90625 39.199219 11.882812 39.53125 C 11.859375 39.722656 11.832031 39.914062 11.832031 40.105469 C 11.808594 40.414062 11.785156 40.75 11.761719 41.058594 C 11.691406 42.011719 11.714844 42.96875 11.738281 43.945312 C 11.738281 44.28125 11.761719 44.636719 11.808594 44.972656 C 11.832031 45.1875 11.859375 45.402344 11.882812 45.617188 C 11.90625 45.878906 11.953125 46.140625 12 46.425781 C 12.070312 46.925781 12.1875 47.453125 12.308594 47.929688 C 12.308594 47.953125 12.308594 48 12.308594 48.023438 C 12.285156 48.023438 12.238281 48.046875 12.210938 48.046875 C 11.785156 48.046875 11.359375 48.046875 10.910156 48.046875 C 10.886719 48.046875 10.886719 48.046875 10.839844 48.023438 C 10.816406 48 10.792969 47.953125 10.792969 47.90625 C 10.625 47.308594 10.460938 46.6875 10.34375 46.070312 C 10.246094 45.542969 10.152344 45.042969 10.058594 44.519531 C 10.011719 44.207031 9.988281 43.875 9.941406 43.5625 C 9.894531 43.183594 9.84375 42.800781 9.820312 42.417969 C 9.796875 42.179688 9.773438 41.917969 9.773438 41.679688 C 9.726562 40.84375 9.703125 39.984375 9.703125 39.152344 C 9.703125 38.671875 9.703125 38.171875 9.726562 37.695312 C 9.726562 37.480469 9.75 37.265625 9.773438 37.027344 C 9.773438 36.691406 9.820312 36.359375 9.84375 36.023438 C 9.871094 35.785156 9.894531 35.546875 9.917969 35.308594 C 9.964844 34.929688 10.011719 34.570312 10.058594 34.1875 C 10.105469 33.832031 10.152344 33.472656 10.199219 33.113281 C 10.199219 33.066406 10.222656 33.019531 10.222656 32.972656 C 10.246094 32.925781 10.246094 32.851562 10.222656 32.757812 C 10.152344 33.042969 10.105469 33.304688 10.058594 33.542969 C 9.988281 33.949219 9.917969 34.355469 9.84375 34.761719 C 9.820312 34.953125 9.796875 35.144531 9.75 35.332031 C 9.703125 35.597656 9.679688 35.835938 9.632812 36.097656 C 9.609375 36.3125 9.585938 36.527344 9.5625 36.742188 C 9.515625 37.171875 9.492188 37.625 9.441406 38.054688 C 9.417969 38.386719 9.417969 38.722656 9.394531 39.054688 C 9.371094 39.652344 9.347656 40.222656 9.371094 40.820312 C 9.371094 41.273438 9.394531 41.726562 9.417969 42.203125 C 9.441406 42.609375 9.46875 43.039062 9.515625 43.445312 C 9.585938 44.136719 9.679688 44.804688 9.773438 45.496094 C 9.894531 46.234375 10.058594 47 10.246094 47.714844 C 10.273438 47.808594 10.296875 47.882812 10.296875 47.976562 C 10.246094 47.976562 10.199219 48 10.152344 48 C 9.0625 48.023438 7.242188 48 7.027344 47.976562 C 7.027344 47.953125 7.003906 47.953125 7.003906 47.929688 C 7.003906 47.761719 7.003906 47.59375 7.027344 47.429688 C 7.050781 46.953125 7.074219 46.472656 7.027344 45.972656 C 7.027344 45.949219 7.027344 45.925781 7.027344 45.902344 C 7.003906 45.542969 7.003906 45.210938 6.957031 44.851562 C 6.910156 44.398438 6.933594 43.945312 6.910156 43.46875 C 6.863281 42.492188 6.863281 41.511719 6.886719 40.535156 C 6.886719 40.058594 6.910156 39.605469 6.933594 39.125 C 6.957031 38.722656 6.980469 38.316406 7.027344 37.933594 C 7.101562 37.171875 7.21875 36.382812 7.40625 35.644531 C 7.550781 35.046875 7.761719 34.472656 8.046875 33.949219 C 8.308594 33.472656 8.613281 33.042969 8.96875 32.660156 C 9.347656 32.28125 9.773438 31.945312 10.273438 31.707031 C 10.863281 31.398438 11.503906 31.183594 12.164062 31.015625 C 12.472656 30.945312 12.78125 30.871094 13.089844 30.824219 C 13.207031 30.800781 13.300781 30.777344 13.421875 30.730469 C 13.539062 30.707031 13.609375 30.632812 13.679688 30.515625 C 13.75 30.394531 13.824219 30.253906 13.941406 30.15625 C 14.011719 30.109375 14.035156 30.011719 14.082031 29.917969 C 14.175781 29.679688 14.273438 29.464844 14.367188 29.226562 C 14.699219 28.414062 15.101562 27.652344 15.550781 26.914062 C 15.929688 26.269531 16.355469 25.648438 16.804688 25.050781 C 16.828125 25.027344 16.851562 25.003906 16.875 24.980469 C 16.945312 24.910156 16.96875 24.8125 16.921875 24.695312 C 16.851562 24.480469 16.78125 24.265625 16.6875 24.050781 C 16.664062 23.976562 16.617188 23.953125 16.542969 23.976562 C 16.472656 24 16.378906 24.027344 16.308594 24.050781 C 15.835938 24.214844 15.359375 24.3125 14.839844 24.265625 C 14.628906 24.242188 14.4375 24.214844 14.25 24.121094 C 14.011719 24 13.824219 23.859375 13.679688 23.644531 C 13.539062 23.453125 13.445312 23.238281 13.300781 23.046875 C 13.277344 23.023438 13.253906 22.976562 13.253906 22.929688 C 13.230469 22.878906 13.183594 22.855469 13.113281 22.855469 C 13.015625 22.855469 12.921875 22.855469 12.851562 22.878906 C 12.613281 22.90625 12.402344 22.929688 12.164062 22.953125 C 11.859375 22.976562 11.574219 23 11.265625 23.046875 C 11.242188 23.046875 11.242188 23.046875 11.21875 23.046875 C 10.839844 23.070312 10.4375 23.09375 10.058594 23.117188 C 9.492188 23.214844 8.734375 23.214844 8 23.214844 C 7.597656 23.214844 7.195312 23.191406 6.792969 23.167969 C 5.867188 23.09375 4.945312 22.953125 4.070312 22.691406 C 3.550781 22.523438 3.027344 22.332031 2.554688 22.046875 C 2.175781 21.808594 1.820312 21.542969 1.535156 21.164062 C 1.347656 20.902344 1.183594 20.636719 1.109375 20.351562 C 0.992188 19.992188 0.96875 19.636719 1.015625 19.253906 C 1.085938 18.707031 1.277344 18.203125 1.535156 17.703125 C 1.796875 17.226562 2.128906 16.773438 2.460938 16.34375 C 3.003906 15.675781 3.597656 15.078125 4.210938 14.484375 C 4.707031 14.007812 5.253906 13.578125 5.773438 13.148438 C 6.671875 12.429688 7.644531 11.8125 8.613281 11.214844 C 9.347656 10.785156 10.128906 10.378906 10.910156 10 C 11.882812 9.542969 12.851562 9.117188 13.847656 8.757812 C 14.199219 8.636719 14.554688 8.496094 14.910156 8.375 C 15.480469 8.183594 16.046875 7.996094 16.640625 7.828125 C 17.539062 7.566406 18.4375 7.328125 19.335938 7.113281 C 20.167969 6.921875 21.019531 6.730469 21.871094 6.585938 C 22.273438 6.515625 22.652344 6.445312 23.054688 6.371094 C 23.316406 6.324219 23.574219 6.300781 23.859375 6.253906 C 24.144531 6.203125 24.402344 6.179688 24.6875 6.132812 C 25.019531 6.085938 25.351562 6.039062 25.683594 6.015625 C 25.847656 5.992188 26.011719 5.964844 26.179688 5.941406 C 26.4375 5.917969 26.675781 5.871094 26.9375 5.847656 C 27.171875 5.824219 27.386719 5.800781 27.621094 5.777344 C 27.8125 5.75 28 5.726562 28.214844 5.726562 C 28.546875 5.703125 28.855469 5.679688 29.183594 5.65625 C 29.515625 5.632812 29.847656 5.609375 30.179688 5.585938 C 30.203125 5.585938 30.25 5.585938 30.273438 5.585938 C 30.9375 5.5625 31.597656 5.535156 32.261719 5.511719 C 33.042969 5.488281 33.824219 5.488281 34.605469 5.488281 C 35.125 5.488281 35.671875 5.511719 36.191406 5.535156 C 36.808594 5.585938 37.398438 5.65625 37.992188 5.824219 C 38.25 5.894531 38.488281 6.015625 38.722656 6.132812 C 38.84375 6.203125 38.9375 6.277344 39.03125 6.394531 C 39.199219 6.585938 39.246094 6.800781 39.246094 7.0625 Z M 8.757812 46.808594 C 8.6875 46.332031 8.660156 45.832031 8.613281 45.351562 C 8.566406 44.851562 8.496094 44.375 8.472656 43.875 C 8.402344 42.894531 8.402344 41.917969 8.402344 40.941406 C 8.402344 40.34375 8.402344 39.769531 8.402344 39.175781 C 8.402344 39.078125 8.402344 38.984375 8.402344 38.910156 C 8.449219 38.648438 8.425781 38.363281 8.449219 38.101562 C 8.449219 37.910156 8.449219 37.742188 8.449219 37.550781 C 8.449219 37.433594 8.472656 37.289062 8.496094 37.171875 C 8.519531 36.90625 8.519531 36.621094 8.496094 36.359375 C 8.472656 36.503906 8.285156 37.433594 8.257812 37.742188 C 8.210938 38.148438 8.210938 38.554688 8.1875 38.984375 C 8.117188 40.941406 8.140625 42.917969 8.378906 44.875 C 8.425781 45.519531 8.636719 46.140625 8.757812 46.808594 Z M 13.113281 31.324219 C 13.113281 31.300781 13.089844 31.253906 13.066406 31.253906 C 12.898438 31.277344 12.734375 31.300781 12.589844 31.347656 C 12.332031 31.421875 12.164062 31.5625 12.070312 31.828125 C 12.023438 31.945312 12 32.066406 11.953125 32.183594 C 11.882812 32.496094 11.785156 32.804688 11.714844 33.113281 C 11.574219 33.6875 11.457031 34.285156 11.359375 34.878906 C 11.289062 35.355469 11.21875 35.8125 11.148438 36.289062 C 11.078125 36.667969 11.054688 37.074219 11.003906 37.457031 C 10.980469 37.671875 10.957031 37.886719 10.957031 38.125 C 10.933594 38.433594 10.910156 38.722656 10.886719 39.03125 C 10.863281 39.339844 10.863281 39.628906 10.839844 39.9375 C 10.816406 40.988281 10.816406 42.035156 10.886719 43.085938 C 10.910156 43.300781 10.910156 43.492188 10.933594 43.707031 C 10.957031 43.96875 10.980469 44.207031 11.027344 44.46875 C 11.054688 44.734375 11.101562 44.996094 11.148438 45.257812 C 11.21875 45.617188 11.289062 45.949219 11.335938 46.285156 C 11.382812 46.332031 11.40625 46.402344 11.429688 46.5 C 11.457031 46.378906 11.457031 46.308594 11.429688 46.210938 C 11.40625 46.042969 11.382812 45.878906 11.359375 45.734375 C 11.335938 45.519531 11.3125 45.304688 11.289062 45.089844 C 11.242188 44.707031 11.195312 44.351562 11.195312 43.96875 C 11.195312 43.347656 11.195312 42.703125 11.195312 42.085938 C 11.195312 41.582031 11.242188 41.105469 11.265625 40.605469 C 11.265625 40.414062 11.289062 40.222656 11.3125 40.007812 C 11.335938 39.792969 11.359375 39.578125 11.382812 39.339844 C 11.429688 38.9375 11.480469 38.554688 11.527344 38.148438 C 11.550781 38.003906 11.574219 37.863281 11.574219 37.742188 C 11.621094 37.410156 11.667969 37.050781 11.738281 36.71875 C 11.832031 36.191406 11.953125 35.667969 12.070312 35.117188 C 12.238281 34.285156 12.472656 33.472656 12.710938 32.660156 C 12.828125 32.257812 12.96875 31.851562 13.089844 31.445312 C 13.113281 31.398438 13.113281 31.375 13.113281 31.324219 Z M 10.367188 13.625 C 10.367188 13.648438 10.390625 13.648438 10.390625 13.671875 C 10.648438 14.078125 10.839844 14.53125 10.886719 15.007812 C 10.933594 15.078125 10.957031 15.128906 10.980469 15.222656 C 11.101562 15.222656 11.21875 15.222656 11.3125 15.199219 C 11.738281 15.101562 12.140625 14.960938 12.496094 14.722656 C 12.566406 14.675781 12.640625 14.625 12.710938 14.554688 C 12.757812 14.53125 12.757812 14.484375 12.757812 14.410156 C 12.734375 14.339844 12.710938 14.292969 12.6875 14.21875 C 12.542969 13.933594 12.308594 13.742188 12.046875 13.601562 C 11.644531 13.386719 11.21875 13.3125 10.746094 13.363281 C 10.625 13.363281 10.53125 13.410156 10.414062 13.457031 C 10.34375 13.480469 10.320312 13.550781 10.367188 13.625 Z M 23.644531 19.230469 C 23.574219 19.230469 23.527344 19.230469 23.457031 19.253906 C 23.289062 19.300781 23.125 19.300781 22.984375 19.277344 C 22.628906 19.230469 22.4375 19.085938 22.34375 18.753906 C 22.320312 18.65625 22.296875 18.585938 22.296875 18.492188 C 22.273438 18.15625 22.34375 17.847656 22.460938 17.5625 C 22.628906 17.132812 22.863281 16.75 23.148438 16.390625 C 23.289062 16.199219 23.433594 16.035156 23.621094 15.890625 C 23.644531 15.867188 23.667969 15.84375 23.621094 15.820312 C 23.550781 15.84375 23.480469 15.890625 23.410156 15.9375 C 23.21875 16.105469 23.054688 16.273438 22.886719 16.464844 C 22.675781 16.75 22.484375 17.058594 22.34375 17.394531 C 22.179688 17.773438 22.082031 18.179688 22.132812 18.609375 C 22.132812 18.753906 22.179688 18.871094 22.226562 18.992188 C 22.34375 19.253906 22.535156 19.398438 22.816406 19.445312 C 23.101562 19.46875 23.386719 19.421875 23.644531 19.230469 Z M 24.191406 18.515625 C 24.167969 18.492188 23.621094 18.898438 23.433594 18.347656 C 23.410156 18.277344 23.386719 18.179688 23.386719 18.109375 C 23.386719 17.988281 23.386719 17.871094 23.410156 17.75 C 23.433594 17.535156 23.574219 17.058594 23.550781 17.035156 C 23.527344 17.058594 23.363281 17.417969 23.289062 17.585938 C 23.171875 17.847656 23.148438 18.132812 23.171875 18.394531 C 23.171875 18.492188 23.21875 18.585938 23.265625 18.683594 C 23.386719 18.871094 23.574219 18.945312 23.789062 18.847656 C 23.953125 18.777344 24.09375 18.65625 24.191406 18.515625 Z M 24.5 17.535156 C 24.472656 17.441406 24.167969 16.558594 24.121094 16.558594 C 24.261719 16.894531 24.378906 17.917969 24.378906 17.988281 C 24.402344 17.964844 24.546875 17.679688 24.5 17.535156 Z M 23.550781 11.167969 C 23.316406 10.953125 22.863281 10.691406 22.273438 10.855469 C 22.863281 10.90625 23.363281 11.09375 23.550781 11.167969 Z M 24.523438 10.855469 C 24.285156 10.640625 24.023438 10.453125 23.742188 10.332031 C 23.316406 10.140625 22.863281 10.046875 22.390625 10.023438 C 22.058594 10 21.300781 10.070312 21.277344 10.117188 C 21.300781 10.117188 21.492188 10.09375 21.539062 10.09375 C 21.632812 10.09375 23.054688 10.117188 24.523438 10.855469 Z M 26.058594 17.394531 C 26.058594 16.941406 26.058594 16.488281 26.035156 16.035156 C 26.011719 15.628906 26.011719 15.222656 25.964844 14.839844 C 25.964844 14.746094 25.941406 14.648438 25.871094 14.554688 C 25.871094 14.675781 25.871094 14.746094 25.871094 14.839844 C 25.871094 15.554688 25.871094 16.25 25.894531 16.964844 C 25.917969 18.65625 25.917969 20.328125 25.917969 22.023438 C 26.011719 21.855469 25.964844 20.828125 26.011719 20.160156 C 26.058594 19.230469 26.058594 18.300781 26.058594 17.394531 Z M 26.109375 13.957031 C 26.058594 13.695312 25.917969 13.050781 25.847656 13.074219 C 25.847656 13.148438 26.296875 16.082031 26.34375 16.34375 C 26.460938 17.132812 26.984375 21.902344 27.007812 21.925781 C 27.269531 19.207031 26.203125 14.507812 26.109375 13.957031 Z M 27.976562 19.613281 C 27.953125 19.230469 27.882812 18.871094 27.835938 18.492188 C 27.765625 17.964844 27.671875 17.441406 27.550781 16.917969 C 27.480469 16.511719 27.363281 16.128906 27.242188 15.722656 C 26.9375 14.648438 26.582031 13.578125 26.15625 12.550781 C 25.941406 12.050781 25.683594 11.546875 25.375 11.09375 C 25.089844 10.667969 24.78125 10.238281 24.332031 9.972656 C 22.914062 9.117188 19.976562 9.210938 19.8125 9.28125 C 21.113281 9.234375 23.597656 9.757812 24.046875 10.070312 C 24.570312 10.425781 24.972656 10.855469 25.277344 11.40625 C 25.492188 11.789062 25.683594 12.191406 25.871094 12.597656 C 26.15625 13.242188 26.414062 13.886719 26.652344 14.554688 C 26.816406 15.03125 26.960938 15.53125 27.101562 16.035156 C 27.363281 16.941406 27.574219 17.847656 27.71875 18.753906 C 27.765625 19.109375 27.835938 19.445312 27.859375 19.804688 C 27.882812 19.992188 28 20.972656 28 21.042969 C 28.046875 20.996094 28 20.042969 27.976562 19.613281 Z M 23.316406 8.996094 C 23.101562 8.949219 22.414062 8.902344 22.367188 8.925781 C 22.414062 8.949219 23.242188 9.117188 23.597656 9.234375 C 23.929688 9.355469 24.261719 9.496094 24.546875 9.664062 C 24.851562 9.855469 25.136719 10.070312 25.375 10.332031 C 25.5625 10.546875 25.730469 10.761719 25.871094 11 C 26.15625 11.453125 26.390625 11.90625 26.582031 12.382812 C 26.769531 12.835938 26.960938 13.3125 27.101562 13.792969 C 27.148438 13.933594 27.195312 14.078125 27.242188 14.195312 C 27.242188 14.21875 27.242188 14.21875 27.269531 14.246094 C 27.242188 14.125 27.21875 14.03125 27.171875 13.910156 C 26.960938 13.195312 26.722656 12.480469 26.4375 11.789062 C 26.25 11.308594 26.011719 10.878906 25.707031 10.453125 C 25.328125 9.925781 24.828125 9.542969 24.238281 9.28125 C 23.929688 9.164062 23.621094 9.066406 23.316406 8.996094 Z M 24.023438 8.972656 C 24.121094 8.996094 24.238281 9.019531 24.332031 9.066406 C 24.449219 9.117188 24.546875 9.164062 24.640625 9.210938 C 24.734375 9.257812 24.851562 9.304688 24.949219 9.378906 C 25.042969 9.425781 25.136719 9.496094 25.230469 9.570312 C 25.328125 9.617188 25.398438 9.6875 25.492188 9.757812 C 25.585938 9.832031 25.65625 9.902344 25.753906 10 C 25.445312 9.257812 24.285156 8.734375 23.667969 8.902344 C 23.8125 8.925781 23.90625 8.949219 24.023438 8.972656 Z M 35.007812 7.660156 C 34.9375 7.613281 34.890625 7.566406 34.820312 7.515625 C 34.535156 7.300781 34.203125 7.183594 33.871094 7.085938 C 33.398438 6.945312 32.902344 6.871094 32.40625 6.800781 C 32.050781 6.753906 31.695312 6.730469 31.339844 6.707031 C 30.746094 6.683594 30.179688 6.632812 29.585938 6.660156 C 29.328125 6.660156 29.089844 6.660156 28.828125 6.660156 C 28.59375 6.660156 28.355469 6.660156 28.121094 6.683594 C 27.671875 6.707031 27.242188 6.730469 26.816406 6.753906 C 26.511719 6.777344 26.226562 6.777344 25.917969 6.824219 C 25.5625 6.847656 25.183594 6.921875 24.828125 6.945312 C 24.6875 6.96875 24.523438 6.992188 24.378906 6.992188 C 24.191406 7.015625 24 7.039062 23.789062 7.0625 C 23.316406 7.136719 22.863281 7.207031 22.390625 7.300781 C 21.894531 7.398438 21.398438 7.46875 20.898438 7.566406 C 20.191406 7.707031 19.503906 7.875 18.816406 8.042969 C 17.726562 8.304688 16.640625 8.636719 15.550781 8.972656 C 14.628906 9.257812 13.726562 9.59375 12.851562 9.949219 C 12.355469 10.164062 11.859375 10.378906 11.382812 10.59375 C 11.335938 10.617188 11.289062 10.640625 11.265625 10.667969 C 11.3125 10.691406 11.335938 10.691406 11.359375 10.667969 C 11.738281 10.523438 12.117188 10.378906 12.496094 10.238281 C 12.945312 10.070312 13.421875 9.925781 13.894531 9.785156 C 14.484375 9.59375 15.101562 9.425781 15.691406 9.257812 C 16.640625 8.996094 17.609375 8.78125 18.582031 8.566406 C 19.101562 8.472656 19.621094 8.351562 20.144531 8.257812 C 20.519531 8.183594 20.875 8.136719 21.253906 8.066406 C 21.492188 8.019531 21.730469 7.996094 21.964844 7.96875 C 22.179688 7.945312 22.390625 7.921875 22.605469 7.875 C 22.886719 7.828125 23.171875 7.804688 23.480469 7.753906 C 23.71875 7.730469 23.929688 7.707031 24.167969 7.683594 C 24.523438 7.636719 24.902344 7.613281 25.253906 7.589844 C 25.304688 7.589844 25.351562 7.589844 25.398438 7.589844 C 25.777344 7.566406 26.15625 7.515625 26.535156 7.515625 C 27.742188 7.492188 28.949219 7.445312 30.15625 7.566406 C 30.390625 7.589844 30.605469 7.613281 30.84375 7.636719 C 31.171875 7.683594 31.480469 7.730469 31.789062 7.804688 C 32.167969 7.898438 32.546875 8.019531 32.902344 8.207031 C 33.042969 8.28125 33.183594 8.375 33.304688 8.472656 C 33.492188 8.636719 33.636719 8.828125 33.683594 9.089844 C 33.707031 9.257812 33.707031 9.449219 33.660156 9.617188 C 33.613281 9.785156 33.5625 9.925781 33.46875 10.070312 C 33.28125 10.425781 33.019531 10.738281 32.757812 11.046875 C 32.214844 11.667969 31.574219 12.214844 30.9375 12.71875 C 30.675781 12.933594 30.390625 13.125 30.109375 13.339844 C 29.636719 13.695312 29.160156 14.03125 28.664062 14.339844 C 28.570312 14.386719 28.476562 14.460938 28.355469 14.53125 C 28.355469 14.554688 28.996094 14.292969 29.207031 14.171875 C 29.941406 13.792969 30.628906 13.363281 31.316406 12.910156 C 31.90625 12.503906 32.5 12.097656 33.042969 11.621094 C 33.46875 11.261719 33.871094 10.90625 34.226562 10.5 C 34.488281 10.210938 34.722656 9.902344 34.9375 9.570312 C 35.125 9.257812 35.246094 8.949219 35.316406 8.589844 C 35.363281 8.234375 35.292969 7.898438 35.007812 7.660156 Z M 13.988281 19.566406 C 14.199219 19.375 14.4375 19.375 14.699219 19.421875 C 14.910156 19.46875 15.125 19.539062 15.3125 19.636719 C 15.480469 19.730469 15.667969 19.804688 15.835938 19.875 C 16.09375 19.992188 16.804688 20.234375 16.898438 20.257812 C 16.875 20.304688 16.332031 20.734375 16.070312 20.925781 C 15.835938 21.089844 15.597656 21.257812 15.335938 21.425781 C 15.125 21.570312 14.863281 21.664062 14.628906 21.710938 C 14.367188 21.78125 14.082031 21.78125 13.796875 21.710938 C 13.5625 21.664062 13.371094 21.519531 13.230469 21.304688 C 13.015625 20.972656 12.921875 20.613281 12.96875 20.234375 C 12.992188 20.042969 13.066406 19.851562 13.230469 19.707031 C 13.324219 19.613281 13.445312 19.589844 13.5625 19.613281 C 13.585938 19.613281 13.585938 19.613281 13.609375 19.636719 C 13.75 19.683594 13.871094 19.660156 13.988281 19.566406 Z M 13.515625 20.851562 C 13.609375 20.972656 13.75 21.019531 13.941406 21.019531 C 14.152344 21.042969 14.578125 20.925781 14.769531 20.851562 C 15.007812 20.757812 15.457031 20.589844 15.480469 20.566406 C 15.433594 20.519531 14.507812 20.445312 14.011719 20.734375 C 13.988281 20.710938 13.515625 20.804688 13.515625 20.851562 Z M 13.515625 20.851562 " fill-opacity="1" fill-rule="nonzero"/></g></svg>