<svg xmlns="http://www.w3.org/2000/svg" xmlns:xlink="http://www.w3.org/1999/xlink" width="105" zoomAndPan="magnify" viewBox="0 0 78.75 97.5" height="130" preserveAspectRatio="xMidYMid meet" version="1.0"><defs><clipPath id="3cbaef2b9d"><path d="M 0.078125 0 L 78.425781 0 L 78.425781 97.003906 L 0.078125 97.003906 Z M 0.078125 0 " clip-rule="nonzero"/></clipPath><clipPath id="98d18a9a34"><path d="M 0.078125 0.75 L 77.679688 0.75 L 77.679688 97 L 0.078125 97 Z M 0.078125 0.75 " clip-rule="nonzero"/></clipPath></defs><g clip-path="url(#3cbaef2b9d)"><path fill="#ffffff" d="M 0.078125 0 L 78.425781 0 L 78.425781 97.003906 L 0.078125 97.003906 Z M 0.078125 0 " fill-opacity="1" fill-rule="nonzero"/><path fill="#ffffff" d="M 0.078125 0 L 78.425781 0 L 78.425781 97.003906 L 0.078125 97.003906 Z M 0.078125 0 " fill-opacity="1" fill-rule="nonzero"/></g><g clip-path="url(#98d18a9a34)"><path fill="#000000" d="M 48.203125 27.414062 C 48.203125 26.792969 48.253906 26.121094 48.109375 25.496094 C 48.0625 25.160156 47.917969 24.824219 47.773438 24.488281 C 47.582031 24.058594 47.148438 23.867188 46.621094 24.058594 C 46.335938 24.15625 46.09375 24.394531 45.902344 24.632812 C 45.855469 24.730469 45.808594 24.875 45.757812 25.019531 C 45.613281 25.546875 45.664062 26.023438 45.664062 26.550781 C 45.664062 26.792969 45.710938 26.839844 45.902344 26.886719 L 45.949219 26.886719 C 46.574219 26.984375 46.863281 27.320312 46.910156 28.085938 C 46.957031 28.757812 46.71875 29.285156 46.285156 29.765625 C 46.09375 29.910156 45.949219 30.054688 45.710938 30.054688 C 45.519531 30.054688 45.421875 29.957031 45.421875 29.8125 C 45.421875 29.621094 45.421875 29.382812 45.519531 29.191406 C 45.710938 28.757812 45.757812 28.710938 45.472656 28.183594 C 45.472656 28.085938 45.421875 28.039062 45.375 27.941406 C 44.945312 27.128906 44.945312 26.265625 45.328125 25.449219 C 45.566406 24.921875 45.808594 24.441406 46.238281 24.058594 C 46.527344 23.820312 46.8125 23.625 47.148438 23.53125 C 47.582031 23.386719 48.109375 23.578125 48.347656 23.960938 C 48.589844 24.347656 48.683594 24.777344 48.730469 25.257812 C 48.730469 25.59375 48.78125 25.929688 48.78125 26.265625 C 48.78125 27.703125 48.589844 29.140625 47.820312 30.4375 C 47.820312 30.484375 47.773438 30.484375 47.726562 30.53125 C 47.726562 30.484375 47.726562 30.4375 47.726562 30.390625 C 47.773438 30.054688 47.867188 29.667969 47.964844 29.335938 C 48.109375 28.710938 48.203125 28.039062 48.203125 27.414062 Z M 36.070312 27.367188 C 36.503906 26.746094 36.839844 26.074219 37.222656 25.402344 C 37.222656 25.402344 37.222656 25.351562 37.222656 25.304688 C 37.128906 25.351562 37.078125 25.402344 37.03125 25.449219 C 36.457031 25.882812 35.878906 26.3125 35.304688 26.746094 C 34.585938 27.273438 33.816406 27.703125 32.957031 27.992188 C 32.042969 28.328125 31.132812 28.472656 30.171875 28.375 C 29.839844 28.328125 29.550781 28.230469 29.3125 28.085938 C 29.261719 28.039062 29.214844 28.039062 29.117188 27.941406 C 28.976562 28.085938 28.925781 28.183594 28.878906 28.230469 C 28.6875 28.664062 28.398438 29 28.0625 29.335938 C 27.921875 29.476562 27.726562 29.621094 27.585938 29.765625 C 27.535156 29.8125 27.535156 29.863281 27.488281 29.910156 C 27.585938 29.910156 27.632812 29.910156 27.679688 29.910156 C 28.253906 29.8125 28.78125 29.8125 29.359375 29.910156 C 29.742188 29.957031 30.125 30.003906 30.507812 30.003906 C 30.652344 30.003906 30.796875 30.003906 30.941406 30.003906 C 31.566406 29.957031 32.140625 29.863281 32.761719 29.71875 C 34.152344 29.335938 35.304688 28.613281 36.070312 27.367188 Z M 37.269531 23.675781 C 36.933594 23.53125 36.648438 23.386719 36.3125 23.242188 C 35.542969 22.957031 34.777344 22.761719 33.960938 22.667969 C 33.195312 22.621094 32.425781 22.667969 31.707031 22.761719 C 30.171875 23.050781 28.734375 23.578125 27.441406 24.394531 C 27.152344 24.585938 26.914062 24.777344 26.671875 25.019531 C 26.335938 25.304688 26.195312 25.6875 26.195312 26.121094 C 26.195312 26.410156 26.386719 26.601562 26.671875 26.648438 C 26.769531 26.648438 26.816406 26.648438 26.914062 26.648438 C 27.152344 26.601562 27.390625 26.457031 27.632812 26.3125 C 28.0625 26.023438 28.496094 25.738281 28.878906 25.449219 C 29.550781 25.019531 30.222656 24.632812 30.941406 24.296875 C 31.851562 23.914062 32.8125 23.625 33.816406 23.578125 C 34.875 23.484375 35.929688 23.484375 36.984375 23.722656 C 37.078125 23.722656 37.175781 23.722656 37.269531 23.722656 C 37.269531 23.722656 37.269531 23.722656 37.269531 23.675781 Z M 1.976562 31.203125 C 1.878906 31.347656 1.738281 31.445312 1.640625 31.589844 C 1.640625 31.492188 2.359375 30.390625 2.695312 29.910156 C 3.847656 28.472656 5.09375 27.128906 6.386719 25.832031 C 7.394531 24.824219 8.402344 23.867188 9.503906 22.957031 C 10.175781 22.378906 10.847656 21.804688 11.566406 21.230469 C 12.527344 20.460938 13.535156 19.742188 14.539062 19.023438 C 15.546875 18.304688 16.554688 17.679688 17.5625 17.007812 C 17.800781 16.863281 18.042969 16.71875 18.28125 16.578125 C 18.425781 16.480469 18.425781 16.382812 18.425781 16.242188 C 18.425781 16.144531 18.378906 16.050781 18.328125 15.953125 C 18.136719 15.328125 17.945312 14.707031 17.800781 14.128906 C 17.609375 13.507812 17.515625 12.835938 17.464844 12.210938 C 17.417969 11.636719 17.464844 11.0625 17.609375 10.484375 C 17.847656 9.285156 18.378906 8.230469 19.144531 7.222656 C 19.816406 6.359375 20.582031 5.640625 21.398438 4.96875 C 22.644531 4.011719 23.988281 3.292969 25.425781 2.714844 C 26.960938 2.1875 28.542969 1.757812 30.222656 1.421875 C 31.179688 1.230469 32.09375 1.085938 33.050781 0.988281 C 33.867188 0.894531 34.679688 0.84375 35.496094 0.796875 C 36.40625 0.75 37.367188 0.75 38.277344 0.75 C 38.949219 0.75 39.667969 0.796875 40.339844 0.84375 C 41.25 0.941406 42.164062 1.039062 43.027344 1.179688 C 44.367188 1.421875 45.710938 1.804688 46.910156 2.378906 C 47.292969 2.570312 47.675781 2.8125 48.011719 3.050781 C 48.300781 3.242188 48.492188 3.484375 48.589844 3.769531 C 48.730469 4.203125 48.875 4.632812 48.972656 5.066406 C 49.210938 5.929688 49.453125 6.792969 49.738281 7.65625 C 49.738281 7.703125 49.789062 7.75 49.789062 7.800781 C 49.882812 8.085938 49.835938 8.183594 49.5 8.183594 C 48.589844 8.183594 47.726562 8.328125 46.863281 8.421875 C 45.949219 8.519531 44.992188 8.664062 44.082031 8.757812 C 42.929688 8.902344 41.777344 9.09375 40.675781 9.285156 C 39.765625 9.429688 38.855469 9.671875 37.941406 9.863281 C 36.886719 10.101562 35.832031 10.390625 34.777344 10.675781 C 33.195312 11.109375 31.613281 11.636719 30.078125 12.210938 C 29.980469 12.261719 29.933594 12.261719 29.839844 12.308594 C 29.980469 12.402344 30.078125 12.355469 30.171875 12.308594 C 30.84375 12.117188 31.566406 11.925781 32.234375 11.734375 C 33.289062 11.445312 34.394531 11.203125 35.496094 10.964844 C 36.695312 10.726562 37.894531 10.484375 39.09375 10.292969 C 39.667969 10.199219 40.246094 10.148438 40.820312 10.054688 C 41.492188 9.957031 42.113281 9.863281 42.785156 9.8125 C 43.21875 9.765625 43.601562 9.71875 44.03125 9.671875 C 44.558594 9.621094 45.039062 9.574219 45.566406 9.527344 C 45.613281 9.527344 45.664062 9.527344 45.710938 9.527344 C 46.382812 9.476562 47.003906 9.429688 47.675781 9.382812 C 48.300781 9.335938 48.875 9.285156 49.5 9.238281 C 49.644531 9.238281 49.835938 9.238281 49.980469 9.238281 C 50.699219 9.191406 51.417969 9.238281 52.089844 9.144531 C 52.234375 9.144531 52.425781 9.144531 52.570312 9.144531 C 53.671875 9.144531 54.726562 9.144531 55.828125 9.144531 C 56.835938 9.144531 57.84375 9.191406 58.851562 9.238281 C 59.378906 9.238281 60.914062 9.476562 60.914062 9.476562 C 60.671875 9.476562 60.386719 9.476562 60.144531 9.476562 C 59.472656 9.476562 58.851562 9.476562 58.179688 9.476562 C 57.699219 9.476562 57.171875 9.476562 56.691406 9.527344 C 56.546875 9.527344 56.355469 9.527344 56.214844 9.527344 C 55.6875 9.527344 55.109375 9.527344 54.582031 9.621094 C 54.488281 9.621094 54.4375 9.621094 54.34375 9.621094 C 53.335938 9.671875 52.328125 9.765625 51.273438 9.863281 C 50.601562 9.910156 49.929688 9.957031 49.257812 10.054688 C 48.347656 10.148438 47.4375 10.292969 46.527344 10.390625 C 46 10.4375 45.472656 10.535156 44.894531 10.628906 C 44.367188 10.726562 43.839844 10.773438 43.265625 10.871094 C 42.066406 11.0625 40.914062 11.300781 39.714844 11.539062 C 38.710938 11.734375 37.703125 11.925781 36.742188 12.164062 C 34.585938 12.644531 32.476562 13.171875 30.414062 13.792969 C 27.921875 14.515625 25.472656 15.378906 23.078125 16.382812 C 21.109375 17.199219 19.238281 18.109375 17.371094 19.117188 C 14.636719 20.558594 12.046875 22.234375 9.601562 24.105469 C 8.210938 25.160156 6.914062 26.265625 5.621094 27.464844 C 4.902344 28.136719 4.183594 28.804688 3.511719 29.527344 C 2.984375 30.054688 2.503906 30.628906 1.976562 31.203125 Z M 47.535156 5.976562 C 47.339844 5.929688 47.148438 5.832031 46.957031 5.785156 C 45.808594 5.496094 44.609375 5.355469 43.410156 5.304688 C 42.066406 5.257812 40.675781 5.304688 39.332031 5.402344 C 39.285156 5.402344 39.285156 5.402344 39.238281 5.402344 C 38.519531 5.496094 37.847656 5.59375 37.128906 5.640625 C 36.214844 5.738281 35.304688 5.929688 34.394531 6.121094 C 33.242188 6.359375 32.09375 6.695312 30.941406 7.03125 C 29.644531 7.417969 28.398438 7.945312 27.152344 8.472656 C 25.859375 9.09375 24.609375 9.863281 23.414062 10.675781 C 22.550781 11.253906 20.679688 13.074219 20.679688 13.171875 C 20.726562 13.171875 23.460938 11.253906 24.707031 10.628906 C 26.289062 9.8125 27.921875 9.144531 29.644531 8.566406 C 30.75 8.183594 31.851562 7.894531 32.957031 7.65625 C 34.058594 7.417969 35.160156 7.175781 36.3125 7.03125 C 36.792969 6.9375 37.320312 6.886719 37.847656 6.839844 C 38.324219 6.792969 38.855469 6.792969 39.332031 6.695312 C 40.003906 6.601562 40.722656 6.648438 41.394531 6.554688 C 42.785156 6.554688 44.175781 6.503906 45.566406 6.601562 C 46.191406 6.648438 46.863281 6.746094 47.484375 6.839844 C 47.582031 6.839844 47.726562 6.886719 47.820312 6.886719 C 47.867188 6.886719 47.964844 6.839844 47.964844 6.746094 C 47.964844 6.601562 47.917969 6.503906 47.867188 6.359375 C 47.820312 6.167969 47.675781 6.023438 47.535156 5.976562 Z M 19 13.125 C 19.097656 13.074219 19.144531 12.980469 19.191406 12.882812 C 19.382812 12.597656 21.0625 10.535156 21.828125 9.910156 C 22.835938 9.09375 23.941406 8.421875 25.136719 7.800781 C 26.335938 7.222656 27.535156 6.695312 28.78125 6.265625 C 29.644531 5.976562 30.460938 5.691406 31.324219 5.496094 C 32.570312 5.210938 33.816406 4.921875 35.113281 4.730469 C 35.832031 4.632812 36.503906 4.539062 37.222656 4.492188 C 37.367188 4.492188 37.464844 4.492188 37.605469 4.441406 C 38.132812 4.394531 38.710938 4.347656 39.238281 4.296875 C 40.292969 4.25 41.347656 4.25 42.402344 4.296875 C 42.882812 4.296875 43.410156 4.347656 43.890625 4.394531 C 44.558594 4.441406 45.28125 4.539062 45.949219 4.632812 C 46.476562 4.730469 47.003906 4.875 47.535156 5.066406 C 47.628906 5.113281 47.726562 5.019531 47.675781 4.921875 C 47.582031 4.492188 47.390625 4.15625 46.910156 3.964844 C 46.382812 3.769531 45.855469 3.628906 45.28125 3.484375 C 44.609375 3.339844 43.9375 3.242188 43.21875 3.148438 C 42.019531 3.003906 40.867188 2.90625 39.667969 2.90625 C 38.855469 2.90625 38.039062 2.90625 37.269531 2.957031 C 36.457031 3.003906 35.640625 3.050781 34.824219 3.148438 C 33.867188 3.242188 32.90625 3.386719 31.949219 3.578125 C 30.269531 3.914062 28.640625 4.394531 27.007812 5.019531 C 25.28125 5.738281 23.605469 6.601562 22.117188 7.75 C 21.351562 8.328125 20.632812 9 20.054688 9.765625 C 19.527344 10.4375 19.191406 11.15625 19.046875 11.972656 C 19 12.308594 19 13.125 19 13.125 Z M 27.871094 36.863281 C 28.0625 36.625 27.96875 36.382812 27.777344 36.289062 C 27.585938 36.191406 26.578125 36 25.953125 36.433594 C 26.671875 36.335938 26.960938 36.574219 27.390625 36.816406 C 27.585938 36.960938 27.824219 36.910156 27.871094 36.863281 Z M 77.648438 14.324219 C 77.601562 14.992188 77.359375 15.617188 77.023438 16.191406 C 76.496094 17.152344 75.828125 17.96875 75.15625 18.78125 C 74.773438 19.261719 74.339844 19.695312 73.910156 20.125 C 72.996094 21.035156 72.039062 21.898438 71.078125 22.714844 C 69.929688 23.722656 68.679688 24.683594 67.433594 25.59375 C 66.523438 26.265625 65.613281 26.886719 64.699219 27.558594 C 63.597656 28.328125 62.445312 29.09375 61.34375 29.8125 C 59.859375 30.773438 58.371094 31.683594 56.882812 32.546875 C 56.453125 32.789062 56.019531 33.074219 55.542969 33.316406 C 55.492188 33.363281 55.445312 33.363281 55.398438 33.410156 C 55.300781 33.507812 55.253906 33.601562 55.253906 33.699219 C 55.351562 34.320312 55.398438 34.992188 55.492188 35.617188 C 55.542969 36.046875 55.589844 36.480469 55.636719 36.910156 C 55.6875 37.390625 55.734375 37.871094 55.78125 38.351562 C 55.828125 38.78125 55.878906 39.214844 55.878906 39.644531 C 56.019531 41.707031 56.070312 43.769531 55.972656 45.832031 C 55.925781 46.40625 55.878906 47.03125 55.828125 47.605469 C 55.78125 48.132812 55.6875 48.660156 55.636719 49.238281 C 55.492188 50.246094 55.253906 51.25 54.964844 52.257812 C 54.679688 53.363281 54.292969 54.417969 53.765625 55.425781 C 53.625 55.710938 53.671875 55.902344 53.816406 56.144531 C 54.199219 56.765625 54.582031 57.390625 55.015625 58.015625 C 55.351562 58.492188 55.734375 58.925781 56.164062 59.308594 C 56.691406 59.789062 57.269531 60.125 57.988281 60.21875 C 58.324219 60.269531 58.660156 60.269531 58.945312 60.316406 C 59.664062 60.363281 60.386719 60.414062 61.105469 60.554688 C 61.777344 60.652344 62.445312 60.796875 63.117188 60.890625 C 64.078125 61.082031 64.988281 61.371094 65.851562 61.707031 C 67.097656 62.1875 68.25 62.808594 69.257812 63.625 C 69.640625 63.914062 69.976562 64.296875 70.359375 64.632812 C 71.703125 65.929688 72.660156 67.511719 73.332031 69.238281 C 73.714844 70.246094 74.003906 71.300781 74.195312 72.355469 C 74.386719 73.601562 74.484375 74.847656 74.386719 76.09375 C 74.339844 76.621094 74.292969 77.101562 74.242188 77.628906 C 74.195312 78.15625 74.101562 78.683594 74.003906 79.261719 C 73.859375 80.269531 73.667969 81.226562 73.476562 82.234375 C 73.1875 83.578125 72.851562 84.921875 72.519531 86.261719 C 71.988281 88.277344 71.460938 90.242188 70.886719 92.210938 C 70.550781 93.410156 70.167969 94.609375 69.785156 95.808594 C 69.6875 95.949219 69.59375 96.285156 69.496094 96.621094 C 69.351562 96.621094 69.304688 96.671875 69.207031 96.671875 C 64.367188 96.671875 59.472656 96.671875 54.628906 96.671875 C 54.628906 96.671875 54.582031 96.671875 54.582031 96.621094 C 54.679688 96.285156 54.917969 96.046875 55.0625 95.757812 C 55.207031 95.472656 55.445312 95.183594 55.589844 94.894531 C 55.78125 94.609375 55.925781 94.273438 56.117188 93.984375 C 56.308594 93.695312 56.453125 93.410156 56.644531 93.074219 C 56.835938 92.785156 56.980469 92.496094 57.171875 92.210938 C 57.363281 91.921875 57.507812 91.632812 57.699219 91.296875 C 57.890625 91.011719 58.035156 90.722656 58.226562 90.386719 C 58.417969 90.101562 58.609375 89.8125 58.753906 89.523438 C 58.945312 89.238281 59.089844 88.949219 59.28125 88.613281 C 59.472656 88.324219 59.617188 88.039062 59.808594 87.703125 C 60 87.414062 60.191406 87.125 60.335938 86.839844 C 60.527344 86.550781 60.671875 86.261719 60.863281 85.976562 C 61.054688 85.6875 61.199219 85.398438 61.390625 85.113281 C 61.585938 84.824219 61.726562 84.535156 61.917969 84.25 C 62.113281 83.960938 62.304688 83.671875 62.445312 83.386719 C 62.640625 83.097656 62.832031 82.808594 62.976562 82.523438 C 63.167969 82.234375 63.359375 81.945312 63.503906 81.660156 C 63.695312 81.371094 63.886719 81.082031 64.03125 80.796875 C 64.222656 80.507812 64.414062 80.21875 64.558594 79.933594 C 64.75 79.644531 64.941406 79.355469 65.085938 79.070312 C 65.277344 78.78125 65.421875 78.492188 65.613281 78.207031 C 65.804688 77.917969 65.996094 77.628906 66.140625 77.34375 C 66.332031 77.054688 66.523438 76.765625 66.714844 76.480469 C 66.90625 76.191406 67.097656 75.902344 67.242188 75.617188 C 67.148438 75.519531 67.097656 75.617188 67.097656 75.664062 C 66.714844 76.144531 66.378906 76.621094 65.996094 77.054688 C 65.132812 78.253906 64.222656 79.453125 63.359375 80.652344 C 62.542969 81.753906 61.726562 82.859375 60.914062 83.960938 C 60.386719 84.679688 59.859375 85.398438 59.332031 86.117188 C 58.46875 87.269531 57.605469 88.46875 56.789062 89.621094 C 55.636719 91.25 54.4375 92.832031 53.289062 94.464844 C 52.808594 95.085938 52.375 95.757812 51.898438 96.382812 C 51.847656 96.429688 51.847656 96.476562 51.800781 96.527344 C 51.65625 96.71875 51.511719 96.8125 51.273438 96.8125 C 49.882812 96.8125 48.492188 96.8125 47.054688 96.8125 C 47.003906 96.8125 46.957031 96.8125 46.910156 96.765625 C 46.957031 96.621094 46.957031 96.527344 47.003906 96.382812 C 47.484375 94.800781 47.964844 93.21875 48.445312 91.632812 C 48.925781 90.101562 49.402344 88.613281 49.929688 87.078125 C 50.554688 85.253906 51.179688 83.433594 51.800781 81.609375 C 52.617188 79.261719 53.480469 76.957031 54.292969 74.65625 C 54.917969 72.976562 55.589844 71.347656 56.214844 69.667969 C 56.882812 67.988281 57.554688 66.359375 58.226562 64.679688 C 58.324219 64.441406 58.417969 64.25 58.46875 64.007812 C 58.371094 63.960938 58.371094 64.058594 58.324219 64.105469 C 58.035156 64.730469 57.699219 65.304688 57.410156 65.929688 C 56.882812 66.984375 56.40625 68.085938 55.925781 69.140625 C 55.109375 70.867188 54.34375 72.59375 53.574219 74.367188 C 53.046875 75.566406 52.519531 76.71875 51.992188 77.917969 C 51.179688 79.789062 50.316406 81.660156 49.5 83.527344 C 48.539062 85.6875 47.628906 87.796875 46.671875 89.957031 C 46.191406 91.011719 45.710938 92.066406 45.230469 93.167969 C 44.753906 94.273438 44.273438 95.421875 43.746094 96.527344 C 43.695312 96.621094 43.648438 96.71875 43.601562 96.863281 C 43.503906 96.863281 43.457031 96.910156 43.359375 96.910156 C 42.449219 96.910156 41.539062 96.910156 40.578125 96.910156 C 40.53125 96.910156 40.484375 96.910156 40.4375 96.863281 C 40.339844 96.765625 40.386719 96.621094 40.4375 96.527344 C 40.675781 95.664062 40.914062 94.800781 41.105469 93.9375 C 41.777344 91.492188 42.402344 89.042969 43.074219 86.597656 C 43.648438 84.390625 44.273438 82.234375 44.847656 80.027344 C 45.519531 77.535156 46.238281 74.992188 46.910156 72.5 C 47.390625 70.867188 47.820312 69.1875 48.300781 67.558594 C 48.730469 65.976562 49.210938 64.34375 49.691406 62.761719 C 49.738281 62.570312 49.789062 62.378906 49.882812 62.140625 C 49.738281 62.1875 49.738281 62.28125 49.691406 62.378906 C 49.257812 63.671875 48.828125 64.921875 48.347656 66.214844 C 47.917969 67.460938 47.484375 68.710938 47.054688 69.957031 C 46.335938 72.019531 45.613281 74.082031 44.894531 76.09375 C 43.984375 78.78125 43.027344 81.46875 42.113281 84.152344 C 41.492188 86.023438 40.820312 87.894531 40.195312 89.765625 C 39.714844 91.25 39.1875 92.691406 38.710938 94.175781 C 38.421875 94.992188 38.183594 95.808594 37.894531 96.621094 C 37.847656 96.71875 37.847656 96.8125 37.796875 96.910156 C 37.703125 96.910156 37.605469 96.957031 37.558594 96.957031 C 36.023438 97.007812 32.570312 96.957031 32.140625 96.910156 C 32.09375 96.8125 32.140625 96.765625 32.140625 96.671875 C 32.140625 96.574219 32.140625 96.527344 32.1875 96.429688 C 32.425781 95.230469 32.621094 94.082031 32.859375 92.882812 C 33.148438 91.347656 33.484375 89.8125 33.769531 88.277344 C 34.011719 87.078125 34.296875 85.878906 34.539062 84.679688 C 34.921875 82.953125 35.304688 81.226562 35.738281 79.546875 C 36.167969 77.679688 36.648438 75.808594 37.128906 73.9375 C 37.558594 72.210938 38.039062 70.484375 38.519531 68.757812 C 39.140625 66.550781 39.8125 64.34375 40.484375 62.1875 C 41.011719 60.460938 41.636719 58.734375 42.257812 57.054688 C 42.882812 55.425781 43.554688 53.746094 44.273438 52.164062 C 44.703125 51.203125 45.183594 50.292969 45.664062 49.382812 C 45.902344 48.902344 46.144531 48.46875 46.382812 48.039062 C 46.476562 47.847656 46.527344 47.65625 46.527344 47.464844 C 46.476562 47.222656 46.476562 46.933594 46.429688 46.695312 C 46.285156 45.6875 46.144531 44.632812 46 43.625 C 45.902344 43.003906 45.855469 42.378906 45.757812 41.753906 C 45.757812 41.613281 45.613281 39.40625 45.613281 39.308594 C 45.519531 39.308594 45.472656 39.308594 45.421875 39.359375 C 45.085938 39.453125 44.703125 39.550781 44.367188 39.644531 C 43.890625 39.789062 43.410156 39.742188 42.976562 39.597656 C 42.449219 39.40625 42.113281 39.070312 41.96875 38.542969 C 41.828125 38.160156 41.777344 37.824219 41.828125 37.488281 C 41.921875 36.769531 42.113281 36.097656 42.402344 35.472656 C 42.832031 34.5625 43.359375 33.699219 43.984375 32.929688 C 44.320312 32.546875 44.753906 32.210938 45.183594 31.925781 C 45.421875 31.78125 45.664062 31.730469 45.902344 31.636719 C 46.144531 31.589844 46.335938 31.636719 46.527344 31.78125 C 46.765625 31.972656 46.957031 32.164062 47.101562 32.453125 C 47.148438 32.59375 47.199219 32.738281 47.339844 32.835938 C 47.390625 32.789062 47.4375 32.738281 47.484375 32.644531 C 48.0625 31.730469 48.589844 30.820312 48.972656 29.8125 C 49.164062 29.191406 49.308594 28.566406 49.402344 27.941406 C 49.5 27.222656 49.5 26.457031 49.453125 25.738281 C 49.453125 25.304688 49.402344 24.824219 49.257812 24.441406 C 49.066406 23.769531 48.636719 23.242188 48.011719 22.90625 C 47.628906 22.667969 47.199219 22.667969 46.765625 22.761719 C 46.429688 22.859375 46.144531 23.050781 45.855469 23.292969 C 45.375 23.722656 44.992188 24.203125 44.753906 24.777344 C 44.511719 25.304688 44.320312 25.882812 44.082031 26.410156 C 43.984375 26.601562 43.890625 26.839844 43.746094 27.03125 C 43.359375 27.511719 42.882812 27.703125 42.257812 27.609375 C 41.96875 27.558594 41.730469 27.367188 41.585938 27.175781 C 41.347656 26.839844 41.15625 26.457031 41.011719 26.074219 C 40.773438 25.351562 40.628906 24.585938 40.484375 23.820312 C 40.386719 23.242188 40.339844 22.667969 40.195312 22.042969 C 40.050781 21.324219 39.574219 20.84375 38.855469 20.652344 C 38.421875 20.507812 37.941406 20.414062 37.511719 20.269531 C 37.269531 20.222656 37.03125 20.125 36.792969 20.078125 C 36.265625 19.886719 35.785156 19.695312 35.640625 19.117188 C 35.351562 19.023438 35.113281 19.070312 34.875 19.117188 C 34.105469 19.214844 33.339844 19.359375 32.570312 19.503906 C 31.421875 19.695312 30.316406 19.933594 29.214844 20.269531 C 28.0625 20.558594 26.960938 20.894531 25.859375 21.277344 C 24.179688 21.851562 22.5 22.523438 20.917969 23.386719 C 20.246094 23.722656 19.625 24.105469 19 24.488281 C 18.808594 24.585938 18.710938 24.730469 18.664062 24.96875 C 18.664062 25.113281 18.617188 25.210938 18.617188 25.351562 C 18.570312 25.59375 18.570312 25.882812 18.570312 26.121094 C 18.570312 26.167969 18.570312 26.265625 18.617188 26.3125 C 18.617188 26.3125 18.664062 26.359375 18.710938 26.359375 C 18.761719 26.3125 18.855469 26.265625 18.90625 26.214844 C 19.191406 25.832031 19.625 25.6875 20.054688 25.640625 C 20.628906 25.59375 21.207031 25.59375 21.78125 25.785156 C 22.789062 26.074219 23.507812 26.695312 23.988281 27.609375 C 24.277344 28.183594 24.46875 28.804688 24.515625 29.429688 C 24.660156 30.628906 24.46875 31.828125 24.179688 32.980469 C 24.082031 33.410156 23.84375 33.84375 23.652344 34.273438 C 23.554688 34.464844 23.460938 34.707031 23.363281 34.898438 C 23.21875 35.28125 23.269531 35.617188 23.460938 35.953125 C 23.652344 36.382812 23.988281 36.769531 24.371094 37.007812 C 24.660156 37.199219 24.945312 37.390625 25.234375 37.535156 C 25.617188 37.824219 25.570312 38.398438 25.523438 38.351562 C 25.28125 38.109375 24.996094 37.96875 24.707031 37.824219 C 24.226562 37.582031 23.796875 37.296875 23.460938 36.863281 C 23.078125 36.433594 22.835938 35.90625 22.882812 35.28125 C 22.882812 34.992188 23.027344 34.707031 23.125 34.417969 C 23.21875 34.226562 23.316406 34.035156 23.414062 33.84375 C 23.746094 33.171875 23.941406 32.453125 24.035156 31.730469 C 24.035156 31.636719 24.082031 31.492188 23.941406 31.394531 C 23.890625 31.394531 23.84375 31.394531 23.796875 31.445312 C 23.21875 31.875 22.597656 32.066406 21.878906 32.257812 C 21.398438 32.355469 20.871094 32.453125 20.34375 32.453125 C 20.152344 32.453125 20.101562 32.5 20.101562 32.691406 C 20.007812 33.410156 20.007812 34.082031 20.054688 34.800781 C 20.054688 34.945312 20.101562 35.042969 20.101562 35.183594 C 20.152344 36.097656 20.390625 36.960938 20.726562 37.773438 C 21.0625 38.636719 21.589844 39.453125 22.117188 40.222656 C 22.980469 41.421875 23.746094 42.667969 24.417969 43.960938 C 24.804688 44.777344 25.234375 45.542969 25.714844 46.359375 C 25.90625 46.695312 26.097656 46.984375 26.335938 47.269531 C 26.527344 47.511719 26.769531 47.703125 27.007812 47.894531 C 27.390625 48.132812 27.777344 48.277344 28.253906 48.277344 C 28.976562 48.277344 29.644531 48.183594 30.316406 47.992188 C 31.324219 47.703125 32.285156 47.320312 33.195312 46.839844 C 34.539062 46.214844 35.785156 45.449219 36.984375 44.632812 C 38.566406 43.578125 40.101562 42.476562 41.636719 41.371094 C 42.066406 41.035156 43.074219 40.414062 43.121094 40.414062 C 42.976562 40.605469 41.777344 41.707031 41.25 42.234375 C 40.003906 43.433594 38.804688 44.679688 37.605469 45.929688 C 36.742188 46.839844 35.878906 47.75 35.113281 48.804688 C 34.632812 49.476562 34.203125 50.195312 33.914062 51.011719 C 33.769531 51.492188 33.675781 51.972656 33.675781 52.449219 C 33.625 53.171875 33.722656 53.9375 33.816406 54.65625 C 33.867188 55.039062 33.914062 55.472656 33.960938 55.902344 C 34.011719 56.238281 34.058594 56.625 34.105469 56.960938 C 34.152344 57.199219 34.152344 57.488281 34.203125 57.726562 C 34.25 58.207031 34.296875 58.734375 34.25 59.214844 C 34.25 60.027344 34.203125 60.84375 33.960938 61.609375 C 33.675781 62.667969 33.148438 63.53125 32.332031 64.203125 C 31.851562 64.632812 31.277344 64.96875 30.703125 65.304688 C 30.460938 65.449219 30.222656 65.542969 29.933594 65.6875 C 29.789062 65.785156 29.695312 65.878906 29.695312 66.023438 C 29.644531 66.40625 28.589844 68.230469 28.304688 68.996094 C 25.714844 75.089844 23.414062 91.105469 26.195312 94.222656 C 28.253906 93.023438 29.695312 88.757812 30.796875 86.261719 C 30.222656 89.667969 28.449219 94.945312 27.296875 96.71875 C 26.289062 96.71875 25.332031 96.71875 24.324219 96.71875 C 24.324219 96.71875 24.277344 96.71875 24.226562 96.671875 C 24.179688 96.574219 24.132812 96.476562 24.132812 96.382812 C 23.84375 95.28125 23.554688 94.222656 23.363281 93.121094 C 23.269531 92.546875 23.21875 91.96875 23.125 91.394531 C 23.078125 91.15625 23.078125 90.914062 23.027344 90.675781 C 22.980469 90.148438 22.933594 89.621094 22.882812 89.09375 C 22.882812 89.042969 22.882812 89.042969 22.882812 88.996094 C 22.835938 87.367188 22.742188 85.785156 22.789062 84.152344 C 22.835938 83.433594 22.835938 82.664062 22.882812 81.945312 C 22.933594 81.417969 22.980469 80.890625 23.027344 80.363281 C 23.027344 80.316406 23.027344 80.269531 23.027344 80.21875 C 23.078125 79.597656 23.078125 79.019531 23.171875 78.398438 C 23.269531 77.4375 23.363281 76.480469 23.507812 75.519531 C 23.605469 74.992188 23.652344 74.464844 23.746094 73.9375 C 23.941406 72.546875 24.179688 71.15625 24.46875 69.8125 C 24.753906 68.375 25.089844 66.984375 25.425781 65.59375 C 25.667969 64.632812 25.90625 63.722656 26.144531 62.761719 C 26.144531 62.714844 26.144531 62.617188 26.195312 62.570312 C 26.050781 62.617188 26.050781 62.714844 26.050781 62.808594 C 25.472656 64.585938 24.898438 66.359375 24.417969 68.183594 C 24.132812 69.382812 23.796875 70.578125 23.507812 71.777344 C 23.316406 72.546875 23.171875 73.3125 23.027344 74.082031 C 22.933594 74.703125 22.789062 75.328125 22.691406 75.902344 C 22.597656 76.480469 22.5 77.054688 22.453125 77.628906 C 22.355469 78.300781 22.261719 78.925781 22.214844 79.597656 C 22.164062 79.980469 22.117188 80.363281 22.117188 80.746094 C 22.070312 81.371094 22.023438 82.042969 21.972656 82.664062 C 21.828125 84.585938 21.878906 86.503906 21.925781 88.46875 C 21.925781 89.140625 21.972656 89.859375 22.070312 90.53125 C 22.117188 90.964844 22.164062 91.394531 22.214844 91.828125 C 22.261719 92.355469 22.355469 92.882812 22.453125 93.457031 C 22.597656 94.464844 22.835938 95.519531 23.078125 96.476562 C 23.078125 96.527344 23.078125 96.621094 23.078125 96.671875 C 23.027344 96.671875 22.933594 96.71875 22.882812 96.71875 C 22.023438 96.71875 21.160156 96.71875 20.246094 96.71875 C 20.199219 96.71875 20.199219 96.71875 20.101562 96.671875 C 20.054688 96.621094 20.007812 96.527344 20.007812 96.429688 C 19.671875 95.230469 19.335938 93.984375 19.097656 92.738281 C 18.90625 91.683594 18.710938 90.675781 18.519531 89.621094 C 18.425781 88.996094 18.378906 88.324219 18.28125 87.703125 C 18.183594 86.933594 18.089844 86.167969 18.042969 85.398438 C 17.992188 84.921875 17.945312 84.390625 17.945312 83.914062 C 17.847656 82.234375 17.800781 80.507812 17.800781 78.828125 C 17.800781 77.871094 17.800781 76.863281 17.847656 75.902344 C 17.847656 75.472656 17.898438 75.039062 17.945312 74.5625 C 17.945312 73.890625 18.042969 73.21875 18.089844 72.546875 C 18.136719 72.066406 18.183594 71.585938 18.234375 71.109375 C 18.328125 70.339844 18.425781 69.621094 18.519531 68.851562 C 18.617188 68.132812 18.710938 67.414062 18.808594 66.695312 C 18.808594 66.597656 18.855469 66.503906 18.855469 66.40625 C 18.90625 66.3125 18.90625 66.167969 18.855469 65.976562 C 18.710938 66.550781 18.617188 67.078125 18.519531 67.558594 C 18.378906 68.375 18.234375 69.1875 18.089844 70.003906 C 18.042969 70.386719 17.992188 70.773438 17.898438 71.15625 C 17.800781 71.683594 17.753906 72.164062 17.65625 72.691406 C 17.609375 73.121094 17.5625 73.554688 17.515625 73.984375 C 17.417969 74.847656 17.371094 75.757812 17.273438 76.621094 C 17.226562 77.292969 17.226562 77.964844 17.179688 78.636719 C 17.128906 79.835938 17.082031 80.988281 17.128906 82.1875 C 17.128906 83.097656 17.179688 84.007812 17.226562 84.96875 C 17.273438 85.785156 17.320312 86.648438 17.417969 87.460938 C 17.5625 88.851562 17.753906 90.195312 17.945312 91.585938 C 18.183594 93.074219 18.519531 94.609375 18.90625 96.046875 C 18.953125 96.238281 19 96.382812 19 96.574219 C 18.90625 96.574219 18.808594 96.621094 18.710938 96.621094 C 16.507812 96.671875 12.8125 96.621094 12.382812 96.574219 C 12.382812 96.527344 12.335938 96.527344 12.335938 96.476562 C 12.335938 96.144531 12.335938 95.808594 12.382812 95.472656 C 12.429688 94.511719 12.480469 93.554688 12.382812 92.546875 C 12.382812 92.496094 12.382812 92.449219 12.382812 92.402344 C 12.335938 91.683594 12.335938 91.011719 12.238281 90.292969 C 12.144531 89.378906 12.191406 88.46875 12.144531 87.511719 C 12.046875 85.542969 12.046875 83.578125 12.09375 81.609375 C 12.09375 80.652344 12.144531 79.742188 12.191406 78.78125 C 12.238281 77.964844 12.285156 77.152344 12.382812 76.382812 C 12.527344 74.847656 12.765625 73.265625 13.148438 71.777344 C 13.4375 70.578125 13.871094 69.429688 14.445312 68.375 C 14.972656 67.414062 15.59375 66.550781 16.316406 65.785156 C 17.082031 65.015625 17.945312 64.34375 18.953125 63.867188 C 20.152344 63.242188 21.445312 62.808594 22.789062 62.472656 C 23.414062 62.332031 24.035156 62.1875 24.660156 62.089844 C 24.898438 62.042969 25.089844 61.996094 25.332031 61.898438 C 25.570312 61.851562 25.714844 61.707031 25.859375 61.46875 C 26 61.226562 26.144531 60.941406 26.386719 60.746094 C 26.527344 60.652344 26.578125 60.460938 26.671875 60.269531 C 26.863281 59.789062 27.058594 59.355469 27.25 58.878906 C 27.921875 57.246094 28.734375 55.710938 29.644531 54.226562 C 30.414062 52.929688 31.277344 51.683594 32.1875 50.484375 C 32.234375 50.4375 32.285156 50.386719 32.332031 50.339844 C 32.476562 50.195312 32.523438 50.003906 32.425781 49.765625 C 32.285156 49.332031 32.140625 48.902344 31.949219 48.46875 C 31.898438 48.328125 31.804688 48.277344 31.660156 48.328125 C 31.515625 48.375 31.324219 48.421875 31.179688 48.46875 C 30.222656 48.804688 29.261719 48.996094 28.207031 48.902344 C 27.777344 48.855469 27.390625 48.804688 27.007812 48.613281 C 26.527344 48.375 26.144531 48.085938 25.859375 47.65625 C 25.570312 47.269531 25.378906 46.839844 25.089844 46.457031 C 25.042969 46.40625 24.996094 46.3125 24.996094 46.214844 C 24.945312 46.121094 24.851562 46.070312 24.707031 46.070312 C 24.515625 46.070312 24.324219 46.070312 24.179688 46.121094 C 23.699219 46.167969 23.269531 46.214844 22.789062 46.265625 C 22.164062 46.3125 21.589844 46.359375 20.964844 46.457031 C 20.917969 46.457031 20.917969 46.457031 20.871094 46.457031 C 20.101562 46.503906 19.289062 46.550781 18.519531 46.601562 C 17.371094 46.792969 15.835938 46.792969 14.347656 46.792969 C 13.535156 46.792969 12.71875 46.742188 11.902344 46.695312 C 10.03125 46.550781 8.164062 46.265625 6.386719 45.738281 C 5.332031 45.402344 4.277344 45.015625 3.320312 44.441406 C 2.550781 43.960938 1.832031 43.433594 1.257812 42.667969 C 0.875 42.140625 0.539062 41.613281 0.394531 41.035156 C 0.152344 40.316406 0.105469 39.597656 0.203125 38.832031 C 0.347656 37.726562 0.730469 36.71875 1.257812 35.710938 C 1.785156 34.753906 2.457031 33.84375 3.128906 32.980469 C 4.230469 31.636719 5.429688 30.4375 6.675781 29.238281 C 7.683594 28.277344 8.785156 27.414062 9.839844 26.550781 C 11.664062 25.113281 13.628906 23.867188 15.59375 22.667969 C 17.082031 21.804688 18.664062 20.988281 20.246094 20.222656 C 22.214844 19.308594 24.179688 18.445312 26.195312 17.726562 C 26.914062 17.488281 27.632812 17.199219 28.351562 16.960938 C 29.503906 16.578125 30.652344 16.191406 31.851562 15.855469 C 33.675781 15.328125 35.496094 14.851562 37.320312 14.417969 C 38.996094 14.035156 40.722656 13.652344 42.449219 13.363281 C 43.265625 13.21875 44.03125 13.074219 44.847656 12.929688 C 45.375 12.835938 45.902344 12.789062 46.476562 12.691406 C 47.054688 12.597656 47.582031 12.546875 48.15625 12.453125 C 48.828125 12.355469 49.5 12.261719 50.171875 12.210938 C 50.507812 12.164062 50.84375 12.117188 51.179688 12.066406 C 51.707031 12.019531 52.183594 11.925781 52.710938 11.875 C 53.191406 11.828125 53.625 11.78125 54.101562 11.734375 C 54.488281 11.683594 54.871094 11.636719 55.300781 11.636719 C 55.972656 11.589844 56.597656 11.539062 57.269531 11.492188 C 57.941406 11.445312 58.609375 11.398438 59.28125 11.347656 C 59.332031 11.347656 59.425781 11.347656 59.472656 11.347656 C 60.816406 11.300781 62.160156 11.253906 63.503906 11.203125 C 65.085938 11.15625 66.667969 11.15625 68.25 11.15625 C 69.304688 11.15625 70.40625 11.203125 71.460938 11.253906 C 72.710938 11.347656 73.910156 11.492188 75.105469 11.828125 C 75.632812 11.972656 76.113281 12.210938 76.59375 12.453125 C 76.832031 12.597656 77.023438 12.738281 77.21875 12.980469 C 77.554688 13.363281 77.648438 13.792969 77.648438 14.324219 Z M 15.882812 94.222656 C 15.738281 93.265625 15.691406 92.257812 15.59375 91.296875 C 15.5 90.292969 15.355469 89.332031 15.308594 88.324219 C 15.164062 86.359375 15.164062 84.390625 15.164062 82.425781 C 15.164062 81.226562 15.164062 80.074219 15.164062 78.878906 C 15.164062 78.683594 15.164062 78.492188 15.164062 78.347656 C 15.261719 77.820312 15.210938 77.246094 15.261719 76.71875 C 15.261719 76.335938 15.261719 76 15.261719 75.617188 C 15.261719 75.375 15.308594 75.089844 15.355469 74.847656 C 15.402344 74.320312 15.402344 73.746094 15.355469 73.21875 C 15.308594 73.503906 14.925781 75.375 14.875 76 C 14.78125 76.816406 14.78125 77.628906 14.734375 78.492188 C 14.589844 82.425781 14.636719 86.40625 15.117188 90.339844 C 15.210938 91.632812 15.644531 92.882812 15.882812 94.222656 Z M 24.707031 63.097656 C 24.707031 63.050781 24.660156 62.953125 24.609375 62.953125 C 24.277344 63.003906 23.941406 63.050781 23.652344 63.144531 C 23.125 63.289062 22.789062 63.578125 22.597656 64.105469 C 22.5 64.34375 22.453125 64.585938 22.355469 64.824219 C 22.214844 65.449219 22.023438 66.070312 21.878906 66.695312 C 21.589844 67.847656 21.351562 69.046875 21.160156 70.246094 C 21.015625 71.203125 20.871094 72.113281 20.726562 73.074219 C 20.582031 73.839844 20.535156 74.65625 20.4375 75.425781 C 20.390625 75.855469 20.34375 76.289062 20.34375 76.765625 C 20.296875 77.390625 20.246094 77.964844 20.199219 78.589844 C 20.152344 79.210938 20.152344 79.789062 20.101562 80.410156 C 20.054688 82.523438 20.054688 84.632812 20.199219 86.742188 C 20.246094 87.175781 20.246094 87.558594 20.296875 87.988281 C 20.34375 88.515625 20.390625 88.996094 20.488281 89.523438 C 20.535156 90.050781 20.628906 90.578125 20.726562 91.105469 C 20.871094 91.828125 21.015625 92.496094 21.109375 93.167969 C 21.207031 93.265625 21.253906 93.410156 21.300781 93.601562 C 21.351562 93.359375 21.351562 93.21875 21.300781 93.023438 C 21.253906 92.691406 21.207031 92.355469 21.160156 92.066406 C 21.109375 91.632812 21.0625 91.203125 21.015625 90.769531 C 20.917969 90.003906 20.824219 89.285156 20.824219 88.515625 C 20.824219 87.269531 20.824219 85.976562 20.824219 84.726562 C 20.824219 83.722656 20.917969 82.761719 20.964844 81.753906 C 20.964844 81.371094 21.015625 80.988281 21.0625 80.554688 C 21.109375 80.125 21.160156 79.691406 21.207031 79.210938 C 21.300781 78.398438 21.398438 77.628906 21.492188 76.816406 C 21.542969 76.527344 21.589844 76.238281 21.589844 76 C 21.6875 75.328125 21.78125 74.609375 21.925781 73.9375 C 22.117188 72.882812 22.355469 71.828125 22.597656 70.722656 C 22.933594 69.046875 23.414062 67.414062 23.890625 65.785156 C 24.132812 64.96875 24.417969 64.152344 24.660156 63.339844 C 24.707031 63.242188 24.707031 63.195312 24.707031 63.097656 Z M 19.144531 27.511719 C 19.144531 27.558594 19.191406 27.558594 19.191406 27.609375 C 19.71875 28.421875 20.101562 29.335938 20.199219 30.292969 C 20.296875 30.4375 20.34375 30.53125 20.390625 30.726562 C 20.628906 30.726562 20.871094 30.726562 21.0625 30.675781 C 21.925781 30.484375 22.742188 30.199219 23.460938 29.71875 C 23.605469 29.621094 23.746094 29.527344 23.890625 29.382812 C 23.988281 29.335938 23.988281 29.238281 23.988281 29.09375 C 23.941406 28.949219 23.890625 28.855469 23.84375 28.710938 C 23.554688 28.136719 23.078125 27.75 22.550781 27.464844 C 21.734375 27.03125 20.871094 26.886719 19.910156 26.984375 C 19.671875 26.984375 19.480469 27.078125 19.238281 27.175781 C 19.097656 27.222656 19.046875 27.367188 19.144531 27.511719 Z M 46.046875 38.78125 C 45.902344 38.78125 45.808594 38.78125 45.664062 38.832031 C 45.328125 38.925781 44.992188 38.925781 44.703125 38.878906 C 43.984375 38.78125 43.601562 38.496094 43.410156 37.824219 C 43.359375 37.632812 43.3125 37.488281 43.3125 37.296875 C 43.265625 36.625 43.410156 36 43.648438 35.425781 C 43.984375 34.5625 44.464844 33.792969 45.039062 33.074219 C 45.328125 32.691406 45.613281 32.355469 46 32.066406 C 46.046875 32.019531 46.09375 31.972656 46 31.925781 C 45.855469 31.972656 45.710938 32.066406 45.566406 32.164062 C 45.183594 32.5 44.847656 32.835938 44.511719 33.21875 C 44.082031 33.792969 43.695312 34.417969 43.410156 35.089844 C 43.074219 35.855469 42.882812 36.671875 42.976562 37.535156 C 42.976562 37.824219 43.074219 38.0625 43.167969 38.300781 C 43.410156 38.832031 43.792969 39.117188 44.367188 39.214844 C 44.945312 39.261719 45.519531 39.164062 46.046875 38.78125 Z M 47.148438 37.34375 C 47.101562 37.296875 46 38.109375 45.613281 37.007812 C 45.566406 36.863281 45.519531 36.671875 45.519531 36.527344 C 45.519531 36.289062 45.519531 36.046875 45.566406 35.808594 C 45.613281 35.378906 45.902344 34.417969 45.855469 34.371094 C 45.808594 34.417969 45.472656 35.136719 45.328125 35.472656 C 45.085938 36 45.039062 36.574219 45.085938 37.105469 C 45.085938 37.296875 45.183594 37.488281 45.28125 37.679688 C 45.519531 38.0625 45.902344 38.207031 46.335938 38.015625 C 46.671875 37.871094 46.957031 37.632812 47.148438 37.34375 Z M 47.773438 35.378906 C 47.726562 35.183594 47.101562 33.410156 47.003906 33.410156 C 47.292969 34.082031 47.535156 36.144531 47.535156 36.289062 C 47.582031 36.242188 47.867188 35.664062 47.773438 35.378906 Z M 45.855469 22.570312 C 45.375 22.140625 44.464844 21.613281 43.265625 21.949219 C 44.464844 22.042969 45.472656 22.429688 45.855469 22.570312 Z M 47.820312 21.949219 C 47.339844 21.515625 46.8125 21.132812 46.238281 20.894531 C 45.375 20.507812 44.464844 20.316406 43.503906 20.269531 C 42.832031 20.222656 41.300781 20.367188 41.25 20.460938 C 41.300781 20.460938 41.683594 20.414062 41.777344 20.414062 C 41.96875 20.414062 44.847656 20.460938 47.820312 21.949219 Z M 50.9375 35.089844 C 50.9375 34.179688 50.9375 33.265625 50.890625 32.355469 C 50.84375 31.539062 50.84375 30.726562 50.746094 29.957031 C 50.746094 29.765625 50.699219 29.574219 50.554688 29.382812 C 50.554688 29.621094 50.554688 29.765625 50.554688 29.957031 C 50.554688 31.394531 50.554688 32.789062 50.601562 34.226562 C 50.648438 37.632812 50.648438 40.988281 50.648438 44.394531 C 50.84375 44.058594 50.746094 41.996094 50.84375 40.652344 C 50.9375 38.78125 50.9375 36.910156 50.9375 35.089844 Z M 51.035156 28.183594 C 50.9375 27.65625 50.648438 26.359375 50.507812 26.410156 C 50.507812 26.550781 51.417969 32.453125 51.511719 32.980469 C 51.753906 34.5625 52.808594 44.152344 52.855469 44.203125 C 53.382812 38.734375 51.226562 29.285156 51.035156 28.183594 Z M 54.824219 39.550781 C 54.773438 38.78125 54.628906 38.0625 54.535156 37.296875 C 54.390625 36.242188 54.199219 35.183594 53.960938 34.128906 C 53.816406 33.316406 53.574219 32.546875 53.335938 31.730469 C 52.710938 29.574219 51.992188 27.414062 51.128906 25.351562 C 50.699219 24.347656 50.171875 23.339844 49.546875 22.429688 C 48.972656 21.566406 48.347656 20.703125 47.4375 20.171875 C 44.558594 18.445312 38.613281 18.640625 38.277344 18.78125 C 40.914062 18.6875 45.949219 19.742188 46.863281 20.367188 C 47.917969 21.085938 48.730469 21.949219 49.355469 23.050781 C 49.789062 23.820312 50.171875 24.632812 50.554688 25.449219 C 51.128906 26.746094 51.65625 28.039062 52.136719 29.382812 C 52.472656 30.339844 52.761719 31.347656 53.046875 32.355469 C 53.574219 34.179688 54.007812 36 54.296875 37.824219 C 54.390625 38.542969 54.535156 39.214844 54.582031 39.933594 C 54.628906 40.316406 54.871094 42.285156 54.871094 42.425781 C 54.964844 42.332031 54.871094 40.414062 54.824219 39.550781 Z M 45.375 18.207031 C 44.945312 18.109375 43.554688 18.015625 43.457031 18.0625 C 43.554688 18.109375 45.230469 18.445312 45.949219 18.6875 C 46.621094 18.925781 47.292969 19.214844 47.867188 19.550781 C 48.492188 19.933594 49.066406 20.367188 49.546875 20.894531 C 49.929688 21.324219 50.265625 21.757812 50.554688 22.234375 C 51.128906 23.148438 51.609375 24.058594 51.992188 25.019531 C 52.375 25.929688 52.761719 26.886719 53.046875 27.847656 C 53.144531 28.136719 53.238281 28.421875 53.335938 28.664062 C 53.335938 28.710938 53.335938 28.710938 53.382812 28.757812 C 53.335938 28.519531 53.289062 28.328125 53.191406 28.085938 C 52.761719 26.648438 52.28125 25.210938 51.707031 23.820312 C 51.320312 22.859375 50.84375 21.996094 50.21875 21.132812 C 49.453125 20.078125 48.445312 19.308594 47.246094 18.78125 C 46.621094 18.542969 46 18.351562 45.375 18.207031 Z M 46.8125 18.160156 C 47.003906 18.207031 47.246094 18.253906 47.4375 18.351562 C 47.675781 18.445312 47.867188 18.542969 48.0625 18.640625 C 48.253906 18.734375 48.492188 18.832031 48.683594 18.972656 C 48.875 19.070312 49.066406 19.214844 49.257812 19.359375 C 49.453125 19.453125 49.59375 19.597656 49.789062 19.742188 C 49.980469 19.886719 50.121094 20.03125 50.316406 20.222656 C 49.691406 18.734375 47.339844 17.679688 46.09375 18.015625 C 46.382812 18.0625 46.574219 18.109375 46.8125 18.160156 Z M 69.066406 15.519531 C 68.921875 15.425781 68.824219 15.328125 68.679688 15.234375 C 68.105469 14.800781 67.433594 14.5625 66.761719 14.371094 C 65.804688 14.082031 64.796875 13.9375 63.789062 13.792969 C 63.070312 13.699219 62.351562 13.652344 61.632812 13.601562 C 60.433594 13.554688 59.28125 13.460938 58.082031 13.507812 C 57.554688 13.507812 57.078125 13.507812 56.546875 13.507812 C 56.070312 13.507812 55.589844 13.507812 55.109375 13.554688 C 54.199219 13.601562 53.335938 13.652344 52.472656 13.699219 C 51.847656 13.746094 51.273438 13.746094 50.648438 13.84375 C 49.929688 13.890625 49.164062 14.035156 48.445312 14.082031 C 48.15625 14.128906 47.820312 14.179688 47.535156 14.179688 C 47.148438 14.226562 46.765625 14.273438 46.335938 14.324219 C 45.375 14.464844 44.464844 14.609375 43.503906 14.800781 C 42.5 14.992188 41.492188 15.136719 40.484375 15.328125 C 39.046875 15.617188 37.65625 15.953125 36.265625 16.289062 C 34.058594 16.816406 31.851562 17.488281 29.644531 18.160156 C 27.777344 18.734375 25.953125 19.40625 24.179688 20.125 C 23.171875 20.558594 22.164062 20.988281 21.207031 21.421875 C 21.109375 21.46875 21.015625 21.515625 20.964844 21.566406 C 21.0625 21.613281 21.109375 21.613281 21.160156 21.566406 C 21.925781 21.277344 22.691406 20.988281 23.460938 20.699219 C 24.371094 20.367188 25.332031 20.078125 26.289062 19.789062 C 27.488281 19.40625 28.734375 19.070312 29.933594 18.734375 C 31.851562 18.207031 33.816406 17.777344 35.785156 17.34375 C 36.839844 17.152344 37.894531 16.914062 38.949219 16.71875 C 39.714844 16.578125 40.4375 16.480469 41.203125 16.335938 C 41.683594 16.242188 42.164062 16.191406 42.640625 16.144531 C 43.074219 16.097656 43.503906 16.050781 43.9375 15.953125 C 44.511719 15.855469 45.085938 15.808594 45.710938 15.714844 C 46.191406 15.664062 46.621094 15.617188 47.101562 15.570312 C 47.820312 15.472656 48.589844 15.425781 49.308594 15.378906 C 49.402344 15.378906 49.5 15.378906 49.59375 15.378906 C 50.363281 15.328125 51.128906 15.234375 51.898438 15.234375 C 54.34375 15.1875 56.789062 15.089844 59.234375 15.328125 C 59.714844 15.378906 60.144531 15.425781 60.625 15.472656 C 61.296875 15.570312 61.917969 15.664062 62.542969 15.808594 C 63.308594 16 64.078125 16.242188 64.796875 16.625 C 65.085938 16.769531 65.371094 16.960938 65.613281 17.152344 C 65.996094 17.488281 66.285156 17.871094 66.378906 18.398438 C 66.425781 18.734375 66.425781 19.117188 66.332031 19.453125 C 66.234375 19.789062 66.140625 20.078125 65.949219 20.367188 C 65.5625 21.085938 65.035156 21.707031 64.507812 22.332031 C 63.40625 23.578125 62.113281 24.683594 60.816406 25.6875 C 60.289062 26.121094 59.714844 26.503906 59.136719 26.9375 C 58.179688 27.65625 57.21875 28.328125 56.214844 28.949219 C 56.019531 29.046875 55.828125 29.191406 55.589844 29.335938 C 55.589844 29.382812 56.882812 28.855469 57.316406 28.613281 C 58.800781 27.847656 60.191406 26.984375 61.585938 26.074219 C 62.78125 25.257812 63.980469 24.441406 65.085938 23.484375 C 65.949219 22.761719 66.761719 22.042969 67.480469 21.230469 C 68.011719 20.652344 68.488281 20.03125 68.921875 19.359375 C 69.304688 18.734375 69.542969 18.109375 69.6875 17.390625 C 69.785156 16.671875 69.640625 16 69.066406 15.519531 Z M 26.480469 39.453125 C 26.914062 39.070312 27.390625 39.070312 27.921875 39.164062 C 28.351562 39.261719 28.78125 39.40625 29.167969 39.597656 C 29.503906 39.789062 29.886719 39.933594 30.222656 40.078125 C 30.75 40.316406 32.1875 40.796875 32.378906 40.84375 C 32.332031 40.941406 31.230469 41.804688 30.703125 42.1875 C 30.222656 42.523438 29.742188 42.859375 29.214844 43.195312 C 28.78125 43.480469 28.253906 43.675781 27.777344 43.769531 C 27.25 43.914062 26.671875 43.914062 26.097656 43.769531 C 25.617188 43.675781 25.234375 43.386719 24.945312 42.953125 C 24.515625 42.285156 24.324219 41.5625 24.417969 40.796875 C 24.46875 40.414062 24.609375 40.027344 24.945312 39.742188 C 25.136719 39.550781 25.378906 39.5 25.617188 39.550781 C 25.667969 39.550781 25.667969 39.550781 25.714844 39.597656 C 26 39.695312 26.242188 39.644531 26.480469 39.453125 Z M 25.523438 42.042969 C 25.714844 42.285156 26 42.378906 26.386719 42.378906 C 26.816406 42.425781 27.679688 42.1875 28.0625 42.042969 C 28.542969 41.851562 29.453125 41.515625 29.503906 41.46875 C 29.40625 41.371094 27.535156 41.226562 26.527344 41.804688 C 26.480469 41.753906 25.523438 41.949219 25.523438 42.042969 Z M 25.523438 42.042969 " fill-opacity="1" fill-rule="nonzero"/></g></svg>