<svg xmlns="http://www.w3.org/2000/svg" xmlns:xlink="http://www.w3.org/1999/xlink" width="160" zoomAndPan="magnify" viewBox="0 0 120 37.5" height="50" preserveAspectRatio="xMidYMid meet" version="1.0"><defs><g/><clipPath id="e501d0f318"><path d="M 0.789062 0 L 119.210938 0 L 119.210938 37.007812 L 0.789062 37.007812 Z M 0.789062 0 " clip-rule="nonzero"/></clipPath><clipPath id="04f643ebdd"><path d="M 47.003906 1.511719 L 61.804688 1.511719 L 61.804688 20.015625 L 47.003906 20.015625 Z M 47.003906 1.511719 " clip-rule="nonzero"/></clipPath></defs><g clip-path="url(#e501d0f318)"><path fill="#ffffff" d="M 0.789062 0 L 119.210938 0 L 119.210938 37.007812 L 0.789062 37.007812 Z M 0.789062 0 " fill-opacity="1" fill-rule="nonzero"/><path fill="#ffffff" d="M 0.789062 0 L 119.210938 0 L 119.210938 37.007812 L 0.789062 37.007812 Z M 0.789062 0 " fill-opacity="1" fill-rule="nonzero"/></g><g clip-path="url(#04f643ebdd)"><path fill="#000000" d="M 56.183594 6.636719 C 56.183594 6.515625 56.191406 6.386719 56.164062 6.269531 C 56.15625 6.203125 56.128906 6.136719 56.101562 6.074219 C 56.0625 5.992188 55.980469 5.953125 55.882812 5.992188 C 55.824219 6.007812 55.78125 6.054688 55.742188 6.101562 C 55.734375 6.121094 55.726562 6.148438 55.714844 6.175781 C 55.6875 6.277344 55.699219 6.367188 55.699219 6.46875 C 55.699219 6.515625 55.707031 6.527344 55.742188 6.535156 L 55.753906 6.535156 C 55.871094 6.554688 55.925781 6.617188 55.9375 6.765625 C 55.945312 6.894531 55.898438 6.996094 55.816406 7.089844 C 55.78125 7.117188 55.753906 7.144531 55.707031 7.144531 C 55.671875 7.144531 55.652344 7.125 55.652344 7.097656 C 55.652344 7.0625 55.652344 7.015625 55.671875 6.976562 C 55.707031 6.894531 55.714844 6.886719 55.660156 6.785156 C 55.660156 6.765625 55.652344 6.757812 55.644531 6.738281 C 55.5625 6.582031 55.5625 6.414062 55.632812 6.257812 C 55.679688 6.15625 55.726562 6.066406 55.808594 5.992188 C 55.863281 5.945312 55.917969 5.90625 55.980469 5.890625 C 56.0625 5.863281 56.164062 5.898438 56.210938 5.972656 C 56.257812 6.046875 56.273438 6.128906 56.285156 6.222656 C 56.285156 6.285156 56.292969 6.351562 56.292969 6.414062 C 56.292969 6.691406 56.257812 6.96875 56.109375 7.21875 C 56.109375 7.226562 56.101562 7.226562 56.089844 7.234375 C 56.089844 7.226562 56.089844 7.21875 56.089844 7.207031 C 56.101562 7.144531 56.117188 7.070312 56.136719 7.003906 C 56.164062 6.886719 56.183594 6.757812 56.183594 6.636719 Z M 53.871094 6.628906 C 53.953125 6.507812 54.015625 6.378906 54.089844 6.25 C 54.089844 6.25 54.089844 6.238281 54.089844 6.230469 C 54.070312 6.238281 54.0625 6.25 54.050781 6.257812 C 53.941406 6.339844 53.832031 6.425781 53.722656 6.507812 C 53.585938 6.609375 53.441406 6.691406 53.273438 6.746094 C 53.101562 6.8125 52.925781 6.839844 52.746094 6.820312 C 52.679688 6.8125 52.625 6.792969 52.578125 6.765625 C 52.570312 6.757812 52.5625 6.757812 52.542969 6.738281 C 52.515625 6.765625 52.507812 6.785156 52.496094 6.792969 C 52.460938 6.875 52.40625 6.941406 52.34375 7.003906 C 52.316406 7.03125 52.277344 7.0625 52.25 7.089844 C 52.242188 7.097656 52.242188 7.105469 52.234375 7.117188 C 52.25 7.117188 52.261719 7.117188 52.269531 7.117188 C 52.378906 7.097656 52.480469 7.097656 52.589844 7.117188 C 52.664062 7.125 52.734375 7.132812 52.808594 7.132812 C 52.835938 7.132812 52.863281 7.132812 52.890625 7.132812 C 53.011719 7.125 53.121094 7.105469 53.238281 7.078125 C 53.503906 7.003906 53.722656 6.867188 53.871094 6.628906 Z M 54.097656 5.917969 C 54.035156 5.890625 53.980469 5.863281 53.914062 5.835938 C 53.769531 5.777344 53.621094 5.742188 53.46875 5.722656 C 53.320312 5.714844 53.175781 5.722656 53.039062 5.742188 C 52.746094 5.796875 52.46875 5.898438 52.222656 6.054688 C 52.167969 6.09375 52.121094 6.128906 52.078125 6.175781 C 52.011719 6.230469 51.984375 6.304688 51.984375 6.386719 C 51.984375 6.441406 52.023438 6.480469 52.078125 6.488281 C 52.09375 6.488281 52.105469 6.488281 52.121094 6.488281 C 52.167969 6.480469 52.214844 6.453125 52.261719 6.425781 C 52.34375 6.367188 52.425781 6.3125 52.496094 6.257812 C 52.625 6.175781 52.753906 6.101562 52.890625 6.039062 C 53.066406 5.964844 53.246094 5.90625 53.441406 5.898438 C 53.640625 5.878906 53.84375 5.878906 54.042969 5.925781 C 54.0625 5.925781 54.078125 5.925781 54.097656 5.925781 C 54.097656 5.925781 54.097656 5.925781 54.097656 5.917969 Z M 47.367188 7.363281 C 47.351562 7.390625 47.324219 7.410156 47.304688 7.4375 C 47.304688 7.421875 47.441406 7.207031 47.503906 7.117188 C 47.726562 6.839844 47.960938 6.582031 48.210938 6.332031 C 48.402344 6.136719 48.59375 5.953125 48.804688 5.777344 C 48.933594 5.667969 49.058594 5.558594 49.195312 5.445312 C 49.378906 5.300781 49.570312 5.160156 49.765625 5.023438 C 49.957031 4.886719 50.148438 4.765625 50.339844 4.636719 C 50.386719 4.609375 50.429688 4.582031 50.476562 4.554688 C 50.503906 4.535156 50.503906 4.515625 50.503906 4.488281 C 50.503906 4.46875 50.496094 4.453125 50.484375 4.433594 C 50.449219 4.3125 50.414062 4.191406 50.386719 4.082031 C 50.347656 3.960938 50.332031 3.832031 50.320312 3.714844 C 50.3125 3.601562 50.320312 3.492188 50.347656 3.382812 C 50.394531 3.152344 50.496094 2.949219 50.640625 2.753906 C 50.769531 2.589844 50.914062 2.449219 51.070312 2.320312 C 51.308594 2.136719 51.566406 2 51.839844 1.886719 C 52.132812 1.785156 52.433594 1.703125 52.753906 1.640625 C 52.9375 1.601562 53.109375 1.574219 53.292969 1.554688 C 53.449219 1.539062 53.605469 1.527344 53.757812 1.519531 C 53.933594 1.511719 54.117188 1.511719 54.289062 1.511719 C 54.417969 1.511719 54.554688 1.519531 54.683594 1.527344 C 54.855469 1.546875 55.03125 1.566406 55.195312 1.59375 C 55.453125 1.640625 55.707031 1.714844 55.9375 1.824219 C 56.007812 1.859375 56.082031 1.90625 56.144531 1.953125 C 56.199219 1.988281 56.238281 2.035156 56.257812 2.089844 C 56.285156 2.175781 56.3125 2.257812 56.328125 2.339844 C 56.375 2.507812 56.421875 2.671875 56.476562 2.839844 C 56.476562 2.847656 56.484375 2.855469 56.484375 2.867188 C 56.503906 2.921875 56.492188 2.941406 56.429688 2.941406 C 56.257812 2.941406 56.089844 2.96875 55.925781 2.984375 C 55.753906 3.003906 55.570312 3.03125 55.394531 3.050781 C 55.175781 3.078125 54.957031 3.113281 54.746094 3.152344 C 54.574219 3.179688 54.398438 3.226562 54.226562 3.261719 C 54.023438 3.308594 53.824219 3.363281 53.621094 3.417969 C 53.320312 3.5 53.019531 3.601562 52.726562 3.714844 C 52.707031 3.722656 52.699219 3.722656 52.679688 3.730469 C 52.707031 3.75 52.726562 3.742188 52.746094 3.730469 C 52.871094 3.695312 53.011719 3.660156 53.136719 3.621094 C 53.339844 3.566406 53.550781 3.519531 53.757812 3.472656 C 53.988281 3.429688 54.21875 3.382812 54.445312 3.34375 C 54.554688 3.328125 54.664062 3.316406 54.773438 3.300781 C 54.902344 3.28125 55.019531 3.261719 55.148438 3.253906 C 55.230469 3.242188 55.304688 3.234375 55.386719 3.226562 C 55.488281 3.214844 55.578125 3.207031 55.679688 3.199219 C 55.6875 3.199219 55.699219 3.199219 55.707031 3.199219 C 55.835938 3.1875 55.953125 3.179688 56.082031 3.171875 C 56.199219 3.160156 56.3125 3.152344 56.429688 3.140625 C 56.457031 3.140625 56.492188 3.140625 56.519531 3.140625 C 56.65625 3.132812 56.796875 3.140625 56.921875 3.125 C 56.949219 3.125 56.988281 3.125 57.015625 3.125 C 57.226562 3.125 57.425781 3.125 57.636719 3.125 C 57.828125 3.125 58.019531 3.132812 58.210938 3.140625 C 58.3125 3.140625 58.605469 3.1875 58.605469 3.1875 C 58.558594 3.1875 58.503906 3.1875 58.460938 3.1875 C 58.332031 3.1875 58.210938 3.1875 58.085938 3.1875 C 57.992188 3.1875 57.894531 3.1875 57.800781 3.199219 C 57.773438 3.199219 57.738281 3.199219 57.710938 3.199219 C 57.609375 3.199219 57.5 3.199219 57.398438 3.214844 C 57.378906 3.214844 57.371094 3.214844 57.351562 3.214844 C 57.160156 3.226562 56.96875 3.242188 56.769531 3.261719 C 56.640625 3.269531 56.511719 3.28125 56.382812 3.300781 C 56.210938 3.316406 56.035156 3.34375 55.863281 3.363281 C 55.761719 3.371094 55.660156 3.390625 55.550781 3.410156 C 55.453125 3.429688 55.351562 3.4375 55.242188 3.457031 C 55.011719 3.492188 54.792969 3.539062 54.5625 3.585938 C 54.371094 3.621094 54.179688 3.660156 53.996094 3.703125 C 53.585938 3.796875 53.183594 3.898438 52.789062 4.019531 C 52.316406 4.15625 51.847656 4.324219 51.390625 4.515625 C 51.015625 4.671875 50.660156 4.847656 50.304688 5.042969 C 49.78125 5.316406 49.289062 5.640625 48.820312 6 C 48.558594 6.203125 48.308594 6.414062 48.0625 6.644531 C 47.925781 6.773438 47.789062 6.902344 47.660156 7.042969 C 47.558594 7.144531 47.46875 7.253906 47.367188 7.363281 Z M 56.054688 2.515625 C 56.019531 2.507812 55.980469 2.488281 55.945312 2.480469 C 55.726562 2.421875 55.496094 2.394531 55.269531 2.386719 C 55.011719 2.378906 54.746094 2.386719 54.492188 2.40625 C 54.480469 2.40625 54.480469 2.40625 54.472656 2.40625 C 54.335938 2.421875 54.207031 2.441406 54.070312 2.449219 C 53.898438 2.46875 53.722656 2.507812 53.550781 2.542969 C 53.328125 2.589844 53.109375 2.652344 52.890625 2.71875 C 52.644531 2.792969 52.40625 2.894531 52.167969 2.996094 C 51.921875 3.113281 51.683594 3.261719 51.457031 3.417969 C 51.289062 3.53125 50.933594 3.878906 50.933594 3.898438 C 50.941406 3.898438 51.464844 3.53125 51.703125 3.410156 C 52.003906 3.253906 52.316406 3.125 52.644531 3.011719 C 52.855469 2.941406 53.066406 2.882812 53.273438 2.839844 C 53.484375 2.792969 53.695312 2.746094 53.914062 2.71875 C 54.007812 2.699219 54.105469 2.691406 54.207031 2.679688 C 54.300781 2.671875 54.398438 2.671875 54.492188 2.652344 C 54.617188 2.636719 54.757812 2.644531 54.882812 2.625 C 55.148438 2.625 55.414062 2.617188 55.679688 2.636719 C 55.796875 2.644531 55.925781 2.664062 56.046875 2.679688 C 56.0625 2.679688 56.089844 2.691406 56.109375 2.691406 C 56.117188 2.691406 56.136719 2.679688 56.136719 2.664062 C 56.136719 2.636719 56.128906 2.617188 56.117188 2.589844 C 56.109375 2.550781 56.082031 2.523438 56.054688 2.515625 Z M 50.613281 3.890625 C 50.632812 3.878906 50.640625 3.863281 50.652344 3.84375 C 50.6875 3.789062 51.007812 3.390625 51.152344 3.269531 C 51.34375 3.113281 51.554688 2.984375 51.785156 2.867188 C 52.011719 2.753906 52.242188 2.652344 52.480469 2.570312 C 52.644531 2.515625 52.800781 2.460938 52.964844 2.421875 C 53.203125 2.367188 53.441406 2.3125 53.6875 2.277344 C 53.824219 2.257812 53.953125 2.238281 54.089844 2.230469 C 54.117188 2.230469 54.132812 2.230469 54.160156 2.21875 C 54.261719 2.210938 54.371094 2.203125 54.472656 2.191406 C 54.675781 2.183594 54.875 2.183594 55.078125 2.191406 C 55.167969 2.191406 55.269531 2.203125 55.359375 2.210938 C 55.488281 2.21875 55.625 2.238281 55.753906 2.257812 C 55.855469 2.277344 55.953125 2.304688 56.054688 2.339844 C 56.074219 2.347656 56.089844 2.332031 56.082031 2.3125 C 56.0625 2.230469 56.027344 2.164062 55.9375 2.128906 C 55.835938 2.089844 55.734375 2.0625 55.625 2.035156 C 55.496094 2.007812 55.367188 1.988281 55.230469 1.972656 C 55.003906 1.945312 54.785156 1.925781 54.554688 1.925781 C 54.398438 1.925781 54.246094 1.925781 54.097656 1.933594 C 53.941406 1.945312 53.785156 1.953125 53.632812 1.972656 C 53.449219 1.988281 53.265625 2.019531 53.082031 2.054688 C 52.761719 2.117188 52.453125 2.210938 52.140625 2.332031 C 51.8125 2.46875 51.492188 2.636719 51.207031 2.855469 C 51.0625 2.96875 50.925781 3.097656 50.816406 3.242188 C 50.714844 3.371094 50.652344 3.511719 50.625 3.667969 C 50.613281 3.730469 50.613281 3.890625 50.613281 3.890625 Z M 52.304688 8.453125 C 52.34375 8.40625 52.324219 8.359375 52.289062 8.34375 C 52.25 8.324219 52.058594 8.285156 51.941406 8.371094 C 52.078125 8.351562 52.132812 8.398438 52.214844 8.445312 C 52.25 8.472656 52.296875 8.460938 52.304688 8.453125 Z M 61.796875 4.121094 C 61.789062 4.25 61.742188 4.367188 61.679688 4.480469 C 61.578125 4.664062 61.449219 4.820312 61.320312 4.976562 C 61.25 5.070312 61.167969 5.152344 61.082031 5.234375 C 60.910156 5.410156 60.726562 5.578125 60.542969 5.734375 C 60.324219 5.925781 60.085938 6.109375 59.847656 6.285156 C 59.675781 6.414062 59.5 6.535156 59.328125 6.664062 C 59.117188 6.8125 58.898438 6.960938 58.6875 7.097656 C 58.40625 7.28125 58.121094 7.457031 57.835938 7.621094 C 57.753906 7.667969 57.671875 7.722656 57.582031 7.769531 C 57.574219 7.78125 57.5625 7.78125 57.554688 7.789062 C 57.535156 7.808594 57.527344 7.824219 57.527344 7.84375 C 57.546875 7.964844 57.554688 8.09375 57.574219 8.214844 C 57.582031 8.296875 57.589844 8.378906 57.601562 8.460938 C 57.609375 8.554688 57.617188 8.644531 57.628906 8.738281 C 57.636719 8.820312 57.644531 8.90625 57.644531 8.988281 C 57.671875 9.382812 57.683594 9.78125 57.664062 10.175781 C 57.65625 10.289062 57.644531 10.40625 57.636719 10.519531 C 57.628906 10.621094 57.609375 10.71875 57.601562 10.832031 C 57.574219 11.023438 57.527344 11.21875 57.472656 11.414062 C 57.417969 11.625 57.34375 11.828125 57.242188 12.019531 C 57.214844 12.074219 57.226562 12.113281 57.253906 12.160156 C 57.324219 12.277344 57.398438 12.398438 57.480469 12.519531 C 57.546875 12.609375 57.617188 12.695312 57.699219 12.765625 C 57.800781 12.859375 57.910156 12.925781 58.046875 12.941406 C 58.113281 12.953125 58.175781 12.953125 58.230469 12.960938 C 58.367188 12.96875 58.503906 12.980469 58.640625 13.007812 C 58.769531 13.027344 58.898438 13.054688 59.027344 13.070312 C 59.210938 13.109375 59.382812 13.164062 59.546875 13.226562 C 59.785156 13.320312 60.003906 13.441406 60.195312 13.597656 C 60.269531 13.652344 60.332031 13.726562 60.40625 13.789062 C 60.664062 14.039062 60.847656 14.34375 60.972656 14.675781 C 61.046875 14.871094 61.101562 15.070312 61.136719 15.273438 C 61.175781 15.515625 61.195312 15.753906 61.175781 15.996094 C 61.167969 16.09375 61.15625 16.1875 61.148438 16.289062 C 61.136719 16.390625 61.121094 16.492188 61.101562 16.601562 C 61.074219 16.796875 61.039062 16.980469 61 17.175781 C 60.945312 17.433594 60.882812 17.691406 60.820312 17.949219 C 60.71875 18.335938 60.617188 18.714844 60.507812 19.09375 C 60.445312 19.324219 60.371094 19.554688 60.296875 19.785156 C 60.277344 19.8125 60.261719 19.875 60.242188 19.941406 C 60.214844 19.941406 60.207031 19.949219 60.1875 19.949219 C 59.265625 19.949219 58.332031 19.949219 57.40625 19.949219 C 57.40625 19.949219 57.398438 19.949219 57.398438 19.941406 C 57.417969 19.875 57.460938 19.828125 57.492188 19.773438 C 57.519531 19.71875 57.5625 19.664062 57.589844 19.609375 C 57.628906 19.554688 57.65625 19.488281 57.691406 19.433594 C 57.726562 19.378906 57.753906 19.324219 57.792969 19.257812 C 57.828125 19.203125 57.855469 19.148438 57.894531 19.09375 C 57.929688 19.035156 57.957031 18.980469 57.992188 18.917969 C 58.03125 18.863281 58.058594 18.804688 58.09375 18.742188 C 58.128906 18.6875 58.167969 18.632812 58.195312 18.574219 C 58.230469 18.519531 58.257812 18.464844 58.292969 18.402344 C 58.332031 18.34375 58.359375 18.289062 58.394531 18.226562 C 58.433594 18.171875 58.46875 18.113281 58.496094 18.058594 C 58.53125 18.003906 58.558594 17.949219 58.597656 17.894531 C 58.632812 17.839844 58.660156 17.78125 58.695312 17.726562 C 58.734375 17.671875 58.761719 17.617188 58.796875 17.5625 C 58.835938 17.507812 58.871094 17.449219 58.898438 17.394531 C 58.933594 17.339844 58.972656 17.285156 59 17.230469 C 59.035156 17.175781 59.070312 17.117188 59.097656 17.0625 C 59.136719 17.007812 59.171875 16.953125 59.199219 16.898438 C 59.238281 16.84375 59.273438 16.785156 59.300781 16.730469 C 59.335938 16.675781 59.375 16.621094 59.402344 16.566406 C 59.4375 16.511719 59.464844 16.457031 59.5 16.398438 C 59.539062 16.34375 59.574219 16.289062 59.601562 16.234375 C 59.640625 16.179688 59.675781 16.125 59.710938 16.066406 C 59.75 16.011719 59.785156 15.957031 59.8125 15.902344 C 59.792969 15.882812 59.785156 15.902344 59.785156 15.910156 C 59.710938 16.003906 59.648438 16.09375 59.574219 16.179688 C 59.410156 16.410156 59.238281 16.640625 59.070312 16.871094 C 58.917969 17.082031 58.761719 17.292969 58.605469 17.507812 C 58.503906 17.644531 58.40625 17.78125 58.304688 17.921875 C 58.140625 18.140625 57.976562 18.371094 57.820312 18.59375 C 57.601562 18.90625 57.371094 19.210938 57.152344 19.523438 C 57.058594 19.644531 56.976562 19.773438 56.886719 19.894531 C 56.878906 19.902344 56.878906 19.914062 56.867188 19.921875 C 56.839844 19.957031 56.8125 19.976562 56.769531 19.976562 C 56.503906 19.976562 56.238281 19.976562 55.964844 19.976562 C 55.953125 19.976562 55.945312 19.976562 55.9375 19.96875 C 55.945312 19.941406 55.945312 19.921875 55.953125 19.894531 C 56.046875 19.589844 56.136719 19.285156 56.226562 18.980469 C 56.320312 18.6875 56.410156 18.402344 56.511719 18.105469 C 56.628906 17.753906 56.75 17.40625 56.867188 17.054688 C 57.023438 16.601562 57.1875 16.160156 57.34375 15.71875 C 57.460938 15.394531 57.589844 15.082031 57.710938 14.757812 C 57.835938 14.4375 57.964844 14.121094 58.09375 13.800781 C 58.113281 13.753906 58.128906 13.71875 58.140625 13.671875 C 58.121094 13.660156 58.121094 13.679688 58.113281 13.6875 C 58.058594 13.808594 57.992188 13.917969 57.9375 14.039062 C 57.835938 14.242188 57.746094 14.453125 57.65625 14.65625 C 57.5 14.988281 57.351562 15.320312 57.207031 15.664062 C 57.105469 15.894531 57.003906 16.113281 56.90625 16.34375 C 56.75 16.703125 56.585938 17.0625 56.429688 17.421875 C 56.246094 17.839844 56.074219 18.242188 55.890625 18.660156 C 55.796875 18.863281 55.707031 19.0625 55.617188 19.277344 C 55.523438 19.488281 55.433594 19.710938 55.332031 19.921875 C 55.324219 19.941406 55.3125 19.957031 55.304688 19.984375 C 55.285156 19.984375 55.277344 19.996094 55.257812 19.996094 C 55.085938 19.996094 54.910156 19.996094 54.730469 19.996094 C 54.71875 19.996094 54.710938 19.996094 54.703125 19.984375 C 54.683594 19.96875 54.691406 19.941406 54.703125 19.921875 C 54.746094 19.753906 54.792969 19.589844 54.828125 19.421875 C 54.957031 18.953125 55.078125 18.484375 55.203125 18.011719 C 55.3125 17.589844 55.433594 17.175781 55.542969 16.75 C 55.671875 16.269531 55.808594 15.78125 55.9375 15.300781 C 56.027344 14.988281 56.109375 14.667969 56.199219 14.351562 C 56.285156 14.050781 56.375 13.734375 56.464844 13.429688 C 56.476562 13.394531 56.484375 13.355469 56.503906 13.3125 C 56.476562 13.320312 56.476562 13.339844 56.464844 13.355469 C 56.382812 13.605469 56.300781 13.847656 56.210938 14.09375 C 56.128906 14.335938 56.046875 14.574219 55.964844 14.8125 C 55.824219 15.210938 55.6875 15.605469 55.550781 15.996094 C 55.378906 16.511719 55.195312 17.027344 55.019531 17.542969 C 54.902344 17.902344 54.773438 18.261719 54.65625 18.621094 C 54.5625 18.90625 54.464844 19.183594 54.371094 19.46875 C 54.316406 19.625 54.273438 19.785156 54.21875 19.941406 C 54.207031 19.957031 54.207031 19.976562 54.199219 19.996094 C 54.179688 19.996094 54.160156 20.003906 54.152344 20.003906 C 53.859375 20.015625 53.203125 20.003906 53.121094 19.996094 C 53.109375 19.976562 53.121094 19.96875 53.121094 19.949219 C 53.121094 19.929688 53.121094 19.921875 53.128906 19.902344 C 53.175781 19.671875 53.210938 19.453125 53.257812 19.222656 C 53.3125 18.925781 53.375 18.632812 53.429688 18.335938 C 53.476562 18.105469 53.53125 17.875 53.578125 17.644531 C 53.648438 17.3125 53.722656 16.980469 53.804688 16.65625 C 53.886719 16.296875 53.980469 15.9375 54.070312 15.578125 C 54.152344 15.246094 54.246094 14.914062 54.335938 14.582031 C 54.453125 14.160156 54.582031 13.734375 54.710938 13.320312 C 54.8125 12.988281 54.929688 12.65625 55.050781 12.335938 C 55.167969 12.019531 55.296875 11.699219 55.433594 11.394531 C 55.515625 11.210938 55.605469 11.035156 55.699219 10.859375 C 55.742188 10.765625 55.789062 10.683594 55.835938 10.601562 C 55.855469 10.5625 55.863281 10.527344 55.863281 10.488281 C 55.855469 10.445312 55.855469 10.390625 55.84375 10.34375 C 55.816406 10.148438 55.789062 9.945312 55.761719 9.753906 C 55.742188 9.632812 55.734375 9.511719 55.714844 9.394531 C 55.714844 9.367188 55.6875 8.941406 55.6875 8.921875 C 55.671875 8.921875 55.660156 8.921875 55.652344 8.933594 C 55.589844 8.949219 55.515625 8.96875 55.453125 8.988281 C 55.359375 9.015625 55.269531 9.007812 55.1875 8.976562 C 55.085938 8.941406 55.019531 8.875 54.992188 8.773438 C 54.964844 8.703125 54.957031 8.636719 54.964844 8.574219 C 54.984375 8.433594 55.019531 8.304688 55.078125 8.183594 C 55.160156 8.011719 55.257812 7.84375 55.378906 7.695312 C 55.441406 7.621094 55.523438 7.558594 55.605469 7.503906 C 55.652344 7.476562 55.699219 7.464844 55.742188 7.449219 C 55.789062 7.4375 55.824219 7.449219 55.863281 7.476562 C 55.910156 7.511719 55.945312 7.550781 55.972656 7.605469 C 55.980469 7.632812 55.992188 7.660156 56.019531 7.679688 C 56.027344 7.667969 56.035156 7.660156 56.046875 7.640625 C 56.15625 7.464844 56.257812 7.292969 56.328125 7.097656 C 56.367188 6.976562 56.394531 6.859375 56.410156 6.738281 C 56.429688 6.601562 56.429688 6.453125 56.421875 6.3125 C 56.421875 6.230469 56.410156 6.136719 56.382812 6.066406 C 56.347656 5.9375 56.265625 5.835938 56.144531 5.769531 C 56.074219 5.722656 55.992188 5.722656 55.910156 5.742188 C 55.84375 5.761719 55.789062 5.796875 55.734375 5.84375 C 55.644531 5.925781 55.570312 6.019531 55.523438 6.128906 C 55.480469 6.230469 55.441406 6.339844 55.394531 6.441406 C 55.378906 6.480469 55.359375 6.527344 55.332031 6.5625 C 55.257812 6.65625 55.167969 6.691406 55.050781 6.671875 C 54.992188 6.664062 54.949219 6.628906 54.921875 6.589844 C 54.875 6.527344 54.839844 6.453125 54.8125 6.378906 C 54.765625 6.238281 54.738281 6.09375 54.710938 5.945312 C 54.691406 5.835938 54.683594 5.722656 54.65625 5.605469 C 54.628906 5.464844 54.535156 5.375 54.398438 5.335938 C 54.316406 5.308594 54.226562 5.289062 54.144531 5.261719 C 54.097656 5.253906 54.050781 5.234375 54.007812 5.226562 C 53.90625 5.1875 53.816406 5.152344 53.785156 5.042969 C 53.730469 5.023438 53.6875 5.03125 53.640625 5.042969 C 53.496094 5.058594 53.347656 5.085938 53.203125 5.117188 C 52.980469 5.152344 52.773438 5.199219 52.5625 5.261719 C 52.34375 5.316406 52.132812 5.382812 51.921875 5.457031 C 51.601562 5.566406 51.28125 5.695312 50.980469 5.863281 C 50.851562 5.925781 50.734375 6 50.613281 6.074219 C 50.578125 6.09375 50.558594 6.121094 50.550781 6.167969 C 50.550781 6.195312 50.539062 6.210938 50.539062 6.238281 C 50.53125 6.285156 50.53125 6.339844 50.53125 6.386719 C 50.53125 6.398438 50.53125 6.414062 50.539062 6.425781 C 50.539062 6.425781 50.550781 6.433594 50.558594 6.433594 C 50.570312 6.425781 50.585938 6.414062 50.597656 6.40625 C 50.652344 6.332031 50.734375 6.304688 50.816406 6.296875 C 50.925781 6.285156 51.035156 6.285156 51.144531 6.324219 C 51.335938 6.378906 51.472656 6.5 51.566406 6.671875 C 51.621094 6.785156 51.65625 6.902344 51.664062 7.023438 C 51.691406 7.253906 51.65625 7.484375 51.601562 7.707031 C 51.582031 7.789062 51.539062 7.871094 51.5 7.953125 C 51.484375 7.992188 51.464844 8.039062 51.445312 8.074219 C 51.417969 8.148438 51.429688 8.214844 51.464844 8.277344 C 51.5 8.359375 51.566406 8.433594 51.636719 8.480469 C 51.691406 8.515625 51.746094 8.554688 51.804688 8.582031 C 51.875 8.636719 51.867188 8.746094 51.859375 8.738281 C 51.8125 8.691406 51.757812 8.664062 51.703125 8.636719 C 51.609375 8.589844 51.527344 8.535156 51.464844 8.453125 C 51.390625 8.371094 51.34375 8.269531 51.355469 8.148438 C 51.355469 8.09375 51.382812 8.039062 51.402344 7.984375 C 51.417969 7.945312 51.4375 7.910156 51.457031 7.871094 C 51.519531 7.742188 51.554688 7.605469 51.574219 7.464844 C 51.574219 7.449219 51.582031 7.421875 51.554688 7.402344 C 51.546875 7.402344 51.539062 7.402344 51.527344 7.410156 C 51.417969 7.492188 51.300781 7.53125 51.164062 7.566406 C 51.070312 7.585938 50.972656 7.605469 50.871094 7.605469 C 50.832031 7.605469 50.824219 7.613281 50.824219 7.652344 C 50.804688 7.789062 50.804688 7.917969 50.816406 8.054688 C 50.816406 8.082031 50.824219 8.101562 50.824219 8.128906 C 50.832031 8.304688 50.878906 8.472656 50.941406 8.628906 C 51.007812 8.792969 51.109375 8.949219 51.207031 9.097656 C 51.375 9.328125 51.519531 9.566406 51.648438 9.816406 C 51.71875 9.972656 51.804688 10.121094 51.894531 10.277344 C 51.929688 10.34375 51.96875 10.398438 52.011719 10.453125 C 52.050781 10.5 52.09375 10.535156 52.140625 10.574219 C 52.214844 10.621094 52.289062 10.648438 52.378906 10.648438 C 52.515625 10.648438 52.644531 10.628906 52.773438 10.589844 C 52.964844 10.535156 53.148438 10.460938 53.320312 10.371094 C 53.578125 10.25 53.816406 10.101562 54.042969 9.945312 C 54.34375 9.742188 54.636719 9.53125 54.929688 9.320312 C 55.011719 9.253906 55.203125 9.136719 55.214844 9.136719 C 55.1875 9.171875 54.957031 9.382812 54.855469 9.484375 C 54.617188 9.714844 54.390625 9.957031 54.160156 10.195312 C 53.996094 10.371094 53.832031 10.546875 53.6875 10.75 C 53.59375 10.878906 53.511719 11.015625 53.457031 11.171875 C 53.429688 11.265625 53.414062 11.355469 53.414062 11.449219 C 53.402344 11.585938 53.421875 11.734375 53.441406 11.875 C 53.449219 11.945312 53.457031 12.03125 53.46875 12.113281 C 53.476562 12.175781 53.484375 12.25 53.496094 12.316406 C 53.503906 12.363281 53.503906 12.417969 53.511719 12.464844 C 53.523438 12.554688 53.53125 12.65625 53.523438 12.75 C 53.523438 12.90625 53.511719 13.0625 53.46875 13.210938 C 53.414062 13.414062 53.3125 13.578125 53.15625 13.707031 C 53.066406 13.789062 52.953125 13.855469 52.84375 13.917969 C 52.800781 13.949219 52.753906 13.964844 52.699219 13.992188 C 52.671875 14.011719 52.652344 14.03125 52.652344 14.058594 C 52.644531 14.132812 52.441406 14.480469 52.386719 14.628906 C 51.894531 15.800781 51.457031 18.878906 51.984375 19.480469 C 52.378906 19.25 52.652344 18.429688 52.863281 17.949219 C 52.753906 18.601562 52.414062 19.617188 52.195312 19.957031 C 52.003906 19.957031 51.820312 19.957031 51.628906 19.957031 C 51.628906 19.957031 51.621094 19.957031 51.609375 19.949219 C 51.601562 19.929688 51.59375 19.914062 51.59375 19.894531 C 51.539062 19.683594 51.484375 19.480469 51.445312 19.265625 C 51.429688 19.15625 51.417969 19.046875 51.402344 18.933594 C 51.390625 18.890625 51.390625 18.84375 51.382812 18.796875 C 51.375 18.695312 51.363281 18.59375 51.355469 18.492188 C 51.355469 18.484375 51.355469 18.484375 51.355469 18.472656 C 51.34375 18.160156 51.328125 17.855469 51.335938 17.542969 C 51.34375 17.40625 51.34375 17.257812 51.355469 17.117188 C 51.363281 17.015625 51.375 16.917969 51.382812 16.816406 C 51.382812 16.804688 51.382812 16.796875 51.382812 16.785156 C 51.390625 16.667969 51.390625 16.554688 51.410156 16.4375 C 51.429688 16.253906 51.445312 16.066406 51.472656 15.882812 C 51.492188 15.78125 51.5 15.679688 51.519531 15.578125 C 51.554688 15.3125 51.601562 15.042969 51.65625 14.785156 C 51.710938 14.511719 51.777344 14.242188 51.839844 13.976562 C 51.886719 13.789062 51.929688 13.617188 51.976562 13.429688 C 51.976562 13.421875 51.976562 13.402344 51.984375 13.394531 C 51.957031 13.402344 51.957031 13.421875 51.957031 13.441406 C 51.847656 13.78125 51.738281 14.121094 51.648438 14.472656 C 51.59375 14.703125 51.527344 14.933594 51.472656 15.164062 C 51.4375 15.3125 51.410156 15.460938 51.382812 15.605469 C 51.363281 15.726562 51.335938 15.847656 51.316406 15.957031 C 51.300781 16.066406 51.28125 16.179688 51.273438 16.289062 C 51.253906 16.417969 51.234375 16.539062 51.226562 16.667969 C 51.21875 16.742188 51.207031 16.816406 51.207031 16.886719 C 51.199219 17.007812 51.191406 17.136719 51.179688 17.257812 C 51.152344 17.625 51.164062 17.996094 51.171875 18.371094 C 51.171875 18.5 51.179688 18.640625 51.199219 18.769531 C 51.207031 18.851562 51.21875 18.933594 51.226562 19.019531 C 51.234375 19.121094 51.253906 19.222656 51.273438 19.332031 C 51.300781 19.523438 51.34375 19.726562 51.390625 19.914062 C 51.390625 19.921875 51.390625 19.941406 51.390625 19.949219 C 51.382812 19.949219 51.363281 19.957031 51.355469 19.957031 C 51.191406 19.957031 51.027344 19.957031 50.851562 19.957031 C 50.84375 19.957031 50.84375 19.957031 50.824219 19.949219 C 50.816406 19.941406 50.804688 19.921875 50.804688 19.902344 C 50.742188 19.671875 50.679688 19.433594 50.632812 19.191406 C 50.597656 18.992188 50.558594 18.796875 50.523438 18.59375 C 50.503906 18.472656 50.496094 18.34375 50.476562 18.226562 C 50.457031 18.078125 50.441406 17.929688 50.429688 17.78125 C 50.421875 17.691406 50.414062 17.589844 50.414062 17.496094 C 50.394531 17.175781 50.386719 16.84375 50.386719 16.519531 C 50.386719 16.335938 50.386719 16.140625 50.394531 15.957031 C 50.394531 15.875 50.402344 15.792969 50.414062 15.699219 C 50.414062 15.570312 50.429688 15.441406 50.441406 15.3125 C 50.449219 15.21875 50.457031 15.128906 50.46875 15.035156 C 50.484375 14.886719 50.503906 14.75 50.523438 14.601562 C 50.539062 14.464844 50.558594 14.324219 50.578125 14.1875 C 50.578125 14.167969 50.585938 14.148438 50.585938 14.132812 C 50.597656 14.113281 50.597656 14.085938 50.585938 14.050781 C 50.558594 14.160156 50.539062 14.261719 50.523438 14.351562 C 50.496094 14.511719 50.46875 14.667969 50.441406 14.824219 C 50.429688 14.898438 50.421875 14.972656 50.402344 15.042969 C 50.386719 15.144531 50.375 15.238281 50.359375 15.339844 C 50.347656 15.421875 50.339844 15.503906 50.332031 15.589844 C 50.3125 15.753906 50.304688 15.929688 50.285156 16.09375 C 50.277344 16.226562 50.277344 16.355469 50.265625 16.484375 C 50.257812 16.714844 50.25 16.933594 50.257812 17.164062 C 50.257812 17.339844 50.265625 17.515625 50.277344 17.699219 C 50.285156 17.855469 50.292969 18.023438 50.3125 18.179688 C 50.339844 18.445312 50.375 18.703125 50.414062 18.972656 C 50.457031 19.257812 50.523438 19.554688 50.597656 19.828125 C 50.605469 19.867188 50.613281 19.894531 50.613281 19.929688 C 50.597656 19.929688 50.578125 19.941406 50.558594 19.941406 C 50.140625 19.949219 49.433594 19.941406 49.351562 19.929688 C 49.351562 19.921875 49.34375 19.921875 49.34375 19.914062 C 49.34375 19.847656 49.34375 19.785156 49.351562 19.71875 C 49.363281 19.535156 49.371094 19.351562 49.351562 19.15625 C 49.351562 19.148438 49.351562 19.136719 49.351562 19.128906 C 49.34375 18.992188 49.34375 18.863281 49.324219 18.722656 C 49.304688 18.546875 49.316406 18.371094 49.304688 18.1875 C 49.289062 17.808594 49.289062 17.433594 49.296875 17.054688 C 49.296875 16.871094 49.304688 16.695312 49.316406 16.511719 C 49.324219 16.355469 49.335938 16.195312 49.351562 16.050781 C 49.378906 15.753906 49.425781 15.449219 49.5 15.164062 C 49.554688 14.933594 49.636719 14.710938 49.746094 14.511719 C 49.847656 14.324219 49.964844 14.160156 50.101562 14.011719 C 50.25 13.863281 50.414062 13.734375 50.605469 13.644531 C 50.832031 13.523438 51.082031 13.441406 51.335938 13.375 C 51.457031 13.347656 51.574219 13.320312 51.691406 13.300781 C 51.738281 13.292969 51.777344 13.285156 51.820312 13.265625 C 51.867188 13.257812 51.894531 13.226562 51.921875 13.183594 C 51.949219 13.136719 51.976562 13.082031 52.023438 13.042969 C 52.050781 13.027344 52.058594 12.988281 52.078125 12.953125 C 52.113281 12.859375 52.148438 12.777344 52.1875 12.683594 C 52.316406 12.371094 52.46875 12.074219 52.644531 11.789062 C 52.789062 11.542969 52.953125 11.300781 53.128906 11.070312 C 53.136719 11.0625 53.148438 11.050781 53.15625 11.042969 C 53.183594 11.015625 53.191406 10.980469 53.175781 10.933594 C 53.148438 10.851562 53.121094 10.765625 53.082031 10.683594 C 53.074219 10.65625 53.054688 10.648438 53.027344 10.65625 C 53 10.664062 52.964844 10.675781 52.9375 10.683594 C 52.753906 10.75 52.570312 10.785156 52.371094 10.765625 C 52.289062 10.757812 52.214844 10.75 52.140625 10.710938 C 52.050781 10.664062 51.976562 10.609375 51.921875 10.527344 C 51.867188 10.453125 51.832031 10.371094 51.777344 10.296875 C 51.765625 10.289062 51.757812 10.269531 51.757812 10.25 C 51.746094 10.230469 51.730469 10.222656 51.703125 10.222656 C 51.664062 10.222656 51.628906 10.222656 51.601562 10.230469 C 51.511719 10.242188 51.429688 10.25 51.335938 10.257812 C 51.21875 10.269531 51.109375 10.277344 50.988281 10.296875 C 50.980469 10.296875 50.980469 10.296875 50.972656 10.296875 C 50.824219 10.304688 50.667969 10.316406 50.523438 10.324219 C 50.304688 10.359375 50.011719 10.359375 49.726562 10.359375 C 49.570312 10.359375 49.417969 10.351562 49.261719 10.34375 C 48.902344 10.316406 48.546875 10.257812 48.210938 10.160156 C 48.007812 10.09375 47.808594 10.019531 47.625 9.910156 C 47.476562 9.816406 47.339844 9.714844 47.230469 9.566406 C 47.15625 9.46875 47.09375 9.367188 47.066406 9.253906 C 47.019531 9.117188 47.011719 8.976562 47.03125 8.832031 C 47.058594 8.617188 47.128906 8.425781 47.230469 8.230469 C 47.332031 8.046875 47.460938 7.871094 47.585938 7.707031 C 47.796875 7.449219 48.027344 7.21875 48.265625 6.988281 C 48.457031 6.800781 48.667969 6.636719 48.867188 6.46875 C 49.214844 6.195312 49.589844 5.953125 49.964844 5.722656 C 50.25 5.558594 50.550781 5.402344 50.851562 5.253906 C 51.226562 5.078125 51.601562 4.914062 51.984375 4.773438 C 52.121094 4.726562 52.261719 4.671875 52.398438 4.625 C 52.617188 4.554688 52.835938 4.480469 53.066406 4.414062 C 53.414062 4.3125 53.757812 4.222656 54.105469 4.136719 C 54.425781 4.0625 54.757812 3.992188 55.085938 3.933594 C 55.242188 3.90625 55.386719 3.878906 55.542969 3.851562 C 55.644531 3.832031 55.742188 3.824219 55.855469 3.804688 C 55.964844 3.789062 56.0625 3.777344 56.171875 3.761719 C 56.300781 3.742188 56.429688 3.722656 56.558594 3.714844 C 56.621094 3.703125 56.6875 3.695312 56.75 3.6875 C 56.851562 3.675781 56.941406 3.660156 57.042969 3.648438 C 57.132812 3.640625 57.214844 3.632812 57.308594 3.621094 C 57.378906 3.613281 57.453125 3.601562 57.535156 3.601562 C 57.664062 3.59375 57.78125 3.585938 57.910156 3.574219 C 58.039062 3.566406 58.167969 3.558594 58.296875 3.546875 C 58.304688 3.546875 58.324219 3.546875 58.332031 3.546875 C 58.585938 3.539062 58.84375 3.53125 59.097656 3.519531 C 59.402344 3.511719 59.703125 3.511719 60.003906 3.511719 C 60.207031 3.511719 60.417969 3.519531 60.617188 3.53125 C 60.855469 3.546875 61.082031 3.574219 61.3125 3.640625 C 61.414062 3.667969 61.503906 3.714844 61.597656 3.761719 C 61.640625 3.789062 61.679688 3.816406 61.714844 3.863281 C 61.777344 3.933594 61.796875 4.019531 61.796875 4.121094 Z M 50.019531 19.480469 C 49.992188 19.292969 49.984375 19.101562 49.964844 18.917969 C 49.945312 18.722656 49.917969 18.539062 49.910156 18.34375 C 49.882812 17.96875 49.882812 17.589844 49.882812 17.210938 C 49.882812 16.980469 49.882812 16.757812 49.882812 16.527344 C 49.882812 16.492188 49.882812 16.457031 49.882812 16.425781 C 49.902344 16.324219 49.890625 16.214844 49.902344 16.113281 C 49.902344 16.039062 49.902344 15.976562 49.902344 15.902344 C 49.902344 15.855469 49.910156 15.800781 49.917969 15.753906 C 49.929688 15.652344 49.929688 15.542969 49.917969 15.441406 C 49.910156 15.496094 49.835938 15.855469 49.828125 15.976562 C 49.808594 16.132812 49.808594 16.289062 49.800781 16.457031 C 49.773438 17.210938 49.78125 17.976562 49.875 18.730469 C 49.890625 18.980469 49.972656 19.222656 50.019531 19.480469 Z M 51.703125 13.496094 C 51.703125 13.488281 51.691406 13.46875 51.683594 13.46875 C 51.621094 13.476562 51.554688 13.488281 51.5 13.503906 C 51.402344 13.53125 51.335938 13.589844 51.300781 13.6875 C 51.28125 13.734375 51.273438 13.78125 51.253906 13.828125 C 51.226562 13.949219 51.191406 14.066406 51.164062 14.1875 C 51.109375 14.410156 51.0625 14.640625 51.027344 14.871094 C 51 15.054688 50.972656 15.230469 50.941406 15.414062 C 50.914062 15.5625 50.90625 15.71875 50.886719 15.863281 C 50.878906 15.949219 50.871094 16.03125 50.871094 16.125 C 50.859375 16.242188 50.851562 16.355469 50.84375 16.472656 C 50.832031 16.59375 50.832031 16.703125 50.824219 16.824219 C 50.816406 17.230469 50.816406 17.636719 50.84375 18.039062 C 50.851562 18.125 50.851562 18.199219 50.859375 18.28125 C 50.871094 18.382812 50.878906 18.472656 50.898438 18.574219 C 50.90625 18.675781 50.925781 18.777344 50.941406 18.878906 C 50.972656 19.019531 51 19.148438 51.015625 19.277344 C 51.035156 19.292969 51.042969 19.324219 51.054688 19.359375 C 51.0625 19.3125 51.0625 19.285156 51.054688 19.25 C 51.042969 19.183594 51.035156 19.121094 51.027344 19.0625 C 51.015625 18.980469 51.007812 18.898438 51 18.816406 C 50.980469 18.667969 50.960938 18.53125 50.960938 18.382812 C 50.960938 18.140625 50.960938 17.894531 50.960938 17.652344 C 50.960938 17.460938 50.980469 17.277344 50.988281 17.082031 C 50.988281 17.007812 51 16.933594 51.007812 16.851562 C 51.015625 16.769531 51.027344 16.6875 51.035156 16.59375 C 51.054688 16.4375 51.070312 16.289062 51.089844 16.132812 C 51.097656 16.078125 51.109375 16.023438 51.109375 15.976562 C 51.125 15.847656 51.144531 15.707031 51.171875 15.578125 C 51.207031 15.375 51.253906 15.171875 51.300781 14.960938 C 51.363281 14.640625 51.457031 14.324219 51.546875 14.011719 C 51.59375 13.855469 51.648438 13.699219 51.691406 13.542969 C 51.703125 13.523438 51.703125 13.515625 51.703125 13.496094 Z M 50.640625 6.65625 C 50.640625 6.664062 50.652344 6.664062 50.652344 6.671875 C 50.75 6.832031 50.824219 7.003906 50.84375 7.191406 C 50.859375 7.21875 50.871094 7.234375 50.878906 7.273438 C 50.925781 7.273438 50.972656 7.273438 51.007812 7.261719 C 51.171875 7.226562 51.328125 7.171875 51.464844 7.078125 C 51.492188 7.0625 51.519531 7.042969 51.546875 7.015625 C 51.566406 7.003906 51.566406 6.988281 51.566406 6.960938 C 51.554688 6.929688 51.546875 6.914062 51.539062 6.886719 C 51.484375 6.773438 51.390625 6.699219 51.289062 6.644531 C 51.136719 6.5625 50.972656 6.535156 50.789062 6.554688 C 50.742188 6.554688 50.707031 6.570312 50.660156 6.589844 C 50.632812 6.601562 50.625 6.628906 50.640625 6.65625 Z M 55.769531 8.820312 C 55.742188 8.820312 55.726562 8.820312 55.699219 8.832031 C 55.632812 8.847656 55.570312 8.847656 55.515625 8.839844 C 55.378906 8.820312 55.304688 8.765625 55.269531 8.636719 C 55.257812 8.601562 55.25 8.574219 55.25 8.535156 C 55.242188 8.40625 55.269531 8.285156 55.3125 8.175781 C 55.378906 8.011719 55.46875 7.863281 55.578125 7.722656 C 55.632812 7.652344 55.6875 7.585938 55.761719 7.53125 C 55.769531 7.523438 55.78125 7.511719 55.761719 7.503906 C 55.734375 7.511719 55.707031 7.53125 55.679688 7.550781 C 55.605469 7.613281 55.542969 7.679688 55.480469 7.753906 C 55.394531 7.863281 55.324219 7.984375 55.269531 8.113281 C 55.203125 8.257812 55.167969 8.414062 55.1875 8.582031 C 55.1875 8.636719 55.203125 8.683594 55.222656 8.730469 C 55.269531 8.832031 55.339844 8.886719 55.453125 8.90625 C 55.5625 8.914062 55.671875 8.894531 55.769531 8.820312 Z M 55.980469 8.542969 C 55.972656 8.535156 55.761719 8.691406 55.6875 8.480469 C 55.679688 8.453125 55.671875 8.414062 55.671875 8.386719 C 55.671875 8.34375 55.671875 8.296875 55.679688 8.25 C 55.6875 8.167969 55.742188 7.984375 55.734375 7.972656 C 55.726562 7.984375 55.660156 8.121094 55.632812 8.183594 C 55.589844 8.285156 55.578125 8.398438 55.589844 8.5 C 55.589844 8.535156 55.605469 8.574219 55.625 8.609375 C 55.671875 8.683594 55.742188 8.710938 55.824219 8.675781 C 55.890625 8.644531 55.945312 8.601562 55.980469 8.542969 Z M 56.101562 8.167969 C 56.089844 8.128906 55.972656 7.789062 55.953125 7.789062 C 56.007812 7.917969 56.054688 8.3125 56.054688 8.34375 C 56.0625 8.332031 56.117188 8.222656 56.101562 8.167969 Z M 55.734375 5.707031 C 55.644531 5.621094 55.46875 5.519531 55.242188 5.585938 C 55.46875 5.605469 55.660156 5.675781 55.734375 5.707031 Z M 56.109375 5.585938 C 56.019531 5.503906 55.917969 5.429688 55.808594 5.382812 C 55.644531 5.308594 55.46875 5.273438 55.285156 5.261719 C 55.160156 5.253906 54.867188 5.28125 54.855469 5.300781 C 54.867188 5.300781 54.9375 5.289062 54.957031 5.289062 C 54.992188 5.289062 55.542969 5.300781 56.109375 5.585938 Z M 56.703125 8.113281 C 56.703125 7.9375 56.703125 7.761719 56.695312 7.585938 C 56.6875 7.429688 56.6875 7.273438 56.667969 7.125 C 56.667969 7.089844 56.65625 7.050781 56.628906 7.015625 C 56.628906 7.0625 56.628906 7.089844 56.628906 7.125 C 56.628906 7.402344 56.628906 7.667969 56.640625 7.945312 C 56.648438 8.601562 56.648438 9.246094 56.648438 9.898438 C 56.6875 9.835938 56.667969 9.4375 56.6875 9.179688 C 56.703125 8.820312 56.703125 8.460938 56.703125 8.113281 Z M 56.722656 6.785156 C 56.703125 6.683594 56.648438 6.433594 56.621094 6.441406 C 56.621094 6.46875 56.796875 7.605469 56.8125 7.707031 C 56.859375 8.011719 57.058594 9.855469 57.070312 9.863281 C 57.171875 8.8125 56.757812 6.996094 56.722656 6.785156 Z M 57.445312 8.96875 C 57.433594 8.820312 57.40625 8.683594 57.390625 8.535156 C 57.363281 8.332031 57.324219 8.128906 57.28125 7.925781 C 57.253906 7.769531 57.207031 7.621094 57.160156 7.464844 C 57.042969 7.050781 56.90625 6.636719 56.742188 6.238281 C 56.65625 6.046875 56.558594 5.851562 56.4375 5.675781 C 56.328125 5.511719 56.210938 5.347656 56.035156 5.246094 C 55.488281 4.914062 54.355469 4.949219 54.289062 4.976562 C 54.792969 4.957031 55.753906 5.160156 55.925781 5.28125 C 56.128906 5.417969 56.285156 5.585938 56.402344 5.796875 C 56.484375 5.945312 56.558594 6.101562 56.628906 6.257812 C 56.742188 6.507812 56.839844 6.757812 56.933594 7.015625 C 56.996094 7.199219 57.050781 7.390625 57.105469 7.585938 C 57.207031 7.9375 57.289062 8.285156 57.34375 8.636719 C 57.363281 8.773438 57.390625 8.90625 57.398438 9.042969 C 57.40625 9.117188 57.453125 9.496094 57.453125 9.523438 C 57.472656 9.503906 57.453125 9.136719 57.445312 8.96875 Z M 55.644531 4.867188 C 55.5625 4.847656 55.296875 4.828125 55.277344 4.839844 C 55.296875 4.847656 55.617188 4.914062 55.753906 4.957031 C 55.882812 5.003906 56.007812 5.058594 56.117188 5.125 C 56.238281 5.199219 56.347656 5.28125 56.4375 5.382812 C 56.511719 5.464844 56.574219 5.546875 56.628906 5.640625 C 56.742188 5.816406 56.832031 5.992188 56.90625 6.175781 C 56.976562 6.351562 57.050781 6.535156 57.105469 6.71875 C 57.125 6.773438 57.144531 6.832031 57.160156 6.875 C 57.160156 6.886719 57.160156 6.886719 57.171875 6.894531 C 57.160156 6.847656 57.152344 6.8125 57.132812 6.765625 C 57.050781 6.488281 56.960938 6.210938 56.851562 5.945312 C 56.777344 5.761719 56.6875 5.59375 56.566406 5.429688 C 56.421875 5.226562 56.226562 5.078125 56 4.976562 C 55.882812 4.929688 55.761719 4.894531 55.644531 4.867188 Z M 55.917969 4.855469 C 55.953125 4.867188 56 4.875 56.035156 4.894531 C 56.082031 4.914062 56.117188 4.929688 56.15625 4.949219 C 56.191406 4.96875 56.238281 4.984375 56.273438 5.015625 C 56.3125 5.03125 56.347656 5.058594 56.382812 5.085938 C 56.421875 5.105469 56.449219 5.132812 56.484375 5.160156 C 56.519531 5.1875 56.546875 5.214844 56.585938 5.253906 C 56.464844 4.96875 56.019531 4.765625 55.78125 4.828125 C 55.835938 4.839844 55.871094 4.847656 55.917969 4.855469 Z M 60.160156 4.351562 C 60.132812 4.332031 60.113281 4.3125 60.085938 4.292969 C 59.976562 4.210938 59.847656 4.164062 59.722656 4.128906 C 59.539062 4.074219 59.347656 4.046875 59.15625 4.019531 C 59.015625 4 58.878906 3.992188 58.742188 3.980469 C 58.515625 3.972656 58.296875 3.953125 58.066406 3.960938 C 57.964844 3.960938 57.875 3.960938 57.773438 3.960938 C 57.683594 3.960938 57.589844 3.960938 57.5 3.972656 C 57.324219 3.980469 57.160156 3.992188 56.996094 4 C 56.878906 4.007812 56.769531 4.007812 56.648438 4.027344 C 56.511719 4.035156 56.367188 4.0625 56.226562 4.074219 C 56.171875 4.082031 56.109375 4.09375 56.054688 4.09375 C 55.980469 4.101562 55.910156 4.109375 55.824219 4.121094 C 55.644531 4.148438 55.46875 4.175781 55.285156 4.210938 C 55.09375 4.25 54.902344 4.277344 54.710938 4.3125 C 54.4375 4.367188 54.171875 4.433594 53.90625 4.496094 C 53.484375 4.597656 53.066406 4.726562 52.644531 4.855469 C 52.289062 4.96875 51.941406 5.097656 51.601562 5.234375 C 51.410156 5.316406 51.21875 5.402344 51.035156 5.484375 C 51.015625 5.492188 51 5.503906 50.988281 5.511719 C 51.007812 5.519531 51.015625 5.519531 51.027344 5.511719 C 51.171875 5.457031 51.316406 5.402344 51.464844 5.347656 C 51.636719 5.28125 51.820312 5.226562 52.003906 5.171875 C 52.234375 5.097656 52.46875 5.03125 52.699219 4.96875 C 53.066406 4.867188 53.441406 4.785156 53.816406 4.699219 C 54.015625 4.664062 54.21875 4.617188 54.417969 4.582031 C 54.5625 4.554688 54.703125 4.535156 54.847656 4.507812 C 54.9375 4.488281 55.03125 4.480469 55.121094 4.46875 C 55.203125 4.460938 55.285156 4.453125 55.367188 4.433594 C 55.480469 4.414062 55.589844 4.40625 55.707031 4.386719 C 55.796875 4.378906 55.882812 4.367188 55.972656 4.359375 C 56.109375 4.339844 56.257812 4.332031 56.394531 4.324219 C 56.410156 4.324219 56.429688 4.324219 56.449219 4.324219 C 56.59375 4.3125 56.742188 4.292969 56.886719 4.292969 C 57.351562 4.285156 57.820312 4.265625 58.285156 4.3125 C 58.378906 4.324219 58.460938 4.332031 58.550781 4.339844 C 58.679688 4.359375 58.796875 4.378906 58.917969 4.40625 C 59.0625 4.441406 59.210938 4.488281 59.347656 4.5625 C 59.402344 4.589844 59.457031 4.625 59.5 4.664062 C 59.574219 4.726562 59.628906 4.800781 59.648438 4.902344 C 59.65625 4.96875 59.65625 5.042969 59.640625 5.105469 C 59.621094 5.171875 59.601562 5.226562 59.566406 5.28125 C 59.492188 5.417969 59.390625 5.539062 59.292969 5.660156 C 59.082031 5.898438 58.835938 6.109375 58.585938 6.304688 C 58.488281 6.386719 58.378906 6.460938 58.265625 6.542969 C 58.085938 6.683594 57.902344 6.8125 57.710938 6.929688 C 57.671875 6.949219 57.636719 6.976562 57.589844 7.003906 C 57.589844 7.015625 57.835938 6.914062 57.921875 6.867188 C 58.203125 6.71875 58.46875 6.554688 58.734375 6.378906 C 58.960938 6.222656 59.191406 6.066406 59.402344 5.878906 C 59.566406 5.742188 59.722656 5.605469 59.859375 5.445312 C 59.960938 5.335938 60.050781 5.214844 60.132812 5.085938 C 60.207031 4.96875 60.25 4.847656 60.277344 4.710938 C 60.296875 4.570312 60.269531 4.441406 60.160156 4.351562 Z M 52.039062 8.949219 C 52.121094 8.875 52.214844 8.875 52.316406 8.894531 C 52.398438 8.914062 52.480469 8.941406 52.550781 8.976562 C 52.617188 9.015625 52.691406 9.042969 52.753906 9.070312 C 52.855469 9.117188 53.128906 9.207031 53.164062 9.21875 C 53.15625 9.238281 52.945312 9.402344 52.84375 9.476562 C 52.753906 9.539062 52.664062 9.605469 52.5625 9.667969 C 52.480469 9.726562 52.378906 9.761719 52.289062 9.78125 C 52.1875 9.808594 52.078125 9.808594 51.96875 9.78125 C 51.875 9.761719 51.804688 9.707031 51.746094 9.625 C 51.664062 9.496094 51.628906 9.355469 51.648438 9.207031 C 51.65625 9.136719 51.683594 9.0625 51.746094 9.007812 C 51.785156 8.96875 51.832031 8.960938 51.875 8.96875 C 51.886719 8.96875 51.886719 8.96875 51.894531 8.976562 C 51.949219 8.996094 51.996094 8.988281 52.039062 8.949219 Z M 51.859375 9.449219 C 51.894531 9.496094 51.949219 9.511719 52.023438 9.511719 C 52.105469 9.523438 52.269531 9.476562 52.34375 9.449219 C 52.433594 9.410156 52.609375 9.347656 52.617188 9.335938 C 52.597656 9.320312 52.242188 9.292969 52.050781 9.402344 C 52.039062 9.394531 51.859375 9.429688 51.859375 9.449219 Z M 51.859375 9.449219 " fill-opacity="1" fill-rule="nonzero"/></g><g fill="#f3a6c9" fill-opacity="1"><g transform="translate(3.296429, 31.781426)"><g><path d="M 19.730469 -16.894531 C 19.195312 -16.894531 18.808594 -16.726562 18.441406 -16.324219 C 16.785156 -14.460938 13.742188 -11.441406 11.992188 -7.628906 C 11.992188 -10.574219 12.324219 -13.652344 11.183594 -15.328125 C 10.445312 -16.433594 9.378906 -16.894531 8.179688 -16.894531 C 6.558594 -16.894531 4.773438 -15.992188 3.539062 -14.257812 C 2.875 -13.339844 2.433594 -12.234375 2.339844 -11.054688 C 2.027344 -7.203125 6.851562 -7.371094 6.925781 -11.53125 C 6.925781 -11.734375 6.816406 -11.789062 6.667969 -11.679688 C 6.300781 -11.421875 5.839844 -11.292969 5.398438 -11.273438 C 4.109375 -11.238281 3.648438 -12.398438 4.3125 -13.394531 C 4.828125 -14.203125 5.988281 -14.773438 7.109375 -14.628906 C 7.664062 -14.554688 8.105469 -14.332031 8.472656 -14.019531 C 8.070312 -11.734375 6.722656 -6.300781 4.699219 -5.03125 C 3.207031 -4.089844 1.289062 -4.550781 0.957031 -6.320312 C 0.867188 -6.742188 0.589844 -6.613281 0.40625 -6.320312 C -0.867188 -4.199219 -0.996094 0 2.449219 0 C 6.964844 0 8.917969 -8.546875 9.359375 -12.695312 C 10.648438 -9.433594 9.0625 -3.019531 7.570312 -0.515625 C 7.425781 -0.257812 7.296875 0 7.71875 0 L 11.71875 0 C 12.175781 0 12.25 -0.222656 12.269531 -0.609375 C 12.378906 -6.429688 15.179688 -9.894531 18.882812 -14.167969 C 17.445312 -10.113281 13.910156 -5.046875 14.1875 -1.75 C 14.277344 -0.664062 15.03125 0 15.9375 0 C 18.054688 0 19.878906 -2.617188 20.285156 -4.605469 C 20.355469 -4.917969 20.394531 -5.214844 20.355469 -5.378906 C 20.320312 -5.546875 20.136719 -5.617188 19.988281 -5.417969 C 19.546875 -4.808594 19.105469 -4.585938 18.734375 -4.570312 C 17.980469 -4.550781 17.5 -5.617188 17.871094 -7.183594 C 18.773438 -10.886719 21.460938 -13.707031 23.914062 -16.488281 C 24.117188 -16.726562 23.988281 -16.894531 23.691406 -16.894531 Z M 19.730469 -16.894531 "/></g></g></g><g fill="#f3a6c9" fill-opacity="1"><g transform="translate(23.285314, 31.781426)"><g><path d="M 2.027344 0 C 6.558594 0 9.800781 -9.210938 5.160156 -9.210938 C -0.0351562 -9.210938 -3.242188 0 2.027344 0 Z M 3.574219 -6.523438 C 5.066406 -6.523438 6.28125 -5.949219 6.28125 -5.25 C 6.28125 -4.550781 5.066406 -3.996094 3.574219 -3.996094 C 2.082031 -3.996094 0.867188 -4.550781 0.867188 -5.25 C 0.867188 -5.949219 2.082031 -6.523438 3.574219 -6.523438 Z M 3.574219 -6.523438 "/></g></g></g><g fill="#f3a6c9" fill-opacity="1"><g transform="translate(31.667748, 31.781426)"><g><path d="M 8.03125 -13.816406 C 7.738281 -13.816406 7.628906 -13.6875 7.589844 -13.410156 C 7.351562 -11.386719 6.742188 -9.78125 6.042969 -8.289062 C 5.765625 -8.863281 5.25 -9.210938 4.476562 -9.210938 C 1.566406 -9.210938 -0.609375 -5.398438 -0.589844 -2.691406 C -0.570312 -0.867188 0.332031 0 1.417969 0 C 2.304688 0 3.078125 -0.535156 3.722656 -1.308594 C 3.851562 -0.535156 4.347656 0 5.140625 0 C 7.238281 0 9.449219 -2.617188 9.855469 -4.585938 C 9.929688 -4.917969 9.949219 -5.214844 9.910156 -5.378906 C 9.875 -5.546875 9.707031 -5.601562 9.5625 -5.417969 C 9.136719 -4.863281 8.511719 -4.570312 7.976562 -4.570312 C 6.28125 -4.570312 7.148438 -6.890625 7.535156 -7.738281 C 8.546875 -9.855469 10.554688 -12.398438 11.496094 -13.484375 C 11.679688 -13.667969 11.570312 -13.816406 11.332031 -13.816406 Z M 3.167969 -6.523438 C 4.402344 -6.523438 5.398438 -5.949219 5.398438 -5.25 C 5.398438 -4.550781 4.402344 -3.996094 3.167969 -3.996094 C 1.933594 -3.996094 0.921875 -4.550781 0.921875 -5.25 C 0.921875 -5.949219 1.933594 -6.523438 3.167969 -6.523438 Z M 3.167969 -6.523438 "/></g></g></g><g fill="#f3a6c9" fill-opacity="1"><g transform="translate(41.22925, 31.781426)"><g><path d="M -0.589844 -2.671875 C -0.550781 -0.867188 0.332031 0 1.417969 0 C 2.320312 0 3.078125 -0.550781 3.738281 -1.289062 C 3.851562 -0.496094 4.367188 0 5.121094 0 C 7.238281 0 9.433594 -2.597656 9.855469 -4.585938 C 9.910156 -4.917969 9.949219 -5.195312 9.910156 -5.378906 C 9.855469 -5.527344 9.707031 -5.601562 9.5625 -5.398438 C 9.136719 -4.863281 8.472656 -4.570312 7.921875 -4.570312 C 7.257812 -4.570312 6.742188 -4.972656 6.910156 -5.804688 C 7.222656 -7.222656 8.789062 -7.847656 9.488281 -8.824219 C 9.636719 -9.0625 9.488281 -9.210938 9.304688 -9.210938 C 9.191406 -9.210938 9.082031 -9.136719 8.992188 -9.0625 C 8.253906 -8.605469 7.570312 -9.210938 6.910156 -9.210938 C 6.667969 -9.210938 6.613281 -9.007812 6.613281 -8.804688 C 6.632812 -8.179688 6.578125 -7.664062 6.464844 -7.222656 C 6.410156 -7.039062 6.28125 -6.980469 6.265625 -7.222656 C 6.226562 -8.34375 5.675781 -9.210938 4.457031 -9.210938 C 1.566406 -9.210938 -0.609375 -5.398438 -0.589844 -2.671875 Z M 3.148438 -6.503906 C 4.382812 -6.503906 5.398438 -5.949219 5.398438 -5.25 C 5.398438 -4.550781 4.382812 -3.980469 3.148438 -3.980469 C 1.914062 -3.980469 0.941406 -4.550781 0.941406 -5.25 C 0.941406 -5.949219 1.914062 -6.503906 3.148438 -6.503906 Z M 3.148438 -6.503906 "/></g></g></g><g fill="#f3a6c9" fill-opacity="1"><g transform="translate(50.790752, 31.781426)"><g/></g></g><g fill="#f3a6c9" fill-opacity="1"><g transform="translate(56.225518, 31.781426)"><g><path d="M 19.730469 -16.894531 C 19.195312 -16.894531 18.808594 -16.726562 18.441406 -16.324219 C 16.785156 -14.460938 13.742188 -11.441406 11.992188 -7.628906 C 11.992188 -10.574219 12.324219 -13.652344 11.183594 -15.328125 C 10.445312 -16.433594 9.378906 -16.894531 8.179688 -16.894531 C 6.558594 -16.894531 4.773438 -15.992188 3.539062 -14.257812 C 2.875 -13.339844 2.433594 -12.234375 2.339844 -11.054688 C 2.027344 -7.203125 6.851562 -7.371094 6.925781 -11.53125 C 6.925781 -11.734375 6.816406 -11.789062 6.667969 -11.679688 C 6.300781 -11.421875 5.839844 -11.292969 5.398438 -11.273438 C 4.109375 -11.238281 3.648438 -12.398438 4.3125 -13.394531 C 4.828125 -14.203125 5.988281 -14.773438 7.109375 -14.628906 C 7.664062 -14.554688 8.105469 -14.332031 8.472656 -14.019531 C 8.070312 -11.734375 6.722656 -6.300781 4.699219 -5.03125 C 3.207031 -4.089844 1.289062 -4.550781 0.957031 -6.320312 C 0.867188 -6.742188 0.589844 -6.613281 0.40625 -6.320312 C -0.867188 -4.199219 -0.996094 0 2.449219 0 C 6.964844 0 8.917969 -8.546875 9.359375 -12.695312 C 10.648438 -9.433594 9.0625 -3.019531 7.570312 -0.515625 C 7.425781 -0.257812 7.296875 0 7.71875 0 L 11.71875 0 C 12.175781 0 12.25 -0.222656 12.269531 -0.609375 C 12.378906 -6.429688 15.179688 -9.894531 18.882812 -14.167969 C 17.445312 -10.113281 13.910156 -5.046875 14.1875 -1.75 C 14.277344 -0.664062 15.03125 0 15.9375 0 C 18.054688 0 19.878906 -2.617188 20.285156 -4.605469 C 20.355469 -4.917969 20.394531 -5.214844 20.355469 -5.378906 C 20.320312 -5.546875 20.136719 -5.617188 19.988281 -5.417969 C 19.546875 -4.808594 19.105469 -4.585938 18.734375 -4.570312 C 17.980469 -4.550781 17.5 -5.617188 17.871094 -7.183594 C 18.773438 -10.886719 21.460938 -13.707031 23.914062 -16.488281 C 24.117188 -16.726562 23.988281 -16.894531 23.691406 -16.894531 Z M 19.730469 -16.894531 "/></g></g></g><g fill="#f3a6c9" fill-opacity="1"><g transform="translate(76.214399, 31.781426)"><g><path d="M -0.589844 -2.671875 C -0.550781 -0.867188 0.332031 0 1.417969 0 C 2.320312 0 3.078125 -0.550781 3.738281 -1.289062 C 3.851562 -0.496094 4.367188 0 5.121094 0 C 7.238281 0 9.433594 -2.597656 9.855469 -4.585938 C 9.910156 -4.917969 9.949219 -5.195312 9.910156 -5.378906 C 9.855469 -5.527344 9.707031 -5.601562 9.5625 -5.398438 C 9.136719 -4.863281 8.472656 -4.570312 7.921875 -4.570312 C 7.257812 -4.570312 6.742188 -4.972656 6.910156 -5.804688 C 7.222656 -7.222656 8.789062 -7.847656 9.488281 -8.824219 C 9.636719 -9.0625 9.488281 -9.210938 9.304688 -9.210938 C 9.191406 -9.210938 9.082031 -9.136719 8.992188 -9.0625 C 8.253906 -8.605469 7.570312 -9.210938 6.910156 -9.210938 C 6.667969 -9.210938 6.613281 -9.007812 6.613281 -8.804688 C 6.632812 -8.179688 6.578125 -7.664062 6.464844 -7.222656 C 6.410156 -7.039062 6.28125 -6.980469 6.265625 -7.222656 C 6.226562 -8.34375 5.675781 -9.210938 4.457031 -9.210938 C 1.566406 -9.210938 -0.609375 -5.398438 -0.589844 -2.671875 Z M 3.148438 -6.503906 C 4.382812 -6.503906 5.398438 -5.949219 5.398438 -5.25 C 5.398438 -4.550781 4.382812 -3.980469 3.148438 -3.980469 C 1.914062 -3.980469 0.941406 -4.550781 0.941406 -5.25 C 0.941406 -5.949219 1.914062 -6.503906 3.148438 -6.503906 Z M 3.148438 -6.503906 "/></g></g></g><g fill="#f3a6c9" fill-opacity="1"><g transform="translate(85.775908, 31.781426)"><g><path d="M 6.335938 -9.304688 C 4.902344 -9.304688 2.78125 -8.105469 1.675781 -9.671875 C 1.398438 -10.039062 1.214844 -10.003906 0.976562 -9.691406 C 0.515625 -9.027344 0.3125 -7.886719 1.269531 -7.460938 C 1.4375 -7.386719 1.621094 -7.351562 1.84375 -7.332031 C 1.859375 -6.761719 1.566406 -6.246094 0.921875 -6.226562 C 0.570312 -6.207031 0.238281 -6.375 0.148438 -6.78125 C 0.128906 -6.890625 0.0351562 -6.910156 -0.0546875 -6.851562 C -0.921875 -6.375 -1.011719 -4.585938 0.386719 -4.441406 C 1.972656 -4.292969 2.984375 -5.933594 2.671875 -7.386719 C 3.058594 -7.460938 3.445312 -7.589844 3.757812 -7.71875 C 5.472656 -8.511719 5.582031 -7.460938 4.53125 -6.191406 C 3.667969 -5.160156 2.191406 -4.550781 1.695312 -3.296875 C 1.011719 -1.585938 2.027344 0 3.941406 0 C 6.042969 0 8.253906 -2.617188 8.660156 -4.585938 C 8.734375 -4.917969 8.75 -5.214844 8.714844 -5.378906 C 8.675781 -5.546875 8.511719 -5.601562 8.363281 -5.417969 C 7.941406 -4.882812 7.296875 -4.570312 6.742188 -4.570312 C 5.472656 -4.570312 5.636719 -5.636719 6.410156 -6.226562 C 7.296875 -6.910156 8.199219 -7.8125 7.996094 -8.511719 C 7.886719 -8.898438 7.386719 -9.320312 6.335938 -9.304688 Z M 6.335938 -9.304688 "/></g></g></g><g fill="#f3a6c9" fill-opacity="1"><g transform="translate(94.139921, 31.781426)"><g><path d="M 6.835938 -9.304688 C 5.5625 -9.304688 4.570312 -8.804688 3.574219 -8.105469 C 2.890625 -7.628906 2.449219 -7.535156 3.003906 -8.660156 C 3.777344 -10.1875 4.882812 -11.699219 6.449219 -13.484375 C 6.613281 -13.667969 6.523438 -13.816406 6.265625 -13.816406 L 2.964844 -13.816406 C 2.691406 -13.816406 2.5625 -13.6875 2.523438 -13.410156 C 2.210938 -10.648438 -0.441406 -3.703125 -2.433594 -0.421875 C -2.542969 -0.203125 -2.632812 0 -2.304688 0 L 1.125 0 C 1.492188 0 1.585938 -0.183594 1.566406 -0.496094 C 1.457031 -1.472656 1.382812 -2.542969 1.492188 -3.539062 C 1.714844 -1.585938 2.691406 0 4.441406 0 C 6.925781 0 8.75 -2.617188 9.15625 -4.585938 C 9.230469 -4.917969 9.25 -5.214844 9.230469 -5.378906 C 9.175781 -5.546875 9.007812 -5.601562 8.863281 -5.417969 C 7.773438 -4.035156 3.148438 -2.78125 2.082031 -4.808594 C 2.007812 -4.957031 2.082031 -4.992188 2.191406 -4.882812 C 2.503906 -4.625 2.910156 -4.441406 3.425781 -4.382812 C 5.066406 -4.199219 7.222656 -5.34375 8.125 -6.890625 C 8.824219 -8.085938 8.382812 -9.320312 6.835938 -9.304688 Z M 2.671875 -6.613281 C 2.949219 -6.851562 3.335938 -7.039062 3.683594 -7.109375 C 5.160156 -7.460938 5.636719 -6.042969 4.199219 -5.488281 C 3.757812 -5.304688 3.222656 -5.269531 2.835938 -5.398438 C 2.175781 -5.601562 2.191406 -6.191406 2.671875 -6.613281 Z M 2.671875 -6.613281 "/></g></g></g><g fill="#f3a6c9" fill-opacity="1"><g transform="translate(103.001349, 31.781426)"><g><path d="M -0.535156 -3.925781 C -1.160156 -1.199219 0.753906 0 2.746094 0 C 5.527344 0 7.554688 -1.824219 8.125 -4.585938 C 8.179688 -4.917969 8.214844 -5.214844 8.179688 -5.378906 C 8.144531 -5.546875 7.976562 -5.601562 7.828125 -5.417969 C 7.074219 -4.457031 5.730469 -3.777344 4.367188 -3.59375 C 5.894531 -4.089844 6.890625 -5.65625 7.09375 -7.203125 C 7.222656 -8.402344 6.578125 -9.210938 5.160156 -9.210938 C 2.304688 -9.210938 0.0351562 -6.429688 -0.535156 -3.925781 Z M 2.949219 -6.523438 C 4.054688 -6.523438 4.972656 -5.949219 4.972656 -5.25 C 4.972656 -4.550781 4.054688 -3.996094 2.949219 -3.996094 C 1.824219 -3.996094 0.921875 -4.550781 0.921875 -5.25 C 0.921875 -5.949219 1.824219 -6.523438 2.949219 -6.523438 Z M 2.949219 -6.523438 "/></g></g></g><g fill="#f3a6c9" fill-opacity="1"><g transform="translate(110.831095, 31.781426)"><g><path d="M 3.5 -13.816406 C 3.207031 -13.816406 3.09375 -13.6875 3.058594 -13.410156 C 3.019531 -13.007812 2.949219 -12.621094 2.875 -12.25 C 2.375 -12.269531 1.914062 -12.269531 1.566406 -12.175781 C 0.792969 -11.976562 0.351562 -10.960938 0.3125 -10.226562 C 0.3125 -10.097656 0.40625 -10.058594 0.515625 -10.152344 C 0.902344 -10.425781 1.585938 -10.445312 2.375 -10.390625 C 2.117188 -9.617188 1.804688 -8.898438 1.472656 -8.214844 C 0.644531 -6.484375 -1.160156 -3.8125 -1.140625 -1.898438 C -1.125 -0.867188 -0.460938 0 0.609375 0 C 2.726562 0 4.9375 -2.617188 5.34375 -4.585938 C 5.398438 -4.917969 5.433594 -5.214844 5.398438 -5.378906 C 5.359375 -5.546875 5.195312 -5.601562 5.046875 -5.417969 C 4.605469 -4.863281 3.996094 -4.570312 3.445312 -4.570312 C 1.75 -4.570312 2.617188 -6.890625 3.019531 -7.738281 C 3.390625 -8.511719 3.90625 -9.359375 4.441406 -10.167969 C 5.121094 -10.113281 5.765625 -10.078125 6.226562 -10.207031 C 7 -10.410156 7.425781 -11.421875 7.460938 -12.160156 C 7.460938 -12.289062 7.386719 -12.324219 7.277344 -12.234375 C 6.945312 -11.992188 6.394531 -11.9375 5.746094 -11.976562 C 6.226562 -12.582031 6.667969 -13.117188 6.980469 -13.484375 C 7.148438 -13.667969 7.054688 -13.816406 6.796875 -13.816406 Z M 3.5 -13.816406 "/></g></g></g><g fill="#e54246" fill-opacity="1"><g transform="translate(2.926572, 31.25322)"><g><path d="M 19.730469 -16.894531 C 19.195312 -16.894531 18.808594 -16.726562 18.441406 -16.324219 C 16.785156 -14.460938 13.742188 -11.441406 11.992188 -7.628906 C 11.992188 -10.574219 12.324219 -13.652344 11.183594 -15.328125 C 10.445312 -16.433594 9.378906 -16.894531 8.179688 -16.894531 C 6.558594 -16.894531 4.773438 -15.992188 3.539062 -14.257812 C 2.875 -13.339844 2.433594 -12.234375 2.339844 -11.054688 C 2.027344 -7.203125 6.851562 -7.371094 6.925781 -11.53125 C 6.925781 -11.734375 6.816406 -11.789062 6.667969 -11.679688 C 6.300781 -11.421875 5.839844 -11.292969 5.398438 -11.273438 C 4.109375 -11.238281 3.648438 -12.398438 4.3125 -13.394531 C 4.828125 -14.203125 5.988281 -14.773438 7.109375 -14.628906 C 7.664062 -14.554688 8.105469 -14.332031 8.472656 -14.019531 C 8.070312 -11.734375 6.722656 -6.300781 4.699219 -5.03125 C 3.207031 -4.089844 1.289062 -4.550781 0.957031 -6.320312 C 0.867188 -6.742188 0.589844 -6.613281 0.40625 -6.320312 C -0.867188 -4.199219 -0.996094 0 2.449219 0 C 6.964844 0 8.917969 -8.546875 9.359375 -12.695312 C 10.648438 -9.433594 9.0625 -3.019531 7.570312 -0.515625 C 7.425781 -0.257812 7.296875 0 7.71875 0 L 11.71875 0 C 12.175781 0 12.25 -0.222656 12.269531 -0.609375 C 12.378906 -6.429688 15.179688 -9.894531 18.882812 -14.167969 C 17.445312 -10.113281 13.910156 -5.046875 14.1875 -1.75 C 14.277344 -0.664062 15.03125 0 15.9375 0 C 18.054688 0 19.878906 -2.617188 20.285156 -4.605469 C 20.355469 -4.917969 20.394531 -5.214844 20.355469 -5.378906 C 20.320312 -5.546875 20.136719 -5.617188 19.988281 -5.417969 C 19.546875 -4.808594 19.105469 -4.585938 18.734375 -4.570312 C 17.980469 -4.550781 17.5 -5.617188 17.871094 -7.183594 C 18.773438 -10.886719 21.460938 -13.707031 23.914062 -16.488281 C 24.117188 -16.726562 23.988281 -16.894531 23.691406 -16.894531 Z M 19.730469 -16.894531 "/></g></g></g><g fill="#e54246" fill-opacity="1"><g transform="translate(22.915458, 31.25322)"><g><path d="M 2.027344 0 C 6.558594 0 9.800781 -9.210938 5.160156 -9.210938 C -0.0351562 -9.210938 -3.242188 0 2.027344 0 Z M 3.574219 -6.523438 C 5.066406 -6.523438 6.28125 -5.949219 6.28125 -5.25 C 6.28125 -4.550781 5.066406 -3.996094 3.574219 -3.996094 C 2.082031 -3.996094 0.867188 -4.550781 0.867188 -5.25 C 0.867188 -5.949219 2.082031 -6.523438 3.574219 -6.523438 Z M 3.574219 -6.523438 "/></g></g></g><g fill="#e54246" fill-opacity="1"><g transform="translate(31.297892, 31.25322)"><g><path d="M 8.03125 -13.816406 C 7.738281 -13.816406 7.628906 -13.6875 7.589844 -13.410156 C 7.351562 -11.386719 6.742188 -9.78125 6.042969 -8.289062 C 5.765625 -8.863281 5.25 -9.210938 4.476562 -9.210938 C 1.566406 -9.210938 -0.609375 -5.398438 -0.589844 -2.691406 C -0.570312 -0.867188 0.332031 0 1.417969 0 C 2.304688 0 3.078125 -0.535156 3.722656 -1.308594 C 3.851562 -0.535156 4.347656 0 5.140625 0 C 7.238281 0 9.449219 -2.617188 9.855469 -4.585938 C 9.929688 -4.917969 9.949219 -5.214844 9.910156 -5.378906 C 9.875 -5.546875 9.707031 -5.601562 9.5625 -5.417969 C 9.136719 -4.863281 8.511719 -4.570312 7.976562 -4.570312 C 6.28125 -4.570312 7.148438 -6.890625 7.535156 -7.738281 C 8.546875 -9.855469 10.554688 -12.398438 11.496094 -13.484375 C 11.679688 -13.667969 11.570312 -13.816406 11.332031 -13.816406 Z M 3.167969 -6.523438 C 4.402344 -6.523438 5.398438 -5.949219 5.398438 -5.25 C 5.398438 -4.550781 4.402344 -3.996094 3.167969 -3.996094 C 1.933594 -3.996094 0.921875 -4.550781 0.921875 -5.25 C 0.921875 -5.949219 1.933594 -6.523438 3.167969 -6.523438 Z M 3.167969 -6.523438 "/></g></g></g><g fill="#e54246" fill-opacity="1"><g transform="translate(40.859395, 31.25322)"><g><path d="M -0.589844 -2.671875 C -0.550781 -0.867188 0.332031 0 1.417969 0 C 2.320312 0 3.078125 -0.550781 3.738281 -1.289062 C 3.851562 -0.496094 4.367188 0 5.121094 0 C 7.238281 0 9.433594 -2.597656 9.855469 -4.585938 C 9.910156 -4.917969 9.949219 -5.195312 9.910156 -5.378906 C 9.855469 -5.527344 9.707031 -5.601562 9.5625 -5.398438 C 9.136719 -4.863281 8.472656 -4.570312 7.921875 -4.570312 C 7.257812 -4.570312 6.742188 -4.972656 6.910156 -5.804688 C 7.222656 -7.222656 8.789062 -7.847656 9.488281 -8.824219 C 9.636719 -9.0625 9.488281 -9.210938 9.304688 -9.210938 C 9.191406 -9.210938 9.082031 -9.136719 8.992188 -9.0625 C 8.253906 -8.605469 7.570312 -9.210938 6.910156 -9.210938 C 6.667969 -9.210938 6.613281 -9.007812 6.613281 -8.804688 C 6.632812 -8.179688 6.578125 -7.664062 6.464844 -7.222656 C 6.410156 -7.039062 6.28125 -6.980469 6.265625 -7.222656 C 6.226562 -8.34375 5.675781 -9.210938 4.457031 -9.210938 C 1.566406 -9.210938 -0.609375 -5.398438 -0.589844 -2.671875 Z M 3.148438 -6.503906 C 4.382812 -6.503906 5.398438 -5.949219 5.398438 -5.25 C 5.398438 -4.550781 4.382812 -3.980469 3.148438 -3.980469 C 1.914062 -3.980469 0.941406 -4.550781 0.941406 -5.25 C 0.941406 -5.949219 1.914062 -6.503906 3.148438 -6.503906 Z M 3.148438 -6.503906 "/></g></g></g><g fill="#e54246" fill-opacity="1"><g transform="translate(50.420897, 31.25322)"><g/></g></g><g fill="#e54246" fill-opacity="1"><g transform="translate(55.855663, 31.25322)"><g><path d="M 19.730469 -16.894531 C 19.195312 -16.894531 18.808594 -16.726562 18.441406 -16.324219 C 16.785156 -14.460938 13.742188 -11.441406 11.992188 -7.628906 C 11.992188 -10.574219 12.324219 -13.652344 11.183594 -15.328125 C 10.445312 -16.433594 9.378906 -16.894531 8.179688 -16.894531 C 6.558594 -16.894531 4.773438 -15.992188 3.539062 -14.257812 C 2.875 -13.339844 2.433594 -12.234375 2.339844 -11.054688 C 2.027344 -7.203125 6.851562 -7.371094 6.925781 -11.53125 C 6.925781 -11.734375 6.816406 -11.789062 6.667969 -11.679688 C 6.300781 -11.421875 5.839844 -11.292969 5.398438 -11.273438 C 4.109375 -11.238281 3.648438 -12.398438 4.3125 -13.394531 C 4.828125 -14.203125 5.988281 -14.773438 7.109375 -14.628906 C 7.664062 -14.554688 8.105469 -14.332031 8.472656 -14.019531 C 8.070312 -11.734375 6.722656 -6.300781 4.699219 -5.03125 C 3.207031 -4.089844 1.289062 -4.550781 0.957031 -6.320312 C 0.867188 -6.742188 0.589844 -6.613281 0.40625 -6.320312 C -0.867188 -4.199219 -0.996094 0 2.449219 0 C 6.964844 0 8.917969 -8.546875 9.359375 -12.695312 C 10.648438 -9.433594 9.0625 -3.019531 7.570312 -0.515625 C 7.425781 -0.257812 7.296875 0 7.71875 0 L 11.71875 0 C 12.175781 0 12.25 -0.222656 12.269531 -0.609375 C 12.378906 -6.429688 15.179688 -9.894531 18.882812 -14.167969 C 17.445312 -10.113281 13.910156 -5.046875 14.1875 -1.75 C 14.277344 -0.664062 15.03125 0 15.9375 0 C 18.054688 0 19.878906 -2.617188 20.285156 -4.605469 C 20.355469 -4.917969 20.394531 -5.214844 20.355469 -5.378906 C 20.320312 -5.546875 20.136719 -5.617188 19.988281 -5.417969 C 19.546875 -4.808594 19.105469 -4.585938 18.734375 -4.570312 C 17.980469 -4.550781 17.5 -5.617188 17.871094 -7.183594 C 18.773438 -10.886719 21.460938 -13.707031 23.914062 -16.488281 C 24.117188 -16.726562 23.988281 -16.894531 23.691406 -16.894531 Z M 19.730469 -16.894531 "/></g></g></g><g fill="#e54246" fill-opacity="1"><g transform="translate(75.844541, 31.25322)"><g><path d="M -0.589844 -2.671875 C -0.550781 -0.867188 0.332031 0 1.417969 0 C 2.320312 0 3.078125 -0.550781 3.738281 -1.289062 C 3.851562 -0.496094 4.367188 0 5.121094 0 C 7.238281 0 9.433594 -2.597656 9.855469 -4.585938 C 9.910156 -4.917969 9.949219 -5.195312 9.910156 -5.378906 C 9.855469 -5.527344 9.707031 -5.601562 9.5625 -5.398438 C 9.136719 -4.863281 8.472656 -4.570312 7.921875 -4.570312 C 7.257812 -4.570312 6.742188 -4.972656 6.910156 -5.804688 C 7.222656 -7.222656 8.789062 -7.847656 9.488281 -8.824219 C 9.636719 -9.0625 9.488281 -9.210938 9.304688 -9.210938 C 9.191406 -9.210938 9.082031 -9.136719 8.992188 -9.0625 C 8.253906 -8.605469 7.570312 -9.210938 6.910156 -9.210938 C 6.667969 -9.210938 6.613281 -9.007812 6.613281 -8.804688 C 6.632812 -8.179688 6.578125 -7.664062 6.464844 -7.222656 C 6.410156 -7.039062 6.28125 -6.980469 6.265625 -7.222656 C 6.226562 -8.34375 5.675781 -9.210938 4.457031 -9.210938 C 1.566406 -9.210938 -0.609375 -5.398438 -0.589844 -2.671875 Z M 3.148438 -6.503906 C 4.382812 -6.503906 5.398438 -5.949219 5.398438 -5.25 C 5.398438 -4.550781 4.382812 -3.980469 3.148438 -3.980469 C 1.914062 -3.980469 0.941406 -4.550781 0.941406 -5.25 C 0.941406 -5.949219 1.914062 -6.503906 3.148438 -6.503906 Z M 3.148438 -6.503906 "/></g></g></g><g fill="#e54246" fill-opacity="1"><g transform="translate(85.406051, 31.25322)"><g><path d="M 6.335938 -9.304688 C 4.902344 -9.304688 2.78125 -8.105469 1.675781 -9.671875 C 1.398438 -10.039062 1.214844 -10.003906 0.976562 -9.691406 C 0.515625 -9.027344 0.3125 -7.886719 1.269531 -7.460938 C 1.4375 -7.386719 1.621094 -7.351562 1.84375 -7.332031 C 1.859375 -6.761719 1.566406 -6.246094 0.921875 -6.226562 C 0.570312 -6.207031 0.238281 -6.375 0.148438 -6.78125 C 0.128906 -6.890625 0.0351562 -6.910156 -0.0546875 -6.851562 C -0.921875 -6.375 -1.011719 -4.585938 0.386719 -4.441406 C 1.972656 -4.292969 2.984375 -5.933594 2.671875 -7.386719 C 3.058594 -7.460938 3.445312 -7.589844 3.757812 -7.71875 C 5.472656 -8.511719 5.582031 -7.460938 4.53125 -6.191406 C 3.667969 -5.160156 2.191406 -4.550781 1.695312 -3.296875 C 1.011719 -1.585938 2.027344 0 3.941406 0 C 6.042969 0 8.253906 -2.617188 8.660156 -4.585938 C 8.734375 -4.917969 8.75 -5.214844 8.714844 -5.378906 C 8.675781 -5.546875 8.511719 -5.601562 8.363281 -5.417969 C 7.941406 -4.882812 7.296875 -4.570312 6.742188 -4.570312 C 5.472656 -4.570312 5.636719 -5.636719 6.410156 -6.226562 C 7.296875 -6.910156 8.199219 -7.8125 7.996094 -8.511719 C 7.886719 -8.898438 7.386719 -9.320312 6.335938 -9.304688 Z M 6.335938 -9.304688 "/></g></g></g><g fill="#e54246" fill-opacity="1"><g transform="translate(93.770059, 31.25322)"><g><path d="M 6.835938 -9.304688 C 5.5625 -9.304688 4.570312 -8.804688 3.574219 -8.105469 C 2.890625 -7.628906 2.449219 -7.535156 3.003906 -8.660156 C 3.777344 -10.1875 4.882812 -11.699219 6.449219 -13.484375 C 6.613281 -13.667969 6.523438 -13.816406 6.265625 -13.816406 L 2.964844 -13.816406 C 2.691406 -13.816406 2.5625 -13.6875 2.523438 -13.410156 C 2.210938 -10.648438 -0.441406 -3.703125 -2.433594 -0.421875 C -2.542969 -0.203125 -2.632812 0 -2.304688 0 L 1.125 0 C 1.492188 0 1.585938 -0.183594 1.566406 -0.496094 C 1.457031 -1.472656 1.382812 -2.542969 1.492188 -3.539062 C 1.714844 -1.585938 2.691406 0 4.441406 0 C 6.925781 0 8.75 -2.617188 9.15625 -4.585938 C 9.230469 -4.917969 9.25 -5.214844 9.230469 -5.378906 C 9.175781 -5.546875 9.007812 -5.601562 8.863281 -5.417969 C 7.773438 -4.035156 3.148438 -2.78125 2.082031 -4.808594 C 2.007812 -4.957031 2.082031 -4.992188 2.191406 -4.882812 C 2.503906 -4.625 2.910156 -4.441406 3.425781 -4.382812 C 5.066406 -4.199219 7.222656 -5.34375 8.125 -6.890625 C 8.824219 -8.085938 8.382812 -9.320312 6.835938 -9.304688 Z M 2.671875 -6.613281 C 2.949219 -6.851562 3.335938 -7.039062 3.683594 -7.109375 C 5.160156 -7.460938 5.636719 -6.042969 4.199219 -5.488281 C 3.757812 -5.304688 3.222656 -5.269531 2.835938 -5.398438 C 2.175781 -5.601562 2.191406 -6.191406 2.671875 -6.613281 Z M 2.671875 -6.613281 "/></g></g></g><g fill="#e54246" fill-opacity="1"><g transform="translate(102.631484, 31.25322)"><g><path d="M -0.535156 -3.925781 C -1.160156 -1.199219 0.753906 0 2.746094 0 C 5.527344 0 7.554688 -1.824219 8.125 -4.585938 C 8.179688 -4.917969 8.214844 -5.214844 8.179688 -5.378906 C 8.144531 -5.546875 7.976562 -5.601562 7.828125 -5.417969 C 7.074219 -4.457031 5.730469 -3.777344 4.367188 -3.59375 C 5.894531 -4.089844 6.890625 -5.65625 7.09375 -7.203125 C 7.222656 -8.402344 6.578125 -9.210938 5.160156 -9.210938 C 2.304688 -9.210938 0.0351562 -6.429688 -0.535156 -3.925781 Z M 2.949219 -6.523438 C 4.054688 -6.523438 4.972656 -5.949219 4.972656 -5.25 C 4.972656 -4.550781 4.054688 -3.996094 2.949219 -3.996094 C 1.824219 -3.996094 0.921875 -4.550781 0.921875 -5.25 C 0.921875 -5.949219 1.824219 -6.523438 2.949219 -6.523438 Z M 2.949219 -6.523438 "/></g></g></g><g fill="#e54246" fill-opacity="1"><g transform="translate(110.461231, 31.25322)"><g><path d="M 3.5 -13.816406 C 3.207031 -13.816406 3.09375 -13.6875 3.058594 -13.410156 C 3.019531 -13.007812 2.949219 -12.621094 2.875 -12.25 C 2.375 -12.269531 1.914062 -12.269531 1.566406 -12.175781 C 0.792969 -11.976562 0.351562 -10.960938 0.3125 -10.226562 C 0.3125 -10.097656 0.40625 -10.058594 0.515625 -10.152344 C 0.902344 -10.425781 1.585938 -10.445312 2.375 -10.390625 C 2.117188 -9.617188 1.804688 -8.898438 1.472656 -8.214844 C 0.644531 -6.484375 -1.160156 -3.8125 -1.140625 -1.898438 C -1.125 -0.867188 -0.460938 0 0.609375 0 C 2.726562 0 4.9375 -2.617188 5.34375 -4.585938 C 5.398438 -4.917969 5.433594 -5.214844 5.398438 -5.378906 C 5.359375 -5.546875 5.195312 -5.601562 5.046875 -5.417969 C 4.605469 -4.863281 3.996094 -4.570312 3.445312 -4.570312 C 1.75 -4.570312 2.617188 -6.890625 3.019531 -7.738281 C 3.390625 -8.511719 3.90625 -9.359375 4.441406 -10.167969 C 5.121094 -10.113281 5.765625 -10.078125 6.226562 -10.207031 C 7 -10.410156 7.425781 -11.421875 7.460938 -12.160156 C 7.460938 -12.289062 7.386719 -12.324219 7.277344 -12.234375 C 6.945312 -11.992188 6.394531 -11.9375 5.746094 -11.976562 C 6.226562 -12.582031 6.667969 -13.117188 6.980469 -13.484375 C 7.148438 -13.667969 7.054688 -13.816406 6.796875 -13.816406 Z M 3.5 -13.816406 "/></g></g></g></svg>